<svg width="3122" height="871" xmlns="http://www.w3.org/2000/svg" xmlns:xlink="http://www.w3.org/1999/xlink" overflow="hidden"><defs><clipPath id="clip0"><rect x="463" y="804" width="3122" height="871"/></clipPath><clipPath id="clip1"><rect x="463" y="804" width="808" height="872"/></clipPath><clipPath id="clip2"><rect x="463" y="804" width="808" height="872"/></clipPath><clipPath id="clip3"><rect x="463" y="804" width="808" height="872"/></clipPath><clipPath id="clip4"><rect x="1200" y="804" width="808" height="872"/></clipPath><clipPath id="clip5"><rect x="1200" y="804" width="808" height="872"/></clipPath><clipPath id="clip6"><rect x="1200" y="804" width="808" height="872"/></clipPath><clipPath id="clip7"><rect x="1980" y="804" width="808" height="872"/></clipPath><clipPath id="clip8"><rect x="1980" y="804" width="808" height="872"/></clipPath><clipPath id="clip9"><rect x="1980" y="804" width="808" height="872"/></clipPath><clipPath id="clip10"><rect x="2909" y="998" width="676" height="678"/></clipPath><clipPath id="clip11"><rect x="2909" y="998" width="676" height="678"/></clipPath><clipPath id="clip12"><rect x="2909" y="998" width="676" height="678"/></clipPath></defs><g clip-path="url(#clip0)" transform="translate(-463 -804)"><g clip-path="url(#clip1)"><g clip-path="url(#clip2)"><g clip-path="url(#clip3)"><path d="M774.216 225.708 697.614 174.64 775.477 0.630469 665.145 143.116 670.819 92.6789 452.677 318.072 447.633 323.431 365.987 323.431 256.601 323.431 127.67 323.431 86.3742 323.431C41.6109 323.431 5.67422 359.682 5.67422 404.131L5.67422 538.105 63.0469 538.105 63.0469 405.707 92.6789 359.998 92.6789 519.191 62.7316 566.161 62.7316 768.857C62.7316 788.716 79.4391 805.109 99.2988 805.109 119.474 805.109 135.551 788.716 135.551 768.857L135.551 593.271 171.172 536.844 171.172 597.054 251.557 786.195C261.645 803.533 283.711 809.837 301.364 799.75 318.702 789.977 325.007 767.911 314.919 750.258L246.198 586.336 278.982 530.54 462.449 530.54 462.449 769.172C462.449 789.032 478.841 805.424 498.701 805.424 518.876 805.424 535.268 789.032 535.268 769.172L535.268 535.898 661.677 279.613 719.68 290.646C719.68 290.961 719.68 290.961 719.365 291.277L739.54 295.059C739.54 295.059 739.54 294.744 739.54 294.744L748.367 296.32C763.813 299.157 779.89 292.222 788.086 277.722 798.804 259.438 792.184 236.111 774.216 225.708ZM662.938 207.739C656.633 207.739 651.59 202.696 651.59 196.391 651.59 190.086 656.633 185.043 662.938 185.043 669.243 185.043 674.286 190.086 674.286 196.391 674.286 202.696 669.243 207.739 662.938 207.739Z" fill="#A56DBB" transform="matrix(1 0 0 1.07931 463 804)"/></g></g></g><g clip-path="url(#clip4)"><g clip-path="url(#clip5)"><g clip-path="url(#clip6)"><path d="M774.216 225.708 697.614 174.64 775.477 0.630469 665.145 143.116 670.819 92.6789 452.677 318.072 447.633 323.431 365.987 323.431 256.601 323.431 127.67 323.431 86.3742 323.431C41.6109 323.431 5.67422 359.682 5.67422 404.131L5.67422 538.105 63.0469 538.105 63.0469 405.707 92.6789 359.998 92.6789 519.191 62.7316 566.161 62.7316 768.857C62.7316 788.716 79.4391 805.109 99.2988 805.109 119.474 805.109 135.551 788.716 135.551 768.857L135.551 593.271 171.172 536.844 171.172 597.054 251.557 786.195C261.645 803.533 283.711 809.837 301.364 799.75 318.702 789.977 325.007 767.911 314.919 750.258L246.198 586.336 278.982 530.54 462.449 530.54 462.449 769.172C462.449 789.032 478.841 805.424 498.701 805.424 518.876 805.424 535.268 789.032 535.268 769.172L535.268 535.898 661.677 279.613 719.68 290.646C719.68 290.961 719.68 290.961 719.365 291.277L739.54 295.059C739.54 295.059 739.54 294.744 739.54 294.744L748.367 296.32C763.813 299.157 779.89 292.222 788.086 277.722 798.804 259.438 792.184 236.111 774.216 225.708ZM662.938 207.739C656.633 207.739 651.59 202.696 651.59 196.391 651.59 190.086 656.633 185.043 662.938 185.043 669.243 185.043 674.286 190.086 674.286 196.391 674.286 202.696 669.243 207.739 662.938 207.739Z" fill="#A56DBB" transform="matrix(1 0 0 1.07931 1200 804)"/></g></g></g><g clip-path="url(#clip7)"><g clip-path="url(#clip8)"><g clip-path="url(#clip9)"><path d="M774.216 225.708 697.614 174.64 775.477 0.630469 665.145 143.116 670.819 92.6789 452.677 318.072 447.633 323.431 365.987 323.431 256.601 323.431 127.67 323.431 86.3742 323.431C41.6109 323.431 5.67422 359.682 5.67422 404.131L5.67422 538.105 63.0469 538.105 63.0469 405.707 92.6789 359.998 92.6789 519.191 62.7316 566.161 62.7316 768.857C62.7316 788.716 79.4391 805.109 99.2988 805.109 119.474 805.109 135.551 788.716 135.551 768.857L135.551 593.271 171.172 536.844 171.172 597.054 251.557 786.195C261.645 803.533 283.711 809.837 301.364 799.75 318.702 789.977 325.007 767.911 314.919 750.258L246.198 586.336 278.982 530.54 462.449 530.54 462.449 769.172C462.449 789.032 478.841 805.424 498.701 805.424 518.876 805.424 535.268 789.032 535.268 769.172L535.268 535.898 661.677 279.613 719.68 290.646C719.68 290.961 719.68 290.961 719.365 291.277L739.54 295.059C739.54 295.059 739.54 294.744 739.54 294.744L748.367 296.32C763.813 299.157 779.89 292.222 788.086 277.722 798.804 259.438 792.184 236.111 774.216 225.708ZM662.938 207.739C656.633 207.739 651.59 202.696 651.59 196.391 651.59 190.086 656.633 185.043 662.938 185.043 669.243 185.043 674.286 190.086 674.286 196.391 674.286 202.696 669.243 207.739 662.938 207.739Z" fill="#A56DBB" transform="matrix(1 0 0 1.07931 1980 804)"/></g></g></g><g clip-path="url(#clip10)"><g clip-path="url(#clip11)"><g clip-path="url(#clip12)"><path d="M183.525 586.772C173.069 604.608 173.638 626.613 191.555 639.848 206.885 651.147 234.176 649.678 244.654 631.83 266.318 594.881 305.601 567.056 305.601 567.056 305.601 567.056 291.136 535.187 284.291 475.47 284.28 475.481 208.173 544.709 183.525 586.772Z" fill="#7030A0" transform="matrix(1 0 0 1 2909 999)"/><path d="M492.543 265.372C448.089 225.804 400.399 190.302 348.211 161.747 342.596 157.499 336.172 154.173 329.395 151.952 324.862 150.118 320.408 149.23 316.126 149.105 308.961 148.285 301.786 148.649 295.214 150.415 277.867 155.062 266.158 165.677 259.495 179.185 227.342 216.738 200.484 257.548 176.383 300.67 152.453 343.45 218.036 381.731 241.943 338.985 249.415 325.602 257.115 312.413 265.156 299.474 272.092 346.218 279.017 392.962 285.931 439.694 287.332 449.171 291.842 457.326 298.141 463.955 308.21 530.494 326.695 596.134 355.842 656.523 377.107 700.602 442.565 662.07 421.402 618.196 399.625 573.081 385.069 523.136 376.105 472.759 395.809 459.034 402.951 434.318 399.26 409.329 392.404 363.177 385.581 317.003 378.724 270.84 399.477 285.817 419.5 301.877 438.806 319.064 475.333 351.468 529.219 297.97 492.543 265.372Z" fill="#7030A0" transform="matrix(1 0 0 1 2909 999)"/><path d="M376.572 66.1523C376.572 102.687 346.954 132.305 310.419 132.305 273.884 132.305 244.267 102.687 244.267 66.1523 244.267 29.6174 273.884 9.99324e-07 310.419 9.99324e-07 346.954 9.99324e-07 376.572 29.6174 376.572 66.1523Z" fill="#7030A0" transform="matrix(1 0 0 1 2909 999)"/></g></g></g></g></svg>