<svg width="2694" height="2066" xmlns="http://www.w3.org/2000/svg" xmlns:xlink="http://www.w3.org/1999/xlink" overflow="hidden"><defs><clipPath id="clip0"><rect x="854" y="157" width="2694" height="2066"/></clipPath><clipPath id="clip1"><rect x="950" y="475" width="310" height="312"/></clipPath><clipPath id="clip2"><rect x="950" y="475" width="310" height="312"/></clipPath><clipPath id="clip3"><rect x="950" y="475" width="310" height="312"/></clipPath><clipPath id="clip4"><rect x="1516" y="157" width="313" height="311"/></clipPath><clipPath id="clip5"><rect x="1516" y="157" width="313" height="311"/></clipPath><clipPath id="clip6"><rect x="1516" y="157" width="313" height="311"/></clipPath><clipPath id="clip7"><rect x="1995" y="157" width="310" height="311"/></clipPath><clipPath id="clip8"><rect x="1995" y="157" width="310" height="311"/></clipPath><clipPath id="clip9"><rect x="1995" y="157" width="310" height="311"/></clipPath><clipPath id="clip10"><rect x="2489" y="157" width="311" height="311"/></clipPath><clipPath id="clip11"><rect x="2489" y="157" width="311" height="311"/></clipPath><clipPath id="clip12"><rect x="2489" y="157" width="311" height="311"/></clipPath><clipPath id="clip13"><rect x="853" y="860" width="311" height="311"/></clipPath><clipPath id="clip14"><rect x="853" y="860" width="311" height="311"/></clipPath><clipPath id="clip15"><rect x="853" y="860" width="311" height="311"/></clipPath><clipPath id="clip16"><rect x="853" y="1233" width="311" height="311"/></clipPath><clipPath id="clip17"><rect x="853" y="1233" width="311" height="311"/></clipPath><clipPath id="clip18"><rect x="853" y="1233" width="311" height="311"/></clipPath><clipPath id="clip19"><rect x="950" y="1607" width="310" height="311"/></clipPath><clipPath id="clip20"><rect x="950" y="1607" width="310" height="311"/></clipPath><clipPath id="clip21"><rect x="950" y="1607" width="310" height="311"/></clipPath><clipPath id="clip22"><rect x="1516" y="1911" width="313" height="313"/></clipPath><clipPath id="clip23"><rect x="1516" y="1911" width="313" height="313"/></clipPath><clipPath id="clip24"><rect x="1516" y="1911" width="313" height="313"/></clipPath><clipPath id="clip25"><rect x="1995" y="1911" width="310" height="313"/></clipPath><clipPath id="clip26"><rect x="1995" y="1911" width="310" height="313"/></clipPath><clipPath id="clip27"><rect x="1995" y="1911" width="310" height="313"/></clipPath><clipPath id="clip28"><rect x="2489" y="1911" width="311" height="313"/></clipPath><clipPath id="clip29"><rect x="2489" y="1911" width="311" height="313"/></clipPath><clipPath id="clip30"><rect x="2489" y="1911" width="311" height="313"/></clipPath><clipPath id="clip31"><rect x="3141" y="478" width="311" height="310"/></clipPath><clipPath id="clip32"><rect x="3141" y="478" width="311" height="310"/></clipPath><clipPath id="clip33"><rect x="3141" y="478" width="311" height="310"/></clipPath><clipPath id="clip34"><rect x="3238" y="867" width="310" height="312"/></clipPath><clipPath id="clip35"><rect x="3238" y="867" width="310" height="312"/></clipPath><clipPath id="clip36"><rect x="3238" y="867" width="310" height="312"/></clipPath><clipPath id="clip37"><rect x="3238" y="1237" width="310" height="312"/></clipPath><clipPath id="clip38"><rect x="3238" y="1237" width="310" height="312"/></clipPath><clipPath id="clip39"><rect x="3238" y="1237" width="310" height="312"/></clipPath><clipPath id="clip40"><rect x="3141" y="1610" width="311" height="310"/></clipPath><clipPath id="clip41"><rect x="3141" y="1610" width="311" height="310"/></clipPath><clipPath id="clip42"><rect x="3141" y="1610" width="311" height="310"/></clipPath><clipPath id="clip43"><rect x="1358" y="475" width="311" height="312"/></clipPath><clipPath id="clip44"><rect x="1358" y="475" width="311" height="312"/></clipPath><clipPath id="clip45"><rect x="1358" y="475" width="311" height="312"/></clipPath><clipPath id="clip46"><rect x="1262" y="860" width="311" height="311"/></clipPath><clipPath id="clip47"><rect x="1262" y="860" width="311" height="311"/></clipPath><clipPath id="clip48"><rect x="1262" y="860" width="311" height="311"/></clipPath><clipPath id="clip49"><rect x="1262" y="1233" width="311" height="311"/></clipPath><clipPath id="clip50"><rect x="1262" y="1233" width="311" height="311"/></clipPath><clipPath id="clip51"><rect x="1262" y="1233" width="311" height="311"/></clipPath><clipPath id="clip52"><rect x="1358" y="1607" width="311" height="311"/></clipPath><clipPath id="clip53"><rect x="1358" y="1607" width="311" height="311"/></clipPath><clipPath id="clip54"><rect x="1358" y="1607" width="311" height="311"/></clipPath><clipPath id="clip55"><rect x="2731" y="475" width="311" height="312"/></clipPath><clipPath id="clip56"><rect x="2731" y="475" width="311" height="312"/></clipPath><clipPath id="clip57"><rect x="2731" y="475" width="311" height="312"/></clipPath><clipPath id="clip58"><rect x="2827" y="860" width="311" height="311"/></clipPath><clipPath id="clip59"><rect x="2827" y="860" width="311" height="311"/></clipPath><clipPath id="clip60"><rect x="2827" y="860" width="311" height="311"/></clipPath><clipPath id="clip61"><rect x="2827" y="1233" width="311" height="311"/></clipPath><clipPath id="clip62"><rect x="2827" y="1233" width="311" height="311"/></clipPath><clipPath id="clip63"><rect x="2827" y="1233" width="311" height="311"/></clipPath><clipPath id="clip64"><rect x="2731" y="1607" width="311" height="311"/></clipPath><clipPath id="clip65"><rect x="2731" y="1607" width="311" height="311"/></clipPath><clipPath id="clip66"><rect x="2731" y="1607" width="311" height="311"/></clipPath><clipPath id="clip67"><rect x="2013" y="1074" width="737" height="799"/></clipPath><clipPath id="clip68"><rect x="2013" y="1074" width="737" height="799"/></clipPath><clipPath id="clip69"><rect x="2013" y="1074" width="737" height="799"/></clipPath><clipPath id="clip70"><rect x="1834" y="806" width="738" height="797"/></clipPath><clipPath id="clip71"><rect x="1834" y="806" width="738" height="797"/></clipPath><clipPath id="clip72"><rect x="1834" y="806" width="738" height="797"/></clipPath><clipPath id="clip73"><rect x="1659" y="532" width="738" height="797"/></clipPath><clipPath id="clip74"><rect x="1659" y="532" width="738" height="797"/></clipPath><clipPath id="clip75"><rect x="1659" y="532" width="738" height="797"/></clipPath></defs><g clip-path="url(#clip0)" transform="translate(-854 -157)"><g clip-path="url(#clip1)"><g clip-path="url(#clip2)"><g clip-path="url(#clip3)"><path d="M212.09 202.377 212.09 202.581 251.246 212.535 251.246 249.919C251.246 257.758 258.053 264.121 265.885 264.118 273.723 264.118 280.612 257.758 280.612 249.919L280.612 190.701 226.309 176.528 212.09 202.377Z" fill="#FC9804" transform="matrix(1 0 0 1.00323 950 475)"/><path d="M302.459 79.9612 260.34 51.9552 249.156 41.0483 245.956 33.7656C244.509 30.4658 242.63 30.6254 241.769 34.1274L236.766 54.3871 174.583 119.172 52.7838 119.172 36.1075 119.172C36.1075 119.172 0 118.627 0 153.459L0 207.271 22.8403 207.271C22.8403 207.271 22.8403 160.985 22.8403 153.972 22.8403 147.596 27.2216 138.046 35.5161 136.359L36.7204 200.746 55.4696 223.759 55.4696 223.931 36.3155 255.789C32.2799 262.446 34.267 271.059 40.6925 274.949 47.1195 278.84 55.6976 276.66 59.7316 269.995L90.2131 219.687 72.0084 200.746 178.508 200.746 182.341 235.893 182.344 235.893 156.16 247.874 144.029 210.338 122.745 204.456 86.0853 204.433 120.729 229.074 120.729 229.074 131.489 264.96C133.257 271.027 138.88 274.946 144.88 275.108 143.363 273.805 142.218 272.193 141.333 270.262 142.217 272.187 143.503 273.805 145.017 275.108 149.098 278.623 154.986 279.72 160.183 277.343L214.034 252.714 208.828 201.298 258.336 101.115 292.523 107.622C298.508 108.734 304.887 105.997 308.057 100.339 312.139 93.1992 309.558 84.027 302.459 79.9612Z" fill="#FC9804" transform="matrix(1 0 0 1.00323 950 475)"/></g></g></g><g clip-path="url(#clip4)"><g clip-path="url(#clip5)"><g clip-path="url(#clip6)"><path d="M212.091 202.377 212.091 202.581 251.246 212.535 251.246 249.919C251.246 257.758 258.053 264.121 265.885 264.118 273.723 264.118 280.612 257.758 280.612 249.919L280.612 190.702 226.309 176.528 212.091 202.377Z" fill="#FC9804" transform="matrix(1.00323 0 0 1 1517 157)"/><path d="M302.459 79.9613 260.34 51.9553 249.156 41.0483 245.957 33.7657C244.51 30.4659 242.63 30.6254 241.77 34.1274L236.767 54.3871 174.583 119.172 52.7839 119.172 36.1075 119.172C36.1075 119.172 0 118.627 0 153.459L0 207.272 22.8404 207.272C22.8404 207.272 22.8404 160.986 22.8404 153.972 22.8404 147.596 27.2216 138.046 35.5161 136.359L36.7205 200.746 55.4696 223.759 55.4696 223.931 36.3156 255.79C32.2799 262.447 34.267 271.059 40.6925 274.95 47.1196 278.84 55.6977 276.661 59.7317 269.995L90.2132 219.687 72.0085 200.747 178.508 200.747 182.341 235.893 182.345 235.893 156.16 247.875 144.029 210.338 122.745 204.456 86.0854 204.433 120.729 229.074 120.729 229.074 131.489 264.96C133.257 271.027 138.88 274.947 144.88 275.109 143.364 273.806 142.218 272.193 141.333 270.262 142.218 272.187 143.503 273.806 145.017 275.109 149.099 278.624 154.986 279.72 160.183 277.343L214.035 252.715 208.828 201.298 258.336 101.115 292.524 107.622C298.508 108.734 304.887 105.997 308.057 100.34 312.14 93.1993 309.559 84.0271 302.459 79.9613Z" fill="#FC9804" transform="matrix(1.00323 0 0 1 1517 157)"/></g></g></g><g clip-path="url(#clip7)"><g clip-path="url(#clip8)"><g clip-path="url(#clip9)"><path d="M2207.09 359.377 2207.09 359.581 2246.25 369.536 2246.25 406.919C2246.25 414.758 2253.05 421.122 2260.88 421.118 2268.72 421.118 2275.61 414.758 2275.61 406.919L2275.61 347.702 2221.31 333.528 2207.09 359.377Z" fill="#FC9804"/><path d="M2297.46 236.961 2255.34 208.955 2244.16 198.048 2240.96 190.766C2239.51 187.466 2237.63 187.626 2236.77 191.128L2231.77 211.387 2169.58 276.172 2047.78 276.172 2031.11 276.172C2031.11 276.172 1995 275.627 1995 310.459L1995 364.272 2017.84 364.272C2017.84 364.272 2017.84 317.986 2017.84 310.972 2017.84 304.596 2022.22 295.046 2030.52 293.359L2031.72 357.746 2050.47 380.759 2050.47 380.931 2031.32 412.79C2027.28 419.447 2029.27 428.059 2035.69 431.95 2042.12 435.84 2050.7 433.661 2054.73 426.995L2085.21 376.687 2067.01 357.747 2173.51 357.747 2177.34 392.893 2177.34 392.893 2151.16 404.875 2139.03 367.338 2117.75 361.456 2081.09 361.434 2115.73 386.074 2115.73 386.074 2126.49 421.96C2128.26 428.027 2133.88 431.947 2139.88 432.109 2138.36 430.806 2137.22 429.193 2136.33 427.262 2137.22 429.187 2138.5 430.806 2140.02 432.109 2144.1 435.624 2149.99 436.72 2155.18 434.343L2209.03 409.715 2203.83 358.298 2253.34 258.115 2287.52 264.622C2293.51 265.734 2299.89 262.997 2303.06 257.34 2307.14 250.199 2304.56 241.027 2297.46 236.961Z" fill="#FC9804"/></g></g></g><g clip-path="url(#clip10)"><g clip-path="url(#clip11)"><g clip-path="url(#clip12)"><path d="M212.091 202.377 212.091 202.581 251.246 212.535 251.246 249.919C251.246 257.758 258.053 264.121 265.885 264.118 273.723 264.118 280.612 257.758 280.612 249.919L280.612 190.702 226.309 176.528 212.091 202.377Z" fill="#FC9804" transform="matrix(1.00322 0 0 1 2489 157)"/><path d="M302.459 79.9613 260.34 51.9553 249.156 41.0483 245.957 33.7657C244.51 30.4659 242.63 30.6254 241.77 34.1274L236.767 54.3871 174.583 119.172 52.7839 119.172 36.1075 119.172C36.1075 119.172 0 118.627 0 153.459L0 207.272 22.8404 207.272C22.8404 207.272 22.8404 160.986 22.8404 153.972 22.8404 147.596 27.2216 138.046 35.5161 136.359L36.7205 200.746 55.4696 223.759 55.4696 223.931 36.3156 255.79C32.2799 262.447 34.267 271.059 40.6925 274.95 47.1196 278.84 55.6977 276.661 59.7317 269.995L90.2132 219.687 72.0085 200.747 178.508 200.747 182.341 235.893 182.345 235.893 156.16 247.875 144.029 210.338 122.745 204.456 86.0854 204.433 120.729 229.074 120.729 229.074 131.489 264.96C133.257 271.027 138.88 274.947 144.88 275.109 143.364 273.806 142.218 272.193 141.333 270.262 142.218 272.187 143.503 273.806 145.017 275.109 149.099 278.624 154.986 279.72 160.183 277.343L214.035 252.715 208.828 201.298 258.336 101.115 292.524 107.622C298.508 108.734 304.887 105.997 308.057 100.34 312.14 93.1993 309.559 84.0271 302.459 79.9613Z" fill="#FC9804" transform="matrix(1.00322 0 0 1 2489 157)"/></g></g></g><g clip-path="url(#clip13)"><g clip-path="url(#clip14)"><g clip-path="url(#clip15)"><path d="M1066.09 1062.38 1066.09 1062.58 1105.25 1072.54 1105.25 1109.92C1105.25 1117.76 1112.05 1124.12 1119.88 1124.12 1127.72 1124.12 1134.61 1117.76 1134.61 1109.92L1134.61 1050.7 1080.31 1036.53 1066.09 1062.38Z" fill="#FC9804"/><path d="M1156.46 939.961 1114.34 911.955 1103.16 901.048 1099.96 893.766C1098.51 890.466 1096.63 890.625 1095.77 894.127L1090.77 914.387 1028.58 979.172 906.784 979.172 890.107 979.172C890.107 979.172 854 978.627 854 1013.46L854 1067.27 876.84 1067.27C876.84 1067.27 876.84 1020.99 876.84 1013.97 876.84 1007.6 881.221 998.046 889.516 996.359L890.72 1060.75 909.469 1083.76 909.469 1083.93 890.315 1115.79C886.28 1122.45 888.267 1131.06 894.692 1134.95 901.119 1138.84 909.698 1136.66 913.732 1129.99L944.213 1079.69 926.008 1060.75 1032.51 1060.75 1036.34 1095.89 1036.34 1095.89 1010.16 1107.87 998.029 1070.34 976.745 1064.46 940.085 1064.43 974.729 1089.07 974.729 1089.07 985.489 1124.96C987.257 1131.03 992.88 1134.95 998.88 1135.11 997.364 1133.81 996.218 1132.19 995.333 1130.26 996.217 1132.19 997.503 1133.81 999.017 1135.11 1003.1 1138.62 1008.99 1139.72 1014.18 1137.34L1068.03 1112.71 1062.83 1061.3 1112.34 961.115 1146.52 967.622C1152.51 968.734 1158.89 965.997 1162.06 960.34 1166.14 953.199 1163.56 944.027 1156.46 939.961Z" fill="#FC9804"/></g></g></g><g clip-path="url(#clip16)"><g clip-path="url(#clip17)"><g clip-path="url(#clip18)"><path d="M1066.09 1435.38 1066.09 1435.58 1105.25 1445.54 1105.25 1482.92C1105.25 1490.76 1112.05 1497.12 1119.88 1497.12 1127.72 1497.12 1134.61 1490.76 1134.61 1482.92L1134.61 1423.7 1080.31 1409.53 1066.09 1435.38Z" fill="#FC9804"/><path d="M1156.46 1312.96 1114.34 1284.96 1103.16 1274.05 1099.96 1266.77C1098.51 1263.47 1096.63 1263.63 1095.77 1267.13L1090.77 1287.39 1028.58 1352.17 906.784 1352.17 890.107 1352.17C890.107 1352.17 854 1351.63 854 1386.46L854 1440.27 876.84 1440.27C876.84 1440.27 876.84 1393.99 876.84 1386.97 876.84 1380.6 881.221 1371.05 889.516 1369.36L890.72 1433.75 909.469 1456.76 909.469 1456.93 890.315 1488.79C886.28 1495.45 888.267 1504.06 894.692 1507.95 901.119 1511.84 909.698 1509.66 913.732 1502.99L944.213 1452.69 926.008 1433.75 1032.51 1433.75 1036.34 1468.89 1036.34 1468.89 1010.16 1480.87 998.029 1443.34 976.745 1437.46 940.085 1437.43 974.729 1462.07 974.729 1462.07 985.489 1497.96C987.257 1504.03 992.88 1507.95 998.88 1508.11 997.364 1506.81 996.218 1505.19 995.333 1503.26 996.217 1505.19 997.503 1506.81 999.017 1508.11 1003.1 1511.62 1008.99 1512.72 1014.18 1510.34L1068.03 1485.71 1062.83 1434.3 1112.34 1334.12 1146.52 1340.62C1152.51 1341.73 1158.89 1339 1162.06 1333.34 1166.14 1326.2 1163.56 1317.03 1156.46 1312.96Z" fill="#FC9804"/></g></g></g><g clip-path="url(#clip19)"><g clip-path="url(#clip20)"><g clip-path="url(#clip21)"><path d="M1162.09 1809.38 1162.09 1809.58 1201.25 1819.54 1201.25 1856.92C1201.25 1864.76 1208.05 1871.12 1215.88 1871.12 1223.72 1871.12 1230.61 1864.76 1230.61 1856.92L1230.61 1797.7 1176.31 1783.53 1162.09 1809.38Z" fill="#FC9804"/><path d="M1252.46 1686.96 1210.34 1658.96 1199.16 1648.05 1195.96 1640.77C1194.51 1637.47 1192.63 1637.63 1191.77 1641.13L1186.77 1661.39 1124.58 1726.17 1002.78 1726.17 986.108 1726.17C986.108 1726.17 950 1725.63 950 1760.46L950 1814.27 972.84 1814.27C972.84 1814.27 972.84 1767.99 972.84 1760.97 972.84 1754.6 977.222 1745.05 985.516 1743.36L986.721 1807.75 1005.47 1830.76 1005.47 1830.93 986.316 1862.79C982.28 1869.45 984.267 1878.06 990.693 1881.95 997.12 1885.84 1005.7 1883.66 1009.73 1876.99L1040.21 1826.69 1022.01 1807.75 1128.51 1807.75 1132.34 1842.89 1132.34 1842.89 1106.16 1854.87 1094.03 1817.34 1072.75 1811.46 1036.09 1811.43 1070.73 1836.07 1070.73 1836.07 1081.49 1871.96C1083.26 1878.03 1088.88 1881.95 1094.88 1882.11 1093.36 1880.81 1092.22 1879.19 1091.33 1877.26 1092.22 1879.19 1093.5 1880.81 1095.02 1882.11 1099.1 1885.62 1104.99 1886.72 1110.18 1884.34L1164.03 1859.71 1158.83 1808.3 1208.34 1708.12 1242.52 1714.62C1248.51 1715.73 1254.89 1713 1258.06 1707.34 1262.14 1700.2 1259.56 1691.03 1252.46 1686.96Z" fill="#FC9804"/></g></g></g><g clip-path="url(#clip22)"><g clip-path="url(#clip23)"><g clip-path="url(#clip24)"><path d="M1729.77 2115.03 1729.77 2115.23 1769.06 2125.22 1769.06 2162.73C1769.06 2170.59 1775.89 2176.97 1783.74 2176.97 1791.61 2176.97 1798.52 2170.59 1798.52 2162.73L1798.52 2103.32 1744.04 2089.1 1729.77 2115.03Z" fill="#FC9804"/><path d="M1820.43 1992.22 1778.18 1964.12 1766.96 1953.18 1763.75 1945.87C1762.3 1942.56 1760.41 1942.72 1759.55 1946.24L1754.53 1966.56 1692.15 2031.56 1569.95 2031.56 1553.22 2031.56C1553.22 2031.56 1517 2031.01 1517 2065.95L1517 2119.94 1539.91 2119.94C1539.91 2119.94 1539.91 2073.5 1539.91 2066.47 1539.91 2060.07 1544.31 2050.49 1552.63 2048.8L1553.84 2113.39 1572.65 2136.48 1572.65 2136.65 1553.43 2168.61C1549.38 2175.29 1551.38 2183.93 1557.82 2187.84 1564.27 2191.74 1572.88 2189.55 1576.92 2182.87L1607.5 2132.4 1589.24 2113.39 1696.08 2113.39 1699.93 2148.65 1699.93 2148.65 1673.66 2160.67 1661.49 2123.02 1640.14 2117.12 1603.36 2117.09 1638.12 2141.81 1638.12 2141.81 1648.91 2177.81C1650.69 2183.9 1656.33 2187.83 1662.35 2188 1660.83 2186.69 1659.68 2185.07 1658.79 2183.13 1659.68 2185.06 1660.97 2186.69 1662.48 2188 1666.58 2191.52 1672.49 2192.62 1677.7 2190.24L1731.73 2165.53 1726.5 2113.95 1776.17 2013.44 1810.47 2019.97C1816.47 2021.08 1822.87 2018.34 1826.05 2012.66 1830.15 2005.5 1827.56 1996.3 1820.43 1992.22Z" fill="#FC9804"/></g></g></g><g clip-path="url(#clip25)"><g clip-path="url(#clip26)"><g clip-path="url(#clip27)"><path d="M212.09 202.377 212.09 202.581 251.246 212.535 251.246 249.919C251.246 257.758 258.053 264.121 265.885 264.118 273.723 264.118 280.612 257.758 280.612 249.919L280.612 190.701 226.309 176.528 212.09 202.377Z" fill="#FC9804" transform="matrix(1 0 0 1.00323 1995 1912)"/><path d="M302.459 79.9612 260.34 51.9552 249.156 41.0483 245.956 33.7656C244.509 30.4658 242.63 30.6254 241.769 34.1274L236.766 54.3871 174.583 119.172 52.7838 119.172 36.1075 119.172C36.1075 119.172 0 118.627 0 153.459L0 207.271 22.8403 207.271C22.8403 207.271 22.8403 160.985 22.8403 153.972 22.8403 147.596 27.2216 138.046 35.5161 136.359L36.7204 200.746 55.4696 223.759 55.4696 223.931 36.3155 255.789C32.2799 262.446 34.267 271.059 40.6925 274.949 47.1195 278.84 55.6976 276.66 59.7316 269.995L90.2131 219.687 72.0084 200.746 178.508 200.746 182.341 235.893 182.344 235.893 156.16 247.874 144.029 210.338 122.745 204.456 86.0853 204.433 120.729 229.074 120.729 229.074 131.489 264.96C133.257 271.027 138.88 274.946 144.88 275.108 143.363 273.805 142.218 272.193 141.333 270.262 142.217 272.187 143.503 273.805 145.017 275.108 149.098 278.623 154.986 279.72 160.183 277.343L214.034 252.714 208.828 201.298 258.336 101.115 292.523 107.622C298.508 108.734 304.887 105.997 308.057 100.339 312.139 93.1992 309.558 84.027 302.459 79.9612Z" fill="#FC9804" transform="matrix(1 0 0 1.00323 1995 1912)"/></g></g></g><g clip-path="url(#clip28)"><g clip-path="url(#clip29)"><g clip-path="url(#clip30)"><path d="M2701.77 2115.03 2701.77 2115.23 2741.06 2125.22 2741.06 2162.73C2741.06 2170.59 2747.89 2176.97 2755.74 2176.97 2763.61 2176.97 2770.52 2170.59 2770.52 2162.73L2770.52 2103.32 2716.04 2089.1 2701.77 2115.03Z" fill="#FC9804"/><path d="M2792.43 1992.22 2750.18 1964.12 2738.96 1953.18 2735.75 1945.87C2734.3 1942.56 2732.41 1942.72 2731.55 1946.24L2726.53 1966.56 2664.15 2031.56 2541.95 2031.56 2525.22 2031.56C2525.22 2031.56 2489 2031.01 2489 2065.95L2489 2119.94 2511.91 2119.94C2511.91 2119.94 2511.91 2073.5 2511.91 2066.47 2511.91 2060.07 2516.31 2050.49 2524.63 2048.8L2525.84 2113.39 2544.65 2136.48 2544.65 2136.65 2525.43 2168.61C2521.38 2175.29 2523.38 2183.93 2529.82 2187.84 2536.27 2191.74 2544.88 2189.55 2548.92 2182.87L2579.5 2132.4 2561.24 2113.39 2668.08 2113.39 2671.93 2148.65 2671.93 2148.65 2645.66 2160.67 2633.49 2123.02 2612.14 2117.12 2575.36 2117.09 2610.12 2141.81 2610.12 2141.81 2620.91 2177.81C2622.69 2183.9 2628.33 2187.83 2634.35 2188 2632.83 2186.69 2631.68 2185.07 2630.79 2183.13 2631.68 2185.06 2632.97 2186.69 2634.48 2188 2638.58 2191.52 2644.49 2192.62 2649.7 2190.24L2703.72 2165.53 2698.5 2113.95 2748.17 2013.44 2782.47 2019.97C2788.47 2021.08 2794.87 2018.34 2798.05 2012.66 2802.15 2005.5 2799.56 1996.3 2792.43 1992.22Z" fill="#FC9804"/></g></g></g><g clip-path="url(#clip31)"><g clip-path="url(#clip32)"><g clip-path="url(#clip33)"><path d="M3354.09 680.377 3354.09 680.581 3393.25 690.535 3393.25 727.919C3393.25 735.758 3400.05 742.121 3407.88 742.118 3415.72 742.118 3422.61 735.758 3422.61 727.919L3422.61 668.702 3368.31 654.528 3354.09 680.377Z" fill="#FC9804"/><path d="M3444.46 557.961 3402.34 529.955 3391.16 519.048 3387.96 511.766C3386.51 508.466 3384.63 508.626 3383.77 512.128L3378.77 532.387 3316.58 597.172 3194.78 597.172 3178.11 597.172C3178.11 597.172 3142 596.627 3142 631.459L3142 685.272 3164.84 685.272C3164.84 685.272 3164.84 638.986 3164.84 631.972 3164.84 625.596 3169.22 616.046 3177.52 614.359L3178.72 678.746 3197.47 701.759 3197.47 701.931 3178.32 733.79C3174.28 740.446 3176.27 749.059 3182.69 752.95 3189.12 756.84 3197.7 754.661 3201.73 747.995L3232.21 697.687 3214.01 678.746 3320.51 678.746 3324.34 713.893 3324.34 713.893 3298.16 725.875 3286.03 688.338 3264.75 682.456 3228.09 682.433 3262.73 707.074 3262.73 707.074 3273.49 742.96C3275.26 749.027 3280.88 752.946 3286.88 753.109 3285.36 751.806 3284.22 750.193 3283.33 748.262 3284.22 750.187 3285.5 751.806 3287.02 753.109 3291.1 756.623 3296.99 757.72 3302.18 755.343L3356.03 730.715 3350.83 679.298 3400.34 579.115 3434.52 585.622C3440.51 586.734 3446.89 583.997 3450.06 578.34 3454.14 571.199 3451.56 562.027 3444.46 557.961Z" fill="#FC9804"/></g></g></g><g clip-path="url(#clip34)"><g clip-path="url(#clip35)"><g clip-path="url(#clip36)"><path d="M3450.09 1070.38 3450.09 1070.58 3489.25 1080.54 3489.25 1117.92C3489.25 1125.76 3496.05 1132.12 3503.88 1132.12 3511.72 1132.12 3518.61 1125.76 3518.61 1117.92L3518.61 1058.7 3464.31 1044.53 3450.09 1070.38Z" fill="#FC9804"/><path d="M3540.46 947.961 3498.34 919.955 3487.16 909.048 3483.96 901.766C3482.51 898.466 3480.63 898.625 3479.77 902.127L3474.77 922.387 3412.58 987.172 3290.78 987.172 3274.11 987.172C3274.11 987.172 3238 986.627 3238 1021.46L3238 1075.27 3260.84 1075.27C3260.84 1075.27 3260.84 1028.99 3260.84 1021.97 3260.84 1015.6 3265.22 1006.05 3273.52 1004.36L3274.72 1068.75 3293.47 1091.76 3293.47 1091.93 3274.32 1123.79C3270.28 1130.45 3272.27 1139.06 3278.69 1142.95 3285.12 1146.84 3293.7 1144.66 3297.73 1137.99L3328.21 1087.69 3310.01 1068.75 3416.51 1068.75 3420.34 1103.89 3420.34 1103.89 3394.16 1115.87 3382.03 1078.34 3360.75 1072.46 3324.09 1072.43 3358.73 1097.07 3358.73 1097.07 3369.49 1132.96C3371.26 1139.03 3376.88 1142.95 3382.88 1143.11 3381.36 1141.81 3380.22 1140.19 3379.33 1138.26 3380.22 1140.19 3381.5 1141.81 3383.02 1143.11 3387.1 1146.62 3392.99 1147.72 3398.18 1145.34L3452.03 1120.71 3446.83 1069.3 3496.34 969.115 3530.52 975.622C3536.51 976.734 3542.89 973.997 3546.06 968.34 3550.14 961.199 3547.56 952.027 3540.46 947.961Z" fill="#FC9804"/></g></g></g><g clip-path="url(#clip37)"><g clip-path="url(#clip38)"><g clip-path="url(#clip39)"><path d="M212.09 202.377 212.09 202.581 251.246 212.535 251.246 249.919C251.246 257.758 258.053 264.121 265.885 264.118 273.723 264.118 280.612 257.758 280.612 249.919L280.612 190.701 226.309 176.528 212.09 202.377Z" fill="#FC9804" transform="matrix(1 0 0 1.00323 3238 1238)"/><path d="M302.459 79.9612 260.34 51.9552 249.156 41.0483 245.956 33.7656C244.509 30.4658 242.63 30.6254 241.769 34.1274L236.766 54.3871 174.583 119.172 52.7838 119.172 36.1075 119.172C36.1075 119.172 0 118.627 0 153.459L0 207.271 22.8403 207.271C22.8403 207.271 22.8403 160.985 22.8403 153.972 22.8403 147.596 27.2216 138.046 35.5161 136.359L36.7204 200.746 55.4696 223.759 55.4696 223.931 36.3155 255.789C32.2799 262.446 34.267 271.059 40.6925 274.949 47.1195 278.84 55.6976 276.66 59.7316 269.995L90.2131 219.687 72.0084 200.746 178.508 200.746 182.341 235.893 182.344 235.893 156.16 247.874 144.029 210.338 122.745 204.456 86.0853 204.433 120.729 229.074 120.729 229.074 131.489 264.96C133.257 271.027 138.88 274.946 144.88 275.108 143.363 273.805 142.218 272.193 141.333 270.262 142.217 272.187 143.503 273.805 145.017 275.108 149.098 278.623 154.986 279.72 160.183 277.343L214.034 252.714 208.828 201.298 258.336 101.115 292.523 107.622C298.508 108.734 304.887 105.997 308.057 100.339 312.139 93.1992 309.558 84.027 302.459 79.9612Z" fill="#FC9804" transform="matrix(1 0 0 1.00323 3238 1238)"/></g></g></g><g clip-path="url(#clip40)"><g clip-path="url(#clip41)"><g clip-path="url(#clip42)"><path d="M3354.09 1812.38 3354.09 1812.58 3393.25 1822.54 3393.25 1859.92C3393.25 1867.76 3400.05 1874.12 3407.88 1874.12 3415.72 1874.12 3422.61 1867.76 3422.61 1859.92L3422.61 1800.7 3368.31 1786.53 3354.09 1812.38Z" fill="#FC9804"/><path d="M3444.46 1689.96 3402.34 1661.96 3391.16 1651.05 3387.96 1643.77C3386.51 1640.47 3384.63 1640.63 3383.77 1644.13L3378.77 1664.39 3316.58 1729.17 3194.78 1729.17 3178.11 1729.17C3178.11 1729.17 3142 1728.63 3142 1763.46L3142 1817.27 3164.84 1817.27C3164.84 1817.27 3164.84 1770.99 3164.84 1763.97 3164.84 1757.6 3169.22 1748.05 3177.52 1746.36L3178.72 1810.75 3197.47 1833.76 3197.47 1833.93 3178.32 1865.79C3174.28 1872.45 3176.27 1881.06 3182.69 1884.95 3189.12 1888.84 3197.7 1886.66 3201.73 1879.99L3232.21 1829.69 3214.01 1810.75 3320.51 1810.75 3324.34 1845.89 3324.34 1845.89 3298.16 1857.87 3286.03 1820.34 3264.75 1814.46 3228.09 1814.43 3262.73 1839.07 3262.73 1839.07 3273.49 1874.96C3275.26 1881.03 3280.88 1884.95 3286.88 1885.11 3285.36 1883.81 3284.22 1882.19 3283.33 1880.26 3284.22 1882.19 3285.5 1883.81 3287.02 1885.11 3291.1 1888.62 3296.99 1889.72 3302.18 1887.34L3356.03 1862.71 3350.83 1811.3 3400.34 1711.12 3434.52 1717.62C3440.51 1718.73 3446.89 1716 3450.06 1710.34 3454.14 1703.2 3451.56 1694.03 3444.46 1689.96Z" fill="#FC9804"/></g></g></g><g clip-path="url(#clip43)"><g clip-path="url(#clip44)"><g clip-path="url(#clip45)"><path d="M212.091 202.377 212.091 202.581 251.246 212.535 251.246 249.919C251.246 257.758 258.053 264.121 265.885 264.118 273.723 264.118 280.612 257.758 280.612 249.919L280.612 190.702 226.309 176.528 212.091 202.377Z" fill="#FC9804" transform="matrix(1 0 0 1.00323 1359 475)"/><path d="M302.459 79.9613 260.34 51.9553 249.156 41.0483 245.957 33.7657C244.51 30.4659 242.63 30.6254 241.77 34.1274L236.767 54.3871 174.583 119.172 52.7839 119.172 36.1075 119.172C36.1075 119.172 0 118.627 0 153.459L0 207.272 22.8404 207.272C22.8404 207.272 22.8404 160.986 22.8404 153.972 22.8404 147.596 27.2216 138.046 35.5161 136.359L36.7205 200.746 55.4696 223.759 55.4696 223.931 36.3156 255.79C32.2799 262.447 34.267 271.059 40.6925 274.95 47.1196 278.84 55.6977 276.661 59.7317 269.995L90.2132 219.687 72.0085 200.747 178.508 200.747 182.341 235.893 182.345 235.893 156.16 247.875 144.029 210.338 122.745 204.456 86.0854 204.433 120.729 229.074 120.729 229.074 131.489 264.96C133.257 271.027 138.88 274.947 144.88 275.109 143.364 273.806 142.218 272.193 141.333 270.262 142.218 272.187 143.503 273.806 145.017 275.109 149.099 278.624 154.986 279.72 160.183 277.343L214.035 252.715 208.828 201.298 258.336 101.115 292.524 107.622C298.508 108.734 304.887 105.997 308.057 100.34 312.14 93.1993 309.559 84.0271 302.459 79.9613Z" fill="#FC9804" transform="matrix(1 0 0 1.00323 1359 475)"/></g></g></g><g clip-path="url(#clip46)"><g clip-path="url(#clip47)"><g clip-path="url(#clip48)"><path d="M1475.09 1062.38 1475.09 1062.58 1514.25 1072.54 1514.25 1109.92C1514.25 1117.76 1521.05 1124.12 1528.88 1124.12 1536.72 1124.12 1543.61 1117.76 1543.61 1109.92L1543.61 1050.7 1489.31 1036.53 1475.09 1062.38Z" fill="#FC9804"/><path d="M1565.46 939.961 1523.34 911.955 1512.16 901.048 1508.96 893.766C1507.51 890.466 1505.63 890.625 1504.77 894.127L1499.77 914.387 1437.58 979.172 1315.78 979.172 1299.11 979.172C1299.11 979.172 1263 978.627 1263 1013.46L1263 1067.27 1285.84 1067.27C1285.84 1067.27 1285.84 1020.99 1285.84 1013.97 1285.84 1007.6 1290.22 998.046 1298.52 996.359L1299.72 1060.75 1318.47 1083.76 1318.47 1083.93 1299.32 1115.79C1295.28 1122.45 1297.27 1131.06 1303.69 1134.95 1310.12 1138.84 1318.7 1136.66 1322.73 1129.99L1353.21 1079.69 1335.01 1060.75 1441.51 1060.75 1445.34 1095.89 1445.34 1095.89 1419.16 1107.87 1407.03 1070.34 1385.75 1064.46 1349.09 1064.43 1383.73 1089.07 1383.73 1089.07 1394.49 1124.96C1396.26 1131.03 1401.88 1134.95 1407.88 1135.11 1406.36 1133.81 1405.22 1132.19 1404.33 1130.26 1405.22 1132.19 1406.5 1133.81 1408.02 1135.11 1412.1 1138.62 1417.99 1139.72 1423.18 1137.34L1477.03 1112.71 1471.83 1061.3 1521.34 961.115 1555.52 967.622C1561.51 968.734 1567.89 965.997 1571.06 960.34 1575.14 953.199 1572.56 944.027 1565.46 939.961Z" fill="#FC9804"/></g></g></g><g clip-path="url(#clip49)"><g clip-path="url(#clip50)"><g clip-path="url(#clip51)"><path d="M1475.09 1435.38 1475.09 1435.58 1514.25 1445.54 1514.25 1482.92C1514.25 1490.76 1521.05 1497.12 1528.88 1497.12 1536.72 1497.12 1543.61 1490.76 1543.61 1482.92L1543.61 1423.7 1489.31 1409.53 1475.09 1435.38Z" fill="#FC9804"/><path d="M1565.46 1312.96 1523.34 1284.96 1512.16 1274.05 1508.96 1266.77C1507.51 1263.47 1505.63 1263.63 1504.77 1267.13L1499.77 1287.39 1437.58 1352.17 1315.78 1352.17 1299.11 1352.17C1299.11 1352.17 1263 1351.63 1263 1386.46L1263 1440.27 1285.84 1440.27C1285.84 1440.27 1285.84 1393.99 1285.84 1386.97 1285.84 1380.6 1290.22 1371.05 1298.52 1369.36L1299.72 1433.75 1318.47 1456.76 1318.47 1456.93 1299.32 1488.79C1295.28 1495.45 1297.27 1504.06 1303.69 1507.95 1310.12 1511.84 1318.7 1509.66 1322.73 1502.99L1353.21 1452.69 1335.01 1433.75 1441.51 1433.75 1445.34 1468.89 1445.34 1468.89 1419.16 1480.87 1407.03 1443.34 1385.75 1437.46 1349.09 1437.43 1383.73 1462.07 1383.73 1462.07 1394.49 1497.96C1396.26 1504.03 1401.88 1507.95 1407.88 1508.11 1406.36 1506.81 1405.22 1505.19 1404.33 1503.26 1405.22 1505.19 1406.5 1506.81 1408.02 1508.11 1412.1 1511.62 1417.99 1512.72 1423.18 1510.34L1477.03 1485.71 1471.83 1434.3 1521.34 1334.12 1555.52 1340.62C1561.51 1341.73 1567.89 1339 1571.06 1333.34 1575.14 1326.2 1572.56 1317.03 1565.46 1312.96Z" fill="#FC9804"/></g></g></g><g clip-path="url(#clip52)"><g clip-path="url(#clip53)"><g clip-path="url(#clip54)"><path d="M1571.09 1809.38 1571.09 1809.58 1610.25 1819.54 1610.25 1856.92C1610.25 1864.76 1617.05 1871.12 1624.88 1871.12 1632.72 1871.12 1639.61 1864.76 1639.61 1856.92L1639.61 1797.7 1585.31 1783.53 1571.09 1809.38Z" fill="#FC9804"/><path d="M1661.46 1686.96 1619.34 1658.96 1608.16 1648.05 1604.96 1640.77C1603.51 1637.47 1601.63 1637.63 1600.77 1641.13L1595.77 1661.39 1533.58 1726.17 1411.78 1726.17 1395.11 1726.17C1395.11 1726.17 1359 1725.63 1359 1760.46L1359 1814.27 1381.84 1814.27C1381.84 1814.27 1381.84 1767.99 1381.84 1760.97 1381.84 1754.6 1386.22 1745.05 1394.52 1743.36L1395.72 1807.75 1414.47 1830.76 1414.47 1830.93 1395.32 1862.79C1391.28 1869.45 1393.27 1878.06 1399.69 1881.95 1406.12 1885.84 1414.7 1883.66 1418.73 1876.99L1449.21 1826.69 1431.01 1807.75 1537.51 1807.75 1541.34 1842.89 1541.34 1842.89 1515.16 1854.87 1503.03 1817.34 1481.75 1811.46 1445.09 1811.43 1479.73 1836.07 1479.73 1836.07 1490.49 1871.96C1492.26 1878.03 1497.88 1881.95 1503.88 1882.11 1502.36 1880.81 1501.22 1879.19 1500.33 1877.26 1501.22 1879.19 1502.5 1880.81 1504.02 1882.11 1508.1 1885.62 1513.99 1886.72 1519.18 1884.34L1573.03 1859.71 1567.83 1808.3 1617.34 1708.12 1651.52 1714.62C1657.51 1715.73 1663.89 1713 1667.06 1707.34 1671.14 1700.2 1668.56 1691.03 1661.46 1686.96Z" fill="#FC9804"/></g></g></g><g clip-path="url(#clip55)"><g clip-path="url(#clip56)"><g clip-path="url(#clip57)"><path d="M212.091 202.377 212.091 202.581 251.246 212.535 251.246 249.919C251.246 257.758 258.053 264.121 265.885 264.118 273.723 264.118 280.612 257.758 280.612 249.919L280.612 190.702 226.309 176.528 212.091 202.377Z" fill="#FC9804" transform="matrix(1 0 0 1.00323 2731 475)"/><path d="M302.459 79.9613 260.34 51.9553 249.156 41.0483 245.957 33.7657C244.51 30.4659 242.63 30.6254 241.77 34.1274L236.767 54.3871 174.583 119.172 52.7839 119.172 36.1075 119.172C36.1075 119.172 0 118.627 0 153.459L0 207.272 22.8404 207.272C22.8404 207.272 22.8404 160.986 22.8404 153.972 22.8404 147.596 27.2216 138.046 35.5161 136.359L36.7205 200.746 55.4696 223.759 55.4696 223.931 36.3156 255.79C32.2799 262.447 34.267 271.059 40.6925 274.95 47.1196 278.84 55.6977 276.661 59.7317 269.995L90.2132 219.687 72.0085 200.747 178.508 200.747 182.341 235.893 182.345 235.893 156.16 247.875 144.029 210.338 122.745 204.456 86.0854 204.433 120.729 229.074 120.729 229.074 131.489 264.96C133.257 271.027 138.88 274.947 144.88 275.109 143.364 273.806 142.218 272.193 141.333 270.262 142.218 272.187 143.503 273.806 145.017 275.109 149.099 278.624 154.986 279.72 160.183 277.343L214.035 252.715 208.828 201.298 258.336 101.115 292.524 107.622C298.508 108.734 304.887 105.997 308.057 100.34 312.14 93.1993 309.559 84.0271 302.459 79.9613Z" fill="#FC9804" transform="matrix(1 0 0 1.00323 2731 475)"/></g></g></g><g clip-path="url(#clip58)"><g clip-path="url(#clip59)"><g clip-path="url(#clip60)"><path d="M3039.09 1062.38 3039.09 1062.58 3078.25 1072.54 3078.25 1109.92C3078.25 1117.76 3085.05 1124.12 3092.88 1124.12 3100.72 1124.12 3107.61 1117.76 3107.61 1109.92L3107.61 1050.7 3053.31 1036.53 3039.09 1062.38Z" fill="#FC9804"/><path d="M3129.46 939.961 3087.34 911.955 3076.16 901.048 3072.96 893.766C3071.51 890.466 3069.63 890.625 3068.77 894.127L3063.77 914.387 3001.58 979.172 2879.78 979.172 2863.11 979.172C2863.11 979.172 2827 978.627 2827 1013.46L2827 1067.27 2849.84 1067.27C2849.84 1067.27 2849.84 1020.99 2849.84 1013.97 2849.84 1007.6 2854.22 998.046 2862.52 996.359L2863.72 1060.75 2882.47 1083.76 2882.47 1083.93 2863.32 1115.79C2859.28 1122.45 2861.27 1131.06 2867.69 1134.95 2874.12 1138.84 2882.7 1136.66 2886.73 1129.99L2917.21 1079.69 2899.01 1060.75 3005.51 1060.75 3009.34 1095.89 3009.34 1095.89 2983.16 1107.87 2971.03 1070.34 2949.75 1064.46 2913.09 1064.43 2947.73 1089.07 2947.73 1089.07 2958.49 1124.96C2960.26 1131.03 2965.88 1134.95 2971.88 1135.11 2970.36 1133.81 2969.22 1132.19 2968.33 1130.26 2969.22 1132.19 2970.5 1133.81 2972.02 1135.11 2976.1 1138.62 2981.99 1139.72 2987.18 1137.34L3041.03 1112.71 3035.83 1061.3 3085.34 961.115 3119.52 967.622C3125.51 968.734 3131.89 965.997 3135.06 960.34 3139.14 953.199 3136.56 944.027 3129.46 939.961Z" fill="#FC9804"/></g></g></g><g clip-path="url(#clip61)"><g clip-path="url(#clip62)"><g clip-path="url(#clip63)"><path d="M3039.09 1435.38 3039.09 1435.58 3078.25 1445.54 3078.25 1482.92C3078.25 1490.76 3085.05 1497.12 3092.88 1497.12 3100.72 1497.12 3107.61 1490.76 3107.61 1482.92L3107.61 1423.7 3053.31 1409.53 3039.09 1435.38Z" fill="#FC9804"/><path d="M3129.46 1312.96 3087.34 1284.96 3076.16 1274.05 3072.96 1266.77C3071.51 1263.47 3069.63 1263.63 3068.77 1267.13L3063.77 1287.39 3001.58 1352.17 2879.78 1352.17 2863.11 1352.17C2863.11 1352.17 2827 1351.63 2827 1386.46L2827 1440.27 2849.84 1440.27C2849.84 1440.27 2849.84 1393.99 2849.84 1386.97 2849.84 1380.6 2854.22 1371.05 2862.52 1369.36L2863.72 1433.75 2882.47 1456.76 2882.47 1456.93 2863.32 1488.79C2859.28 1495.45 2861.27 1504.06 2867.69 1507.95 2874.12 1511.84 2882.7 1509.66 2886.73 1502.99L2917.21 1452.69 2899.01 1433.75 3005.51 1433.75 3009.34 1468.89 3009.34 1468.89 2983.16 1480.87 2971.03 1443.34 2949.75 1437.46 2913.09 1437.43 2947.73 1462.07 2947.73 1462.07 2958.49 1497.96C2960.26 1504.03 2965.88 1507.95 2971.88 1508.11 2970.36 1506.81 2969.22 1505.19 2968.33 1503.26 2969.22 1505.19 2970.5 1506.81 2972.02 1508.11 2976.1 1511.62 2981.99 1512.72 2987.18 1510.34L3041.03 1485.71 3035.83 1434.3 3085.34 1334.12 3119.52 1340.62C3125.51 1341.73 3131.89 1339 3135.06 1333.34 3139.14 1326.2 3136.56 1317.03 3129.46 1312.96Z" fill="#FC9804"/></g></g></g><g clip-path="url(#clip64)"><g clip-path="url(#clip65)"><g clip-path="url(#clip66)"><path d="M2943.09 1809.38 2943.09 1809.58 2982.25 1819.54 2982.25 1856.92C2982.25 1864.76 2989.05 1871.12 2996.88 1871.12 3004.72 1871.12 3011.61 1864.76 3011.61 1856.92L3011.61 1797.7 2957.31 1783.53 2943.09 1809.38Z" fill="#FC9804"/><path d="M3033.46 1686.96 2991.34 1658.96 2980.16 1648.05 2976.96 1640.77C2975.51 1637.47 2973.63 1637.63 2972.77 1641.13L2967.77 1661.39 2905.58 1726.17 2783.78 1726.17 2767.11 1726.17C2767.11 1726.17 2731 1725.63 2731 1760.46L2731 1814.27 2753.84 1814.27C2753.84 1814.27 2753.84 1767.99 2753.84 1760.97 2753.84 1754.6 2758.22 1745.05 2766.52 1743.36L2767.72 1807.75 2786.47 1830.76 2786.47 1830.93 2767.32 1862.79C2763.28 1869.45 2765.27 1878.06 2771.69 1881.95 2778.12 1885.84 2786.7 1883.66 2790.73 1876.99L2821.21 1826.69 2803.01 1807.75 2909.51 1807.75 2913.34 1842.89 2913.34 1842.89 2887.16 1854.87 2875.03 1817.34 2853.75 1811.46 2817.09 1811.43 2851.73 1836.07 2851.73 1836.07 2862.49 1871.96C2864.26 1878.03 2869.88 1881.95 2875.88 1882.11 2874.36 1880.81 2873.22 1879.19 2872.33 1877.26 2873.22 1879.19 2874.5 1880.81 2876.02 1882.11 2880.1 1885.62 2885.99 1886.72 2891.18 1884.34L2945.03 1859.71 2939.83 1808.3 2989.34 1708.12 3023.52 1714.62C3029.51 1715.73 3035.89 1713 3039.06 1707.34 3043.14 1700.2 3040.56 1691.03 3033.46 1686.96Z" fill="#FC9804"/></g></g></g><g clip-path="url(#clip67)"><g clip-path="url(#clip68)"><g clip-path="url(#clip69)"><path d="M504.229 481.136 504.229 481.62 597.318 505.286 597.318 594.162C597.318 612.799 613.5 627.927 632.12 627.92 650.755 627.92 667.133 612.799 667.133 594.162L667.133 453.378 538.031 419.682 504.229 481.136Z" fill="#FC9804" transform="matrix(1 0 0 1.08141 2013 1075)"/><path d="M719.072 190.101 618.938 123.519 592.349 97.589 584.742 80.2751C581.302 72.4301 576.833 72.8095 574.787 81.1351L562.894 129.301 415.057 283.323 125.489 283.323 85.8427 283.323C85.8427 283.323 0 282.027 0 364.836L0 492.772 54.3011 492.772C54.3011 492.772 54.3011 382.73 54.3011 366.056 54.3011 350.898 64.7171 328.193 84.4367 324.182L87.2999 477.257 131.875 531.969 131.875 532.378 86.3374 608.119C76.7429 623.945 81.4671 644.421 96.7431 653.671 112.023 662.92 132.417 657.739 142.007 641.891L214.475 522.288 171.194 477.259 424.389 477.259 433.502 560.817 433.509 560.817 371.258 589.302 342.418 500.062 291.817 486.078 204.661 486.024 287.023 544.606 287.023 544.606 312.604 629.922C316.808 644.345 330.176 653.663 344.441 654.049 340.835 650.951 338.112 647.118 336.009 642.527 338.111 647.102 341.167 650.951 344.766 654.049 354.47 662.405 368.467 665.012 380.822 659.361L508.85 600.809 496.472 478.57 614.173 240.394 695.451 255.863C709.679 258.507 724.845 252 732.381 238.549 742.087 221.574 735.95 199.768 719.072 190.101Z" fill="#FC9804" transform="matrix(1 0 0 1.08141 2013 1075)"/></g></g></g><g clip-path="url(#clip70)"><g clip-path="url(#clip71)"><g clip-path="url(#clip72)"><path d="M504.229 481.136 504.229 481.62 597.318 505.286 597.318 594.162C597.318 612.799 613.5 627.927 632.12 627.92 650.755 627.92 667.133 612.799 667.133 594.162L667.133 453.378 538.031 419.682 504.229 481.136Z" fill="#FC9804" transform="matrix(1 0 0 1.08141 1835 806)"/><path d="M719.072 190.101 618.938 123.519 592.349 97.589 584.742 80.2751C581.302 72.4301 576.833 72.8095 574.787 81.1351L562.894 129.301 415.057 283.323 125.489 283.323 85.8427 283.323C85.8427 283.323 0 282.027 0 364.836L0 492.772 54.3011 492.772C54.3011 492.772 54.3011 382.73 54.3011 366.056 54.3011 350.898 64.7171 328.193 84.4367 324.182L87.2999 477.257 131.875 531.969 131.875 532.378 86.3374 608.119C76.7429 623.945 81.4671 644.421 96.7431 653.671 112.023 662.92 132.417 657.739 142.007 641.891L214.475 522.288 171.194 477.259 424.389 477.259 433.502 560.817 433.509 560.817 371.258 589.302 342.418 500.062 291.817 486.078 204.661 486.024 287.023 544.606 287.023 544.606 312.604 629.922C316.808 644.345 330.176 653.663 344.441 654.049 340.835 650.951 338.112 647.118 336.009 642.527 338.111 647.102 341.167 650.951 344.766 654.049 354.47 662.405 368.467 665.012 380.822 659.361L508.85 600.809 496.472 478.57 614.173 240.394 695.451 255.863C709.679 258.507 724.845 252 732.381 238.549 742.087 221.574 735.95 199.768 719.072 190.101Z" fill="#FC9804" transform="matrix(1 0 0 1.08141 1835 806)"/></g></g></g><g clip-path="url(#clip73)"><g clip-path="url(#clip74)"><g clip-path="url(#clip75)"><path d="M504.229 481.136 504.229 481.62 597.318 505.286 597.318 594.162C597.318 612.799 613.5 627.927 632.12 627.92 650.755 627.92 667.133 612.799 667.133 594.162L667.133 453.378 538.031 419.682 504.229 481.136Z" fill="#FC9804" transform="matrix(1 0 0 1.08141 1660 532)"/><path d="M719.072 190.101 618.938 123.519 592.349 97.589 584.742 80.2751C581.302 72.4301 576.833 72.8095 574.787 81.1351L562.894 129.301 415.057 283.323 125.489 283.323 85.8427 283.323C85.8427 283.323 0 282.027 0 364.836L0 492.772 54.3011 492.772C54.3011 492.772 54.3011 382.73 54.3011 366.056 54.3011 350.898 64.7171 328.193 84.4367 324.182L87.2999 477.257 131.875 531.969 131.875 532.378 86.3374 608.119C76.7429 623.945 81.4671 644.421 96.7431 653.671 112.023 662.92 132.417 657.739 142.007 641.891L214.475 522.288 171.194 477.259 424.389 477.259 433.502 560.817 433.509 560.817 371.258 589.302 342.418 500.062 291.817 486.078 204.661 486.024 287.023 544.606 287.023 544.606 312.604 629.922C316.808 644.345 330.176 653.663 344.441 654.049 340.835 650.951 338.112 647.118 336.009 642.527 338.111 647.102 341.167 650.951 344.766 654.049 354.47 662.405 368.467 665.012 380.822 659.361L508.85 600.809 496.472 478.57 614.173 240.394 695.451 255.863C709.679 258.507 724.845 252 732.381 238.549 742.087 221.574 735.95 199.768 719.072 190.101Z" fill="#FC9804" transform="matrix(1 0 0 1.08141 1660 532)"/></g></g></g></g></svg>