<svg width="1392" height="1353" xmlns="http://www.w3.org/2000/svg" xmlns:xlink="http://www.w3.org/1999/xlink" overflow="hidden"><defs><clipPath id="clip0"><rect x="1504" y="561" width="1392" height="1353"/></clipPath><clipPath id="clip1"><rect x="1719" y="755" width="962" height="965"/></clipPath><clipPath id="clip2"><rect x="1719" y="755" width="962" height="965"/></clipPath><clipPath id="clip3"><rect x="1719" y="755" width="962" height="965"/></clipPath></defs><g clip-path="url(#clip0)" transform="translate(-1504 -561)"><g clip-path="url(#clip1)"><g clip-path="url(#clip2)"><g clip-path="url(#clip3)"><path d="M481.002 240.078C679.684 240.078 841.751 406.052 841.751 603.473 841.751 800.925 679.684 962 481.002 962 282.289 962 120.252 799.001 120.252 601.549 120.245 404.07 282.285 240.078 481.002 240.078Z" fill="#3E4E5C" transform="matrix(1 0 0 1.00104 1719 756)"/><path d="M481.002 325.307C632.818 325.307 756.554 452.079 756.554 602.903 756.554 753.757 632.815 876.713 481.002 876.713 329.216 876.713 205.45 752.194 205.45 601.401 205.443 450.578 329.213 325.307 481.002 325.307Z" fill="#EBEBEB" transform="matrix(1 0 0 1.00104 1719 756)"/><path d="M360.897 120.101C360.897 53.8118 414.74 0 481.088 0 547.466 0 601.278 53.8118 601.278 120.128 601.278 176.166 562.709 222.822 510.759 236.079L510.759 270.56 451.385 270.56 451.385 236.052C399.497 222.795 360.897 176.135 360.897 120.101ZM451.447 205.419 451.447 149.951 510.79 149.951 510.79 205.415C546.233 193.151 571.816 159.962 571.816 120.52 571.816 70.707 531.172 30.331 481.057 30.331 430.972 30.331 390.359 70.7345 390.359 120.52 390.39 159.934 416.001 193.12 451.447 205.419Z" fill="#324D5B" transform="matrix(1 0 0 1.00104 1719 756)"/><path d="M800.564 251.834 829.483 280.605C845.417 296.477 845.417 322.273 829.483 338.145L819.864 347.764C803.931 363.635 778.018 363.635 762.085 347.764L733.193 318.965C717.229 303.063 717.229 277.328 733.193 261.426L742.785 251.834C758.718 235.959 784.604 235.959 800.564 251.834Z" fill="#E2574C" transform="matrix(1 0 0 1.00104 1719 756)"/><path d="M161.071 251.834 132.42 280.605C116.607 296.477 116.607 322.273 132.42 338.145L141.95 347.764C157.763 363.635 183.436 363.635 199.249 347.764L227.869 318.965C243.682 303.063 243.682 277.328 227.869 261.426L218.37 251.834C202.526 235.959 176.915 235.959 161.071 251.834Z" fill="#51BBA8" transform="matrix(1 0 0 1.00104 1719 756)"/><path d="M631.313 571.187 511.065 571.187 511.065 420.876C511.065 404.283 497.625 390.813 481.002 390.813 464.378 390.813 450.939 404.279 450.939 420.876L450.939 601.25C450.939 617.874 464.378 631.313 481.002 631.313L631.313 631.313C647.937 631.313 661.376 617.874 661.376 601.25 661.376 584.626 647.934 571.187 631.313 571.187Z" fill="#E2574C" transform="matrix(1 0 0 1.00104 1719 756)"/></g></g></g><path d="M1504 1237.5C1504 863.879 1815.61 561 2200 561 2584.39 561 2896 863.879 2896 1237.5 2896 1611.12 2584.39 1914 2200 1914 1815.61 1914 1504 1611.12 1504 1237.5ZM2652.78 1604.19C2862.21 1362.38 2829.27 1002.18 2579.21 799.666 2360.58 622.614 2042.35 621.905 1822.89 797.981ZM1747.22 870.815C1537.79 1112.62 1570.73 1472.82 1820.79 1675.33 2039.42 1852.39 2357.65 1853.1 2577.11 1677.02Z" fill="#C00000" fill-rule="evenodd"/></g></svg>