<svg width="1533" height="1261" xmlns="http://www.w3.org/2000/svg" xmlns:xlink="http://www.w3.org/1999/xlink" overflow="hidden"><defs><clipPath id="clip0"><rect x="269" y="537" width="1533" height="1261"/></clipPath><clipPath id="clip1"><rect x="1321" y="536" width="481" height="482"/></clipPath><clipPath id="clip2"><rect x="1321" y="536" width="481" height="482"/></clipPath><clipPath id="clip3"><rect x="1321" y="536" width="481" height="482"/></clipPath><clipPath id="clip4"><rect x="810" y="759" width="483" height="481"/></clipPath><clipPath id="clip5"><rect x="810" y="759" width="483" height="481"/></clipPath><clipPath id="clip6"><rect x="810" y="759" width="483" height="481"/></clipPath><clipPath id="clip7"><rect x="301" y="979" width="482" height="480"/></clipPath><clipPath id="clip8"><rect x="301" y="979" width="482" height="480"/></clipPath><clipPath id="clip9"><rect x="301" y="979" width="482" height="480"/></clipPath><clipPath id="clip10"><rect x="370" y="1468" width="298" height="298"/></clipPath><clipPath id="clip11"><rect x="370" y="1468" width="298" height="298"/></clipPath><clipPath id="clip12"><rect x="370" y="1468" width="298" height="298"/></clipPath><clipPath id="clip13"><rect x="884" y="1248" width="298" height="298"/></clipPath><clipPath id="clip14"><rect x="884" y="1248" width="298" height="298"/></clipPath><clipPath id="clip15"><rect x="884" y="1248" width="298" height="298"/></clipPath><clipPath id="clip16"><rect x="1408" y="1034" width="297" height="297"/></clipPath><clipPath id="clip17"><rect x="1408" y="1034" width="297" height="297"/></clipPath><clipPath id="clip18"><rect x="1408" y="1034" width="297" height="297"/></clipPath></defs><g clip-path="url(#clip0)" transform="translate(-269 -537)"><rect x="1298" y="979" width="504" height="819" fill="#7030A0"/><g clip-path="url(#clip1)"><g clip-path="url(#clip2)"><g clip-path="url(#clip3)"><path d="M328.399 313.358 328.399 313.674 389.027 329.087 389.027 386.971C389.027 399.109 399.566 408.962 411.693 408.957 423.83 408.957 434.497 399.109 434.497 386.971L434.497 295.28 350.414 273.334 328.399 313.358Z" fill="#FC9804" transform="matrix(1.00208 0 0 1 1321 537)"/><path d="M468.324 123.811 403.108 80.4469 385.79 63.5587 380.836 52.2823C378.596 47.173 375.685 47.4201 374.353 52.8424L366.607 84.2123 270.322 184.525 81.7299 184.525 55.9084 184.525C55.9084 184.525 0 183.681 0 237.614L0 320.937 35.3657 320.937C35.3657 320.937 35.3657 249.268 35.3657 238.408 35.3657 228.536 42.1496 213.749 54.9927 211.136L56.8575 310.833 85.8885 346.465 85.8885 346.732 56.2306 396.062C49.9818 406.369 53.0586 419.704 63.0078 425.729 72.9594 431.753 86.2416 428.378 92.4878 418.057L139.685 340.161 111.497 310.833 276.4 310.833 282.335 365.254 282.34 365.254 241.796 383.806 223.013 325.685 190.058 316.577 133.294 316.542 186.935 354.696 186.935 354.696 203.596 410.261C206.334 419.655 215.04 425.724 224.331 425.975 221.982 423.957 220.209 421.461 218.839 418.471 220.208 421.451 222.199 423.957 224.543 425.975 230.862 431.417 239.978 433.115 248.025 429.435L331.409 391.3 323.347 311.687 400.004 156.566 452.94 166.641C462.206 168.363 472.084 164.125 476.992 155.365 483.313 144.309 479.317 130.107 468.324 123.811Z" fill="#FC9804" transform="matrix(1.00208 0 0 1 1321 537)"/></g></g></g><rect x="782" y="1198" width="504" height="600" fill="#7030A0"/><g clip-path="url(#clip4)"><g clip-path="url(#clip5)"><g clip-path="url(#clip6)"><path d="M1140.08 1073.01 1140.08 1073.33 1200.84 1088.77 1200.84 1146.78C1200.84 1158.94 1211.4 1168.81 1223.55 1168.81 1235.71 1168.81 1246.4 1158.94 1246.4 1146.78L1246.4 1054.89 1162.14 1032.9 1140.08 1073.01Z" fill="#FC9804"/><path d="M1280.3 883.069 1214.95 839.614 1197.59 822.691 1192.63 811.391C1190.38 806.271 1187.47 806.519 1186.13 811.953L1178.37 843.388 1081.89 943.909 892.9 943.909 867.025 943.909C867.025 943.909 811 943.064 811 997.109L811 1080.61 846.439 1080.61C846.439 1080.61 846.439 1008.79 846.439 997.905 846.439 988.012 853.237 973.194 866.107 970.576L867.976 1070.48 897.067 1106.19 897.067 1106.45 867.348 1155.89C861.086 1166.22 864.169 1179.58 874.139 1185.62 884.111 1191.65 897.421 1188.27 903.68 1177.93L950.976 1099.87 922.729 1070.48 1087.98 1070.48 1093.92 1125.02 1093.93 1125.02 1053.3 1143.61 1034.48 1085.36 1001.45 1076.24 944.571 1076.2 998.324 1114.43 998.324 1114.43 1015.02 1170.12C1017.76 1179.53 1026.49 1185.61 1035.8 1185.86 1033.44 1183.84 1031.67 1181.34 1030.29 1178.34 1031.67 1181.33 1033.66 1183.84 1036.01 1185.86 1042.34 1191.32 1051.48 1193.02 1059.54 1189.33L1143.1 1151.12 1135.02 1071.34 1211.84 915.892 1264.88 925.988C1274.17 927.714 1284.07 923.467 1288.99 914.688 1295.32 903.609 1291.32 889.378 1280.3 883.069Z" fill="#FC9804"/></g></g></g><rect x="269" y="1417" width="504" height="381" fill="#7030A0"/><g clip-path="url(#clip7)"><g clip-path="url(#clip8)"><g clip-path="url(#clip9)"><path d="M328.398 313.358 328.398 313.674 389.026 329.087 389.026 386.971C389.026 399.109 399.566 408.962 411.692 408.957 423.829 408.957 434.496 399.109 434.496 386.971L434.496 295.28 350.413 273.334 328.398 313.358Z" fill="#FC9804" transform="matrix(1.00208 0 0 1 301 979)"/><path d="M468.324 123.811 403.107 80.4468 385.79 63.5586 380.836 52.2823C378.596 47.1729 375.685 47.42 374.353 52.8424L366.606 84.2123 270.322 184.525 81.7298 184.525 55.9084 184.525C55.9084 184.525 0 183.681 0 237.613L0 320.937 35.3657 320.937C35.3657 320.937 35.3657 249.268 35.3657 238.408 35.3657 228.536 42.1496 213.749 54.9927 211.136L56.8574 310.832 85.8884 346.465 85.8884 346.732 56.2306 396.061C49.9818 406.369 53.0586 419.704 63.0077 425.728 72.9593 431.753 86.2415 428.378 92.4878 418.056L139.685 340.161 111.497 310.833 276.4 310.833 282.335 365.254 282.34 365.254 241.796 383.806 223.013 325.685 190.057 316.577 133.293 316.542 186.935 354.696 186.935 354.696 203.596 410.261C206.334 419.655 215.04 425.723 224.33 425.975 221.982 423.957 220.209 421.46 218.839 418.47 220.208 421.45 222.199 423.957 224.542 425.975 230.862 431.417 239.978 433.115 248.025 429.435L331.408 391.3 323.347 311.687 400.004 156.566 452.94 166.641C462.206 168.363 472.083 164.125 476.992 155.364 483.313 144.308 479.316 130.106 468.324 123.811Z" fill="#FC9804" transform="matrix(1.00208 0 0 1 301 979)"/></g></g></g><g clip-path="url(#clip10)"><g clip-path="url(#clip11)"><g clip-path="url(#clip12)"><path d="M463.339 1676.55C459.158 1674.13 453.97 1672.02 448.478 1669.78 445.12 1668.41 441.655 1667 438.205 1665.43L400.72 1733.63C398.057 1738.48 400.332 1741.65 405.776 1740.68L422.956 1737.62C428.401 1736.65 434.534 1740.06 436.583 1745.2L442.885 1760.99C444.934 1766.12 448.792 1766.36 451.455 1761.51L488.139 1694.77C483.756 1691.83 479.723 1688.65 475.994 1685.71 471.502 1682.17 467.26 1678.82 463.339 1676.55Z" fill="#996600"/><path d="M638.28 1733.63 600.794 1665.43C597.344 1667 593.879 1668.41 590.521 1669.78 585.029 1672.02 579.842 1674.13 575.66 1676.55 571.738 1678.82 567.495 1682.17 563.004 1685.71 559.275 1688.65 555.243 1691.83 550.86 1694.76L587.545 1761.51C590.208 1766.36 594.066 1766.12 596.115 1760.99L602.416 1745.2C604.466 1740.06 610.599 1736.65 616.044 1737.62L633.224 1740.68C638.668 1741.65 640.943 1738.48 638.28 1733.63Z" fill="#996600"/><path d="M470.893 1663.49C486.228 1672.37 500.508 1690.58 519.499 1690.58 538.49 1690.58 552.77 1672.37 568.106 1663.49 583.927 1654.34 606.737 1650.77 615.892 1634.95 624.764 1619.61 616.71 1598.28 616.71 1579.29 616.71 1560.3 624.764 1538.97 615.892 1523.63 606.737 1507.81 583.927 1504.24 568.105 1495.08 552.77 1486.21 538.49 1468 519.499 1468 500.508 1468 486.228 1486.21 470.893 1495.08 455.072 1504.24 432.261 1507.81 423.108 1523.63 414.235 1538.97 422.29 1560.3 422.29 1579.29 422.29 1598.28 414.235 1619.61 423.107 1634.95 432.261 1650.77 455.071 1654.34 470.893 1663.49ZM519.499 1499.22C563.652 1499.22 599.573 1535.14 599.573 1579.29 599.573 1623.44 563.652 1659.36 519.499 1659.36 475.347 1659.36 439.426 1623.44 439.426 1579.29 439.426 1535.14 475.347 1499.22 519.499 1499.22Z" fill="#996600"/><path d="M519.499 1644.28C555.336 1644.28 584.489 1615.13 584.489 1579.29 584.489 1543.45 555.336 1514.3 519.499 1514.3 483.664 1514.3 454.511 1543.45 454.511 1579.29 454.511 1615.13 483.664 1644.28 519.499 1644.28Z" fill="#996600"/></g></g></g><g clip-path="url(#clip13)"><g clip-path="url(#clip14)"><g clip-path="url(#clip15)"><path d="M976.339 1456.55C972.158 1454.13 966.97 1452.02 961.478 1449.78 958.12 1448.41 954.655 1447 951.205 1445.43L913.72 1513.63C911.057 1518.48 913.332 1521.65 918.776 1520.68L935.957 1517.62C941.401 1516.65 947.534 1520.06 949.584 1525.2L955.885 1540.99C957.934 1546.12 961.792 1546.36 964.455 1541.51L1001.14 1474.77C996.756 1471.83 992.723 1468.65 988.994 1465.71 984.502 1462.17 980.26 1458.82 976.339 1456.55Z" fill="#DBDBDB"/><path d="M1151.28 1513.63 1113.79 1445.43C1110.34 1447 1106.88 1448.41 1103.52 1449.78 1098.03 1452.02 1092.84 1454.13 1088.66 1456.55 1084.74 1458.82 1080.5 1462.17 1076 1465.71 1072.28 1468.65 1068.24 1471.83 1063.86 1474.76L1100.55 1541.51C1103.21 1546.36 1107.07 1546.12 1109.12 1540.99L1115.42 1525.2C1117.47 1520.06 1123.6 1516.65 1129.04 1517.62L1146.22 1520.68C1151.67 1521.65 1153.94 1518.48 1151.28 1513.63Z" fill="#DBDBDB"/><path d="M983.893 1443.49C999.228 1452.37 1013.51 1470.58 1032.5 1470.58 1051.49 1470.58 1065.77 1452.37 1081.11 1443.49 1096.93 1434.34 1119.74 1430.77 1128.89 1414.95 1137.76 1399.61 1129.71 1378.28 1129.71 1359.29 1129.71 1340.3 1137.76 1318.97 1128.89 1303.63 1119.74 1287.81 1096.93 1284.24 1081.1 1275.08 1065.77 1266.21 1051.49 1248 1032.5 1248 1013.51 1248 999.228 1266.21 983.893 1275.08 968.072 1284.24 945.262 1287.81 936.108 1303.63 927.235 1318.97 935.29 1340.3 935.29 1359.29 935.29 1378.28 927.235 1399.61 936.107 1414.95 945.262 1430.77 968.071 1434.34 983.893 1443.49ZM1032.5 1279.22C1076.65 1279.22 1112.57 1315.14 1112.57 1359.29 1112.57 1403.44 1076.65 1439.36 1032.5 1439.36 988.347 1439.36 952.427 1403.44 952.427 1359.29 952.427 1315.14 988.347 1279.22 1032.5 1279.22Z" fill="#DBDBDB"/><path d="M1032.5 1424.28C1068.34 1424.28 1097.49 1395.13 1097.49 1359.29 1097.49 1323.45 1068.34 1294.3 1032.5 1294.3 996.664 1294.3 967.511 1323.45 967.511 1359.29 967.511 1395.13 996.664 1424.28 1032.5 1424.28Z" fill="#DBDBDB"/></g></g></g><g clip-path="url(#clip16)"><g clip-path="url(#clip17)"><g clip-path="url(#clip18)"><path d="M1500.34 1242.55C1496.16 1240.13 1490.97 1238.02 1485.48 1235.78 1482.12 1234.41 1478.65 1233 1475.2 1231.43L1437.72 1299.63C1435.06 1304.48 1437.33 1307.65 1442.78 1306.68L1459.96 1303.62C1465.4 1302.65 1471.53 1306.06 1473.58 1311.2L1479.88 1326.99C1481.93 1332.12 1485.79 1332.36 1488.45 1327.51L1525.14 1260.77C1520.76 1257.83 1516.72 1254.65 1512.99 1251.71 1508.5 1248.17 1504.26 1244.82 1500.34 1242.55Z" fill="#FFD966"/><path d="M1675.28 1299.63 1637.79 1231.43C1634.34 1233 1630.88 1234.41 1627.52 1235.78 1622.03 1238.02 1616.84 1240.13 1612.66 1242.55 1608.74 1244.82 1604.5 1248.17 1600 1251.71 1596.28 1254.65 1592.24 1257.83 1587.86 1260.76L1624.55 1327.51C1627.21 1332.36 1631.07 1332.12 1633.12 1326.99L1639.42 1311.2C1641.47 1306.06 1647.6 1302.65 1653.04 1303.62L1670.22 1306.68C1675.67 1307.65 1677.94 1304.48 1675.28 1299.63Z" fill="#FFD966"/><path d="M1507.89 1229.49C1523.23 1238.37 1537.51 1256.58 1556.5 1256.58 1575.49 1256.58 1589.77 1238.37 1605.11 1229.49 1620.93 1220.34 1643.74 1216.77 1652.89 1200.95 1661.76 1185.61 1653.71 1164.28 1653.71 1145.29 1653.71 1126.3 1661.76 1104.97 1652.89 1089.63 1643.74 1073.81 1620.93 1070.24 1605.1 1061.08 1589.77 1052.21 1575.49 1034 1556.5 1034 1537.51 1034 1523.23 1052.21 1507.89 1061.08 1492.07 1070.24 1469.26 1073.81 1460.11 1089.63 1451.23 1104.97 1459.29 1126.3 1459.29 1145.29 1459.29 1164.28 1451.23 1185.61 1460.11 1200.95 1469.26 1216.77 1492.07 1220.34 1507.89 1229.49ZM1556.5 1065.22C1600.65 1065.22 1636.57 1101.14 1636.57 1145.29 1636.57 1189.44 1600.65 1225.36 1556.5 1225.36 1512.35 1225.36 1476.43 1189.44 1476.43 1145.29 1476.43 1101.14 1512.35 1065.22 1556.5 1065.22Z" fill="#FFD966"/><path d="M1556.5 1210.28C1592.34 1210.28 1621.49 1181.13 1621.49 1145.29 1621.49 1109.45 1592.34 1080.3 1556.5 1080.3 1520.66 1080.3 1491.51 1109.45 1491.51 1145.29 1491.51 1181.13 1520.66 1210.28 1556.5 1210.28Z" fill="#FFD966"/></g></g></g></g></svg>