<svg width="2689" height="1649" xmlns="http://www.w3.org/2000/svg" xmlns:xlink="http://www.w3.org/1999/xlink" overflow="hidden"><defs><clipPath id="clip0"><rect x="499" y="385" width="2689" height="1649"/></clipPath><clipPath id="clip1"><rect x="1212" y="652" width="311" height="311"/></clipPath><clipPath id="clip2"><rect x="1212" y="652" width="311" height="311"/></clipPath><clipPath id="clip3"><rect x="1212" y="652" width="311" height="311"/></clipPath><clipPath id="clip4"><rect x="1335" y="904" width="310" height="311"/></clipPath><clipPath id="clip5"><rect x="1335" y="904" width="310" height="311"/></clipPath><clipPath id="clip6"><rect x="1335" y="904" width="310" height="311"/></clipPath><clipPath id="clip7"><rect x="1427" y="1148" width="311" height="310"/></clipPath><clipPath id="clip8"><rect x="1427" y="1148" width="311" height="310"/></clipPath><clipPath id="clip9"><rect x="1427" y="1148" width="311" height="310"/></clipPath><clipPath id="clip10"><rect x="1551" y="1400" width="311" height="311"/></clipPath><clipPath id="clip11"><rect x="1551" y="1400" width="311" height="311"/></clipPath><clipPath id="clip12"><rect x="1551" y="1400" width="311" height="311"/></clipPath><clipPath id="clip13"><rect x="1644" y="1644" width="312" height="310"/></clipPath><clipPath id="clip14"><rect x="1644" y="1644" width="312" height="310"/></clipPath><clipPath id="clip15"><rect x="1644" y="1644" width="312" height="310"/></clipPath><clipPath id="clip16"><rect x="1522" y="652" width="311" height="311"/></clipPath><clipPath id="clip17"><rect x="1522" y="652" width="311" height="311"/></clipPath><clipPath id="clip18"><rect x="1522" y="652" width="311" height="311"/></clipPath><clipPath id="clip19"><rect x="1644" y="904" width="312" height="311"/></clipPath><clipPath id="clip20"><rect x="1644" y="904" width="312" height="311"/></clipPath><clipPath id="clip21"><rect x="1644" y="904" width="312" height="311"/></clipPath><clipPath id="clip22"><rect x="1738" y="1148" width="311" height="310"/></clipPath><clipPath id="clip23"><rect x="1738" y="1148" width="311" height="310"/></clipPath><clipPath id="clip24"><rect x="1738" y="1148" width="311" height="310"/></clipPath><clipPath id="clip25"><rect x="1861" y="1400" width="311" height="311"/></clipPath><clipPath id="clip26"><rect x="1861" y="1400" width="311" height="311"/></clipPath><clipPath id="clip27"><rect x="1861" y="1400" width="311" height="311"/></clipPath><clipPath id="clip28"><rect x="1955" y="1644" width="311" height="310"/></clipPath><clipPath id="clip29"><rect x="1955" y="1644" width="311" height="310"/></clipPath><clipPath id="clip30"><rect x="1955" y="1644" width="311" height="310"/></clipPath><clipPath id="clip31"><rect x="1830" y="649" width="311" height="311"/></clipPath><clipPath id="clip32"><rect x="1830" y="649" width="311" height="311"/></clipPath><clipPath id="clip33"><rect x="1830" y="649" width="311" height="311"/></clipPath><clipPath id="clip34"><rect x="1952" y="899" width="312" height="311"/></clipPath><clipPath id="clip35"><rect x="1952" y="899" width="312" height="311"/></clipPath><clipPath id="clip36"><rect x="1952" y="899" width="312" height="311"/></clipPath><clipPath id="clip37"><rect x="2046" y="1145" width="311" height="311"/></clipPath><clipPath id="clip38"><rect x="2046" y="1145" width="311" height="311"/></clipPath><clipPath id="clip39"><rect x="2046" y="1145" width="311" height="311"/></clipPath><clipPath id="clip40"><rect x="2169" y="1395" width="311" height="312"/></clipPath><clipPath id="clip41"><rect x="2169" y="1395" width="311" height="312"/></clipPath><clipPath id="clip42"><rect x="2169" y="1395" width="311" height="312"/></clipPath><clipPath id="clip43"><rect x="2263" y="1641" width="311" height="311"/></clipPath><clipPath id="clip44"><rect x="2263" y="1641" width="311" height="311"/></clipPath><clipPath id="clip45"><rect x="2263" y="1641" width="311" height="311"/></clipPath><clipPath id="clip46"><rect x="2140" y="649" width="311" height="311"/></clipPath><clipPath id="clip47"><rect x="2140" y="649" width="311" height="311"/></clipPath><clipPath id="clip48"><rect x="2140" y="649" width="311" height="311"/></clipPath><clipPath id="clip49"><rect x="2263" y="899" width="311" height="311"/></clipPath><clipPath id="clip50"><rect x="2263" y="899" width="311" height="311"/></clipPath><clipPath id="clip51"><rect x="2263" y="899" width="311" height="311"/></clipPath><clipPath id="clip52"><rect x="2356" y="1145" width="311" height="311"/></clipPath><clipPath id="clip53"><rect x="2356" y="1145" width="311" height="311"/></clipPath><clipPath id="clip54"><rect x="2356" y="1145" width="311" height="311"/></clipPath><clipPath id="clip55"><rect x="2479" y="1395" width="310" height="312"/></clipPath><clipPath id="clip56"><rect x="2479" y="1395" width="310" height="312"/></clipPath><clipPath id="clip57"><rect x="2479" y="1395" width="310" height="312"/></clipPath><clipPath id="clip58"><rect x="2574" y="1641" width="311" height="311"/></clipPath><clipPath id="clip59"><rect x="2574" y="1641" width="311" height="311"/></clipPath><clipPath id="clip60"><rect x="2574" y="1641" width="311" height="311"/></clipPath><clipPath id="clip61"><rect x="2444" y="644" width="312" height="311"/></clipPath><clipPath id="clip62"><rect x="2444" y="644" width="312" height="311"/></clipPath><clipPath id="clip63"><rect x="2444" y="644" width="312" height="311"/></clipPath><clipPath id="clip64"><rect x="2567" y="896" width="311" height="311"/></clipPath><clipPath id="clip65"><rect x="2567" y="896" width="311" height="311"/></clipPath><clipPath id="clip66"><rect x="2567" y="896" width="311" height="311"/></clipPath><clipPath id="clip67"><rect x="2659" y="1140" width="311" height="311"/></clipPath><clipPath id="clip68"><rect x="2659" y="1140" width="311" height="311"/></clipPath><clipPath id="clip69"><rect x="2659" y="1140" width="311" height="311"/></clipPath><clipPath id="clip70"><rect x="2783" y="1391" width="311" height="312"/></clipPath><clipPath id="clip71"><rect x="2783" y="1391" width="311" height="312"/></clipPath><clipPath id="clip72"><rect x="2783" y="1391" width="311" height="312"/></clipPath><clipPath id="clip73"><rect x="2877" y="1636" width="311" height="311"/></clipPath><clipPath id="clip74"><rect x="2877" y="1636" width="311" height="311"/></clipPath><clipPath id="clip75"><rect x="2877" y="1636" width="311" height="311"/></clipPath></defs><g clip-path="url(#clip0)" transform="translate(-499 -385)"><g clip-path="url(#clip1)"><g clip-path="url(#clip2)"><g clip-path="url(#clip3)"><path d="M1424.09 854.377 1424.09 854.581 1463.25 864.536 1463.25 901.919C1463.25 909.758 1470.05 916.122 1477.89 916.118 1485.72 916.118 1492.61 909.758 1492.61 901.919L1492.61 842.702 1438.31 828.528 1424.09 854.377Z" fill="#FC9804"/><path d="M1514.46 731.961 1472.34 703.955 1461.16 693.048 1457.96 685.766C1456.51 682.466 1454.63 682.626 1453.77 686.128L1448.77 706.387 1386.58 771.172 1264.78 771.172 1248.11 771.172C1248.11 771.172 1212 770.627 1212 805.459L1212 859.272 1234.84 859.272C1234.84 859.272 1234.84 812.986 1234.84 805.972 1234.84 799.596 1239.22 790.046 1247.52 788.359L1248.72 852.746 1267.47 875.759 1267.47 875.931 1248.32 907.79C1244.28 914.447 1246.27 923.059 1252.69 926.95 1259.12 930.84 1267.7 928.661 1271.73 921.995L1302.21 871.687 1284.01 852.747 1390.51 852.747 1394.34 887.893 1394.34 887.893 1368.16 899.875 1356.03 862.338 1334.75 856.456 1298.09 856.434 1332.73 881.074 1332.73 881.074 1343.49 916.96C1345.26 923.027 1350.88 926.947 1356.88 927.109 1355.36 925.806 1354.22 924.193 1353.33 922.262 1354.22 924.187 1355.5 925.806 1357.02 927.109 1361.1 930.624 1366.99 931.72 1372.18 929.343L1426.03 904.715 1420.83 853.298 1470.34 753.115 1504.52 759.622C1510.51 760.734 1516.89 757.997 1520.06 752.34 1524.14 745.199 1521.56 736.027 1514.46 731.961Z" fill="#FC9804"/></g></g></g><g clip-path="url(#clip4)"><g clip-path="url(#clip5)"><g clip-path="url(#clip6)"><path d="M1547.09 1106.38 1547.09 1106.58 1586.25 1116.54 1586.25 1153.92C1586.25 1161.76 1593.05 1168.12 1600.88 1168.12 1608.72 1168.12 1615.61 1161.76 1615.61 1153.92L1615.61 1094.7 1561.31 1080.53 1547.09 1106.38Z" fill="#FC9804"/><path d="M1637.46 983.961 1595.34 955.955 1584.16 945.048 1580.96 937.766C1579.51 934.466 1577.63 934.625 1576.77 938.127L1571.77 958.387 1509.58 1023.17 1387.78 1023.17 1371.11 1023.17C1371.11 1023.17 1335 1022.63 1335 1057.46L1335 1111.27 1357.84 1111.27C1357.84 1111.27 1357.84 1064.99 1357.84 1057.97 1357.84 1051.6 1362.22 1042.05 1370.52 1040.36L1371.72 1104.75 1390.47 1127.76 1390.47 1127.93 1371.32 1159.79C1367.28 1166.45 1369.27 1175.06 1375.69 1178.95 1382.12 1182.84 1390.7 1180.66 1394.73 1173.99L1425.21 1123.69 1407.01 1104.75 1513.51 1104.75 1517.34 1139.89 1517.34 1139.89 1491.16 1151.87 1479.03 1114.34 1457.75 1108.46 1421.09 1108.43 1455.73 1133.07 1455.73 1133.07 1466.49 1168.96C1468.26 1175.03 1473.88 1178.95 1479.88 1179.11 1478.36 1177.81 1477.22 1176.19 1476.33 1174.26 1477.22 1176.19 1478.5 1177.81 1480.02 1179.11 1484.1 1182.62 1489.99 1183.72 1495.18 1181.34L1549.03 1156.71 1543.83 1105.3 1593.34 1005.12 1627.52 1011.62C1633.51 1012.73 1639.89 1010 1643.06 1004.34 1647.14 997.199 1644.56 988.027 1637.46 983.961Z" fill="#FC9804"/></g></g></g><g clip-path="url(#clip7)"><g clip-path="url(#clip8)"><g clip-path="url(#clip9)"><path d="M1640.09 1350.38 1640.09 1350.58 1679.25 1360.54 1679.25 1397.92C1679.25 1405.76 1686.05 1412.12 1693.88 1412.12 1701.72 1412.12 1708.61 1405.76 1708.61 1397.92L1708.61 1338.7 1654.31 1324.53 1640.09 1350.38Z" fill="#FC9804"/><path d="M1730.46 1227.96 1688.34 1199.96 1677.16 1189.05 1673.96 1181.77C1672.51 1178.47 1670.63 1178.63 1669.77 1182.13L1664.77 1202.39 1602.58 1267.17 1480.78 1267.17 1464.11 1267.17C1464.11 1267.17 1428 1266.63 1428 1301.46L1428 1355.27 1450.84 1355.27C1450.84 1355.27 1450.84 1308.99 1450.84 1301.97 1450.84 1295.6 1455.22 1286.05 1463.52 1284.36L1464.72 1348.75 1483.47 1371.76 1483.47 1371.93 1464.32 1403.79C1460.28 1410.45 1462.27 1419.06 1468.69 1422.95 1475.12 1426.84 1483.7 1424.66 1487.73 1417.99L1518.21 1367.69 1500.01 1348.75 1606.51 1348.75 1610.34 1383.89 1610.34 1383.89 1584.16 1395.87 1572.03 1358.34 1550.75 1352.46 1514.09 1352.43 1548.73 1377.07 1548.73 1377.07 1559.49 1412.96C1561.26 1419.03 1566.88 1422.95 1572.88 1423.11 1571.36 1421.81 1570.22 1420.19 1569.33 1418.26 1570.22 1420.19 1571.5 1421.81 1573.02 1423.11 1577.1 1426.62 1582.99 1427.72 1588.18 1425.34L1642.03 1400.71 1636.83 1349.3 1686.34 1249.12 1720.52 1255.62C1726.51 1256.73 1732.89 1254 1736.06 1248.34 1740.14 1241.2 1737.56 1232.03 1730.46 1227.96Z" fill="#FC9804"/></g></g></g><g clip-path="url(#clip10)"><g clip-path="url(#clip11)"><g clip-path="url(#clip12)"><path d="M1763.09 1602.38 1763.09 1602.58 1802.25 1612.54 1802.25 1649.92C1802.25 1657.76 1809.05 1664.12 1816.88 1664.12 1824.72 1664.12 1831.61 1657.76 1831.61 1649.92L1831.61 1590.7 1777.31 1576.53 1763.09 1602.38Z" fill="#FC9804"/><path d="M1853.46 1479.96 1811.34 1451.96 1800.16 1441.05 1796.96 1433.77C1795.51 1430.47 1793.63 1430.63 1792.77 1434.13L1787.77 1454.39 1725.58 1519.17 1603.78 1519.17 1587.11 1519.17C1587.11 1519.17 1551 1518.63 1551 1553.46L1551 1607.27 1573.84 1607.27C1573.84 1607.27 1573.84 1560.99 1573.84 1553.97 1573.84 1547.6 1578.22 1538.05 1586.52 1536.36L1587.72 1600.75 1606.47 1623.76 1606.47 1623.93 1587.32 1655.79C1583.28 1662.45 1585.27 1671.06 1591.69 1674.95 1598.12 1678.84 1606.7 1676.66 1610.73 1669.99L1641.21 1619.69 1623.01 1600.75 1729.51 1600.75 1733.34 1635.89 1733.34 1635.89 1707.16 1647.87 1695.03 1610.34 1673.75 1604.46 1637.09 1604.43 1671.73 1629.07 1671.73 1629.07 1682.49 1664.96C1684.26 1671.03 1689.88 1674.95 1695.88 1675.11 1694.36 1673.81 1693.22 1672.19 1692.33 1670.26 1693.22 1672.19 1694.5 1673.81 1696.02 1675.11 1700.1 1678.62 1705.99 1679.72 1711.18 1677.34L1765.03 1652.71 1759.83 1601.3 1809.34 1501.12 1843.52 1507.62C1849.51 1508.73 1855.89 1506 1859.06 1500.34 1863.14 1493.2 1860.56 1484.03 1853.46 1479.96Z" fill="#FC9804"/></g></g></g><g clip-path="url(#clip13)"><g clip-path="url(#clip14)"><g clip-path="url(#clip15)"><path d="M212.09 202.377 212.09 202.581 251.246 212.535 251.246 249.919C251.246 257.758 258.053 264.121 265.885 264.118 273.723 264.118 280.612 257.758 280.612 249.919L280.612 190.701 226.309 176.528 212.09 202.377Z" fill="#FC9804" transform="matrix(1.00323 0 0 1 1645 1644)"/><path d="M302.459 79.9612 260.34 51.9552 249.156 41.0483 245.956 33.7656C244.509 30.4658 242.63 30.6254 241.769 34.1274L236.766 54.3871 174.583 119.172 52.7838 119.172 36.1075 119.172C36.1075 119.172 0 118.627 0 153.459L0 207.271 22.8403 207.271C22.8403 207.271 22.8403 160.985 22.8403 153.972 22.8403 147.596 27.2216 138.046 35.5161 136.359L36.7204 200.746 55.4696 223.759 55.4696 223.931 36.3155 255.789C32.2799 262.446 34.267 271.059 40.6925 274.949 47.1195 278.84 55.6976 276.66 59.7316 269.995L90.2131 219.687 72.0084 200.746 178.508 200.746 182.341 235.893 182.344 235.893 156.16 247.874 144.029 210.338 122.745 204.456 86.0853 204.433 120.729 229.074 120.729 229.074 131.489 264.96C133.257 271.027 138.88 274.946 144.88 275.108 143.363 273.805 142.218 272.193 141.333 270.262 142.217 272.187 143.503 273.805 145.017 275.108 149.098 278.623 154.986 279.72 160.183 277.343L214.034 252.714 208.828 201.298 258.336 101.115 292.523 107.622C298.508 108.734 304.887 105.997 308.057 100.339 312.139 93.1992 309.558 84.027 302.459 79.9612Z" fill="#FC9804" transform="matrix(1.00323 0 0 1 1645 1644)"/></g></g></g><g clip-path="url(#clip16)"><g clip-path="url(#clip17)"><g clip-path="url(#clip18)"><path d="M212.091 202.377 212.091 202.581 251.246 212.535 251.246 249.919C251.246 257.758 258.053 264.121 265.885 264.118 273.723 264.118 280.612 257.758 280.612 249.919L280.612 190.702 226.309 176.528 212.091 202.377Z" fill="#FC9804" transform="matrix(1.00322 0 0 1 1522 652)"/><path d="M302.459 79.9613 260.34 51.9553 249.156 41.0483 245.957 33.7657C244.51 30.4659 242.63 30.6254 241.77 34.1274L236.767 54.3871 174.583 119.172 52.7839 119.172 36.1075 119.172C36.1075 119.172 0 118.627 0 153.459L0 207.272 22.8404 207.272C22.8404 207.272 22.8404 160.986 22.8404 153.972 22.8404 147.596 27.2216 138.046 35.5161 136.359L36.7205 200.746 55.4696 223.759 55.4696 223.931 36.3156 255.79C32.2799 262.447 34.267 271.059 40.6925 274.95 47.1196 278.84 55.6977 276.661 59.7317 269.995L90.2132 219.687 72.0085 200.747 178.508 200.747 182.341 235.893 182.345 235.893 156.16 247.875 144.029 210.338 122.745 204.456 86.0854 204.433 120.729 229.074 120.729 229.074 131.489 264.96C133.257 271.027 138.88 274.947 144.88 275.109 143.364 273.806 142.218 272.193 141.333 270.262 142.218 272.187 143.503 273.806 145.017 275.109 149.099 278.624 154.986 279.72 160.183 277.343L214.035 252.715 208.828 201.298 258.336 101.115 292.524 107.622C298.508 108.734 304.887 105.997 308.057 100.34 312.14 93.1993 309.559 84.0271 302.459 79.9613Z" fill="#FC9804" transform="matrix(1.00322 0 0 1 1522 652)"/></g></g></g><g clip-path="url(#clip19)"><g clip-path="url(#clip20)"><g clip-path="url(#clip21)"><path d="M212.091 202.377 212.091 202.581 251.246 212.535 251.246 249.919C251.246 257.758 258.053 264.121 265.885 264.118 273.723 264.118 280.612 257.758 280.612 249.919L280.612 190.702 226.309 176.528 212.091 202.377Z" fill="#FC9804" transform="matrix(1.00323 0 0 1 1645 904)"/><path d="M302.459 79.9613 260.34 51.9553 249.156 41.0483 245.957 33.7657C244.51 30.4659 242.63 30.6254 241.77 34.1274L236.767 54.3871 174.583 119.172 52.7839 119.172 36.1075 119.172C36.1075 119.172 0 118.627 0 153.459L0 207.272 22.8404 207.272C22.8404 207.272 22.8404 160.986 22.8404 153.972 22.8404 147.596 27.2216 138.046 35.5161 136.359L36.7205 200.746 55.4696 223.759 55.4696 223.931 36.3156 255.79C32.2799 262.447 34.267 271.059 40.6925 274.95 47.1196 278.84 55.6977 276.661 59.7317 269.995L90.2132 219.687 72.0085 200.747 178.508 200.747 182.341 235.893 182.345 235.893 156.16 247.875 144.029 210.338 122.745 204.456 86.0854 204.433 120.729 229.074 120.729 229.074 131.489 264.96C133.257 271.027 138.88 274.947 144.88 275.109 143.364 273.806 142.218 272.193 141.333 270.262 142.218 272.187 143.503 273.806 145.017 275.109 149.099 278.624 154.986 279.72 160.183 277.343L214.035 252.715 208.828 201.298 258.336 101.115 292.524 107.622C298.508 108.734 304.887 105.997 308.057 100.34 312.14 93.1993 309.559 84.0271 302.459 79.9613Z" fill="#FC9804" transform="matrix(1.00323 0 0 1 1645 904)"/></g></g></g><g clip-path="url(#clip22)"><g clip-path="url(#clip23)"><g clip-path="url(#clip24)"><path d="M1950.09 1350.38 1950.09 1350.58 1989.25 1360.54 1989.25 1397.92C1989.25 1405.76 1996.05 1412.12 2003.88 1412.12 2011.72 1412.12 2018.61 1405.76 2018.61 1397.92L2018.61 1338.7 1964.31 1324.53 1950.09 1350.38Z" fill="#FC9804"/><path d="M2040.46 1227.96 1998.34 1199.96 1987.16 1189.05 1983.96 1181.77C1982.51 1178.47 1980.63 1178.63 1979.77 1182.13L1974.77 1202.39 1912.58 1267.17 1790.78 1267.17 1774.11 1267.17C1774.11 1267.17 1738 1266.63 1738 1301.46L1738 1355.27 1760.84 1355.27C1760.84 1355.27 1760.84 1308.99 1760.84 1301.97 1760.84 1295.6 1765.22 1286.05 1773.52 1284.36L1774.72 1348.75 1793.47 1371.76 1793.47 1371.93 1774.32 1403.79C1770.28 1410.45 1772.27 1419.06 1778.69 1422.95 1785.12 1426.84 1793.7 1424.66 1797.73 1417.99L1828.21 1367.69 1810.01 1348.75 1916.51 1348.75 1920.34 1383.89 1920.34 1383.89 1894.16 1395.87 1882.03 1358.34 1860.75 1352.46 1824.09 1352.43 1858.73 1377.07 1858.73 1377.07 1869.49 1412.96C1871.26 1419.03 1876.88 1422.95 1882.88 1423.11 1881.36 1421.81 1880.22 1420.19 1879.33 1418.26 1880.22 1420.19 1881.5 1421.81 1883.02 1423.11 1887.1 1426.62 1892.99 1427.72 1898.18 1425.34L1952.03 1400.71 1946.83 1349.3 1996.34 1249.12 2030.52 1255.62C2036.51 1256.73 2042.89 1254 2046.06 1248.34 2050.14 1241.2 2047.56 1232.03 2040.46 1227.96Z" fill="#FC9804"/></g></g></g><g clip-path="url(#clip25)"><g clip-path="url(#clip26)"><g clip-path="url(#clip27)"><path d="M2073.09 1602.38 2073.09 1602.58 2112.25 1612.54 2112.25 1649.92C2112.25 1657.76 2119.05 1664.12 2126.89 1664.12 2134.72 1664.12 2141.61 1657.76 2141.61 1649.92L2141.61 1590.7 2087.31 1576.53 2073.09 1602.38Z" fill="#FC9804"/><path d="M2163.46 1479.96 2121.34 1451.96 2110.16 1441.05 2106.96 1433.77C2105.51 1430.47 2103.63 1430.63 2102.77 1434.13L2097.77 1454.39 2035.58 1519.17 1913.78 1519.17 1897.11 1519.17C1897.11 1519.17 1861 1518.63 1861 1553.46L1861 1607.27 1883.84 1607.27C1883.84 1607.27 1883.84 1560.99 1883.84 1553.97 1883.84 1547.6 1888.22 1538.05 1896.52 1536.36L1897.72 1600.75 1916.47 1623.76 1916.47 1623.93 1897.32 1655.79C1893.28 1662.45 1895.27 1671.06 1901.69 1674.95 1908.12 1678.84 1916.7 1676.66 1920.73 1669.99L1951.21 1619.69 1933.01 1600.75 2039.51 1600.75 2043.34 1635.89 2043.34 1635.89 2017.16 1647.87 2005.03 1610.34 1983.75 1604.46 1947.09 1604.43 1981.73 1629.07 1981.73 1629.07 1992.49 1664.96C1994.26 1671.03 1999.88 1674.95 2005.88 1675.11 2004.36 1673.81 2003.22 1672.19 2002.33 1670.26 2003.22 1672.19 2004.5 1673.81 2006.02 1675.11 2010.1 1678.62 2015.99 1679.72 2021.18 1677.34L2075.03 1652.71 2069.83 1601.3 2119.34 1501.12 2153.52 1507.62C2159.51 1508.73 2165.89 1506 2169.06 1500.34 2173.14 1493.2 2170.56 1484.03 2163.46 1479.96Z" fill="#FC9804"/></g></g></g><g clip-path="url(#clip28)"><g clip-path="url(#clip29)"><g clip-path="url(#clip30)"><path d="M2168.09 1846.38 2168.09 1846.58 2207.25 1856.54 2207.25 1893.92C2207.25 1901.76 2214.05 1908.12 2221.88 1908.12 2229.72 1908.12 2236.61 1901.76 2236.61 1893.92L2236.61 1834.7 2182.31 1820.53 2168.09 1846.38Z" fill="#FC9804"/><path d="M2258.46 1723.96 2216.34 1695.96 2205.16 1685.05 2201.96 1677.77C2200.51 1674.47 2198.63 1674.63 2197.77 1678.13L2192.77 1698.39 2130.58 1763.17 2008.78 1763.17 1992.11 1763.17C1992.11 1763.17 1956 1762.63 1956 1797.46L1956 1851.27 1978.84 1851.27C1978.84 1851.27 1978.84 1804.99 1978.84 1797.97 1978.84 1791.6 1983.22 1782.05 1991.52 1780.36L1992.72 1844.75 2011.47 1867.76 2011.47 1867.93 1992.32 1899.79C1988.28 1906.45 1990.27 1915.06 1996.69 1918.95 2003.12 1922.84 2011.7 1920.66 2015.73 1913.99L2046.21 1863.69 2028.01 1844.75 2134.51 1844.75 2138.34 1879.89 2138.34 1879.89 2112.16 1891.87 2100.03 1854.34 2078.75 1848.46 2042.09 1848.43 2076.73 1873.07 2076.73 1873.07 2087.49 1908.96C2089.26 1915.03 2094.88 1918.95 2100.88 1919.11 2099.36 1917.81 2098.22 1916.19 2097.33 1914.26 2098.22 1916.19 2099.5 1917.81 2101.02 1919.11 2105.1 1922.62 2110.99 1923.72 2116.18 1921.34L2170.03 1896.71 2164.83 1845.3 2214.34 1745.12 2248.52 1751.62C2254.51 1752.73 2260.89 1750 2264.06 1744.34 2268.14 1737.2 2265.56 1728.03 2258.46 1723.96Z" fill="#FC9804"/></g></g></g><g clip-path="url(#clip31)"><g clip-path="url(#clip32)"><g clip-path="url(#clip33)"><path d="M212.091 202.377 212.091 202.581 251.246 212.535 251.246 249.919C251.246 257.758 258.053 264.121 265.885 264.118 273.723 264.118 280.612 257.758 280.612 249.919L280.612 190.702 226.309 176.528 212.091 202.377Z" fill="#34D0B6" transform="matrix(1.00322 0 0 1 1830 649)"/><path d="M302.459 79.9613 260.34 51.9553 249.156 41.0483 245.957 33.7657C244.51 30.4659 242.63 30.6254 241.77 34.1274L236.767 54.3871 174.583 119.172 52.7839 119.172 36.1075 119.172C36.1075 119.172 0 118.627 0 153.459L0 207.272 22.8404 207.272C22.8404 207.272 22.8404 160.986 22.8404 153.972 22.8404 147.596 27.2216 138.046 35.5161 136.359L36.7205 200.746 55.4696 223.759 55.4696 223.931 36.3156 255.79C32.2799 262.447 34.267 271.059 40.6925 274.95 47.1196 278.84 55.6977 276.661 59.7317 269.995L90.2132 219.687 72.0085 200.747 178.508 200.747 182.341 235.893 182.345 235.893 156.16 247.875 144.029 210.338 122.745 204.456 86.0854 204.433 120.729 229.074 120.729 229.074 131.489 264.96C133.257 271.027 138.88 274.947 144.88 275.109 143.364 273.806 142.218 272.193 141.333 270.262 142.218 272.187 143.503 273.806 145.017 275.109 149.099 278.624 154.986 279.72 160.183 277.343L214.035 252.715 208.828 201.298 258.336 101.115 292.524 107.622C298.508 108.734 304.887 105.997 308.057 100.34 312.14 93.1993 309.559 84.0271 302.459 79.9613Z" fill="#34D0B6" transform="matrix(1.00322 0 0 1 1830 649)"/></g></g></g><g clip-path="url(#clip34)"><g clip-path="url(#clip35)"><g clip-path="url(#clip36)"><path d="M212.091 202.377 212.091 202.581 251.246 212.535 251.246 249.919C251.246 257.758 258.053 264.121 265.885 264.118 273.723 264.118 280.612 257.758 280.612 249.919L280.612 190.702 226.309 176.528 212.091 202.377Z" fill="#34D0B6" transform="matrix(1.00323 0 0 1 1953 900)"/><path d="M302.459 79.9613 260.34 51.9553 249.156 41.0483 245.957 33.7657C244.51 30.4659 242.63 30.6254 241.77 34.1274L236.767 54.3871 174.583 119.172 52.7839 119.172 36.1075 119.172C36.1075 119.172 0 118.627 0 153.459L0 207.272 22.8404 207.272C22.8404 207.272 22.8404 160.986 22.8404 153.972 22.8404 147.596 27.2216 138.046 35.5161 136.359L36.7205 200.746 55.4696 223.759 55.4696 223.931 36.3156 255.79C32.2799 262.447 34.267 271.059 40.6925 274.95 47.1196 278.84 55.6977 276.661 59.7317 269.995L90.2132 219.687 72.0085 200.747 178.508 200.747 182.341 235.893 182.345 235.893 156.16 247.875 144.029 210.338 122.745 204.456 86.0854 204.433 120.729 229.074 120.729 229.074 131.489 264.96C133.257 271.027 138.88 274.947 144.88 275.109 143.364 273.806 142.218 272.193 141.333 270.262 142.218 272.187 143.503 273.806 145.017 275.109 149.099 278.624 154.986 279.72 160.183 277.343L214.035 252.715 208.828 201.298 258.336 101.115 292.524 107.622C298.508 108.734 304.887 105.997 308.057 100.34 312.14 93.1993 309.559 84.0271 302.459 79.9613Z" fill="#34D0B6" transform="matrix(1.00323 0 0 1 1953 900)"/></g></g></g><g clip-path="url(#clip37)"><g clip-path="url(#clip38)"><g clip-path="url(#clip39)"><path d="M2258.09 1347.38 2258.09 1347.58 2297.25 1357.54 2297.25 1394.92C2297.25 1402.76 2304.05 1409.12 2311.88 1409.12 2319.72 1409.12 2326.61 1402.76 2326.61 1394.92L2326.61 1335.7 2272.31 1321.53 2258.09 1347.38Z" fill="#34D0B6"/><path d="M2348.46 1224.96 2306.34 1196.96 2295.16 1186.05 2291.96 1178.77C2290.51 1175.47 2288.63 1175.63 2287.77 1179.13L2282.77 1199.39 2220.58 1264.17 2098.78 1264.17 2082.11 1264.17C2082.11 1264.17 2046 1263.63 2046 1298.46L2046 1352.27 2068.84 1352.27C2068.84 1352.27 2068.84 1305.99 2068.84 1298.97 2068.84 1292.6 2073.22 1283.05 2081.52 1281.36L2082.72 1345.75 2101.47 1368.76 2101.47 1368.93 2082.32 1400.79C2078.28 1407.45 2080.27 1416.06 2086.69 1419.95 2093.12 1423.84 2101.7 1421.66 2105.73 1414.99L2136.21 1364.69 2118.01 1345.75 2224.51 1345.75 2228.34 1380.89 2228.34 1380.89 2202.16 1392.87 2190.03 1355.34 2168.75 1349.46 2132.09 1349.43 2166.73 1374.07 2166.73 1374.07 2177.49 1409.96C2179.26 1416.03 2184.88 1419.95 2190.88 1420.11 2189.36 1418.81 2188.22 1417.19 2187.33 1415.26 2188.22 1417.19 2189.5 1418.81 2191.02 1420.11 2195.1 1423.62 2200.99 1424.72 2206.18 1422.34L2260.03 1397.71 2254.83 1346.3 2304.34 1246.12 2338.52 1252.62C2344.51 1253.73 2350.89 1251 2354.06 1245.34 2358.14 1238.2 2355.56 1229.03 2348.46 1224.96Z" fill="#34D0B6"/></g></g></g><g clip-path="url(#clip40)"><g clip-path="url(#clip41)"><g clip-path="url(#clip42)"><path d="M2381.09 1598.38 2381.09 1598.58 2420.25 1608.54 2420.25 1645.92C2420.25 1653.76 2427.05 1660.12 2434.88 1660.12 2442.72 1660.12 2449.61 1653.76 2449.61 1645.92L2449.61 1586.7 2395.31 1572.53 2381.09 1598.38Z" fill="#34D0B6"/><path d="M2471.46 1475.96 2429.34 1447.96 2418.16 1437.05 2414.96 1429.77C2413.51 1426.47 2411.63 1426.63 2410.77 1430.13L2405.77 1450.39 2343.58 1515.17 2221.78 1515.17 2205.11 1515.17C2205.11 1515.17 2169 1514.63 2169 1549.46L2169 1603.27 2191.84 1603.27C2191.84 1603.27 2191.84 1556.99 2191.84 1549.97 2191.84 1543.6 2196.22 1534.05 2204.52 1532.36L2205.72 1596.75 2224.47 1619.76 2224.47 1619.93 2205.32 1651.79C2201.28 1658.45 2203.27 1667.06 2209.69 1670.95 2216.12 1674.84 2224.7 1672.66 2228.73 1665.99L2259.21 1615.69 2241.01 1596.75 2347.51 1596.75 2351.34 1631.89 2351.34 1631.89 2325.16 1643.87 2313.03 1606.34 2291.75 1600.46 2255.09 1600.43 2289.73 1625.07 2289.73 1625.07 2300.49 1660.96C2302.26 1667.03 2307.88 1670.95 2313.88 1671.11 2312.36 1669.81 2311.22 1668.19 2310.33 1666.26 2311.22 1668.19 2312.5 1669.81 2314.02 1671.11 2318.1 1674.62 2323.99 1675.72 2329.18 1673.34L2383.03 1648.71 2377.83 1597.3 2427.34 1497.12 2461.52 1503.62C2467.51 1504.73 2473.89 1502 2477.06 1496.34 2481.14 1489.2 2478.56 1480.03 2471.46 1475.96Z" fill="#34D0B6"/></g></g></g><g clip-path="url(#clip43)"><g clip-path="url(#clip44)"><g clip-path="url(#clip45)"><path d="M2476.09 1843.38 2476.09 1843.58 2515.25 1853.54 2515.25 1890.92C2515.25 1898.76 2522.05 1905.12 2529.88 1905.12 2537.72 1905.12 2544.61 1898.76 2544.61 1890.92L2544.61 1831.7 2490.31 1817.53 2476.09 1843.38Z" fill="#34D0B6"/><path d="M2566.46 1720.96 2524.34 1692.96 2513.16 1682.05 2509.96 1674.77C2508.51 1671.47 2506.63 1671.63 2505.77 1675.13L2500.77 1695.39 2438.58 1760.17 2316.78 1760.17 2300.11 1760.17C2300.11 1760.17 2264 1759.63 2264 1794.46L2264 1848.27 2286.84 1848.27C2286.84 1848.27 2286.84 1801.99 2286.84 1794.97 2286.84 1788.6 2291.22 1779.05 2299.52 1777.36L2300.72 1841.75 2319.47 1864.76 2319.47 1864.93 2300.32 1896.79C2296.28 1903.45 2298.27 1912.06 2304.69 1915.95 2311.12 1919.84 2319.7 1917.66 2323.73 1910.99L2354.21 1860.69 2336.01 1841.75 2442.51 1841.75 2446.34 1876.89 2446.34 1876.89 2420.16 1888.87 2408.03 1851.34 2386.75 1845.46 2350.09 1845.43 2384.73 1870.07 2384.73 1870.07 2395.49 1905.96C2397.26 1912.03 2402.88 1915.95 2408.88 1916.11 2407.36 1914.81 2406.22 1913.19 2405.33 1911.26 2406.22 1913.19 2407.5 1914.81 2409.02 1916.11 2413.1 1919.62 2418.99 1920.72 2424.18 1918.34L2478.03 1893.71 2472.83 1842.3 2522.34 1742.12 2556.52 1748.62C2562.51 1749.73 2568.89 1747 2572.06 1741.34 2576.14 1734.2 2573.56 1725.03 2566.46 1720.96Z" fill="#34D0B6"/></g></g></g><g clip-path="url(#clip46)"><g clip-path="url(#clip47)"><g clip-path="url(#clip48)"><path d="M2353.09 851.377 2353.09 851.581 2392.25 861.535 2392.25 898.919C2392.25 906.758 2399.05 913.121 2406.88 913.118 2414.72 913.118 2421.61 906.758 2421.61 898.919L2421.61 839.702 2367.31 825.528 2353.09 851.377Z" fill="#2E75B6"/><path d="M2443.46 728.961 2401.34 700.955 2390.16 690.048 2386.96 682.766C2385.51 679.466 2383.63 679.625 2382.77 683.127L2377.77 703.387 2315.58 768.172 2193.78 768.172 2177.11 768.172C2177.11 768.172 2141 767.627 2141 802.459L2141 856.272 2163.84 856.272C2163.84 856.272 2163.84 809.986 2163.84 802.972 2163.84 796.596 2168.22 787.046 2176.52 785.359L2177.72 849.746 2196.47 872.759 2196.47 872.931 2177.32 904.79C2173.28 911.447 2175.27 920.059 2181.69 923.95 2188.12 927.84 2196.7 925.661 2200.73 918.995L2231.21 868.687 2213.01 849.747 2319.51 849.747 2323.34 884.893 2323.34 884.893 2297.16 896.875 2285.03 859.338 2263.75 853.456 2227.09 853.433 2261.73 878.074 2261.73 878.074 2272.49 913.96C2274.26 920.027 2279.88 923.947 2285.88 924.109 2284.36 922.806 2283.22 921.193 2282.33 919.262 2283.22 921.187 2284.5 922.806 2286.02 924.109 2290.1 927.624 2295.99 928.72 2301.18 926.343L2355.03 901.715 2349.83 850.298 2399.34 750.115 2433.52 756.622C2439.51 757.734 2445.89 754.997 2449.06 749.34 2453.14 742.199 2450.56 733.027 2443.46 728.961Z" fill="#2E75B6"/></g></g></g><g clip-path="url(#clip49)"><g clip-path="url(#clip50)"><g clip-path="url(#clip51)"><path d="M2476.09 1102.38 2476.09 1102.58 2515.25 1112.54 2515.25 1149.92C2515.25 1157.76 2522.05 1164.12 2529.88 1164.12 2537.72 1164.12 2544.61 1157.76 2544.61 1149.92L2544.61 1090.7 2490.31 1076.53 2476.09 1102.38Z" fill="#2E75B6"/><path d="M2566.46 979.961 2524.34 951.955 2513.16 941.048 2509.96 933.766C2508.51 930.466 2506.63 930.625 2505.77 934.127L2500.77 954.387 2438.58 1019.17 2316.78 1019.17 2300.11 1019.17C2300.11 1019.17 2264 1018.63 2264 1053.46L2264 1107.27 2286.84 1107.27C2286.84 1107.27 2286.84 1060.99 2286.84 1053.97 2286.84 1047.6 2291.22 1038.05 2299.52 1036.36L2300.72 1100.75 2319.47 1123.76 2319.47 1123.93 2300.32 1155.79C2296.28 1162.45 2298.27 1171.06 2304.69 1174.95 2311.12 1178.84 2319.7 1176.66 2323.73 1169.99L2354.21 1119.69 2336.01 1100.75 2442.51 1100.75 2446.34 1135.89 2446.34 1135.89 2420.16 1147.87 2408.03 1110.34 2386.75 1104.46 2350.09 1104.43 2384.73 1129.07 2384.73 1129.07 2395.49 1164.96C2397.26 1171.03 2402.88 1174.95 2408.88 1175.11 2407.36 1173.81 2406.22 1172.19 2405.33 1170.26 2406.22 1172.19 2407.5 1173.81 2409.02 1175.11 2413.1 1178.62 2418.99 1179.72 2424.18 1177.34L2478.03 1152.71 2472.83 1101.3 2522.34 1001.12 2556.52 1007.62C2562.51 1008.73 2568.89 1006 2572.06 1000.34 2576.14 993.199 2573.56 984.027 2566.46 979.961Z" fill="#2E75B6"/></g></g></g><g clip-path="url(#clip52)"><g clip-path="url(#clip53)"><g clip-path="url(#clip54)"><path d="M2568.09 1347.38 2568.09 1347.58 2607.25 1357.54 2607.25 1394.92C2607.25 1402.76 2614.05 1409.12 2621.88 1409.12 2629.72 1409.12 2636.61 1402.76 2636.61 1394.92L2636.61 1335.7 2582.31 1321.53 2568.09 1347.38Z" fill="#2E75B6"/><path d="M2658.46 1224.96 2616.34 1196.96 2605.16 1186.05 2601.96 1178.77C2600.51 1175.47 2598.63 1175.63 2597.77 1179.13L2592.77 1199.39 2530.58 1264.17 2408.78 1264.17 2392.11 1264.17C2392.11 1264.17 2356 1263.63 2356 1298.46L2356 1352.27 2378.84 1352.27C2378.84 1352.27 2378.84 1305.99 2378.84 1298.97 2378.84 1292.6 2383.22 1283.05 2391.52 1281.36L2392.72 1345.75 2411.47 1368.76 2411.47 1368.93 2392.32 1400.79C2388.28 1407.45 2390.27 1416.06 2396.69 1419.95 2403.12 1423.84 2411.7 1421.66 2415.73 1414.99L2446.21 1364.69 2428.01 1345.75 2534.51 1345.75 2538.34 1380.89 2538.34 1380.89 2512.16 1392.87 2500.03 1355.34 2478.75 1349.46 2442.09 1349.43 2476.73 1374.07 2476.73 1374.07 2487.49 1409.96C2489.26 1416.03 2494.88 1419.95 2500.88 1420.11 2499.36 1418.81 2498.22 1417.19 2497.33 1415.26 2498.22 1417.19 2499.5 1418.81 2501.02 1420.11 2505.1 1423.62 2510.99 1424.72 2516.18 1422.34L2570.03 1397.71 2564.83 1346.3 2614.34 1246.12 2648.52 1252.62C2654.51 1253.73 2660.89 1251 2664.06 1245.34 2668.14 1238.2 2665.56 1229.03 2658.46 1224.96Z" fill="#2E75B6"/></g></g></g><g clip-path="url(#clip55)"><g clip-path="url(#clip56)"><g clip-path="url(#clip57)"><path d="M2691.09 1598.38 2691.09 1598.58 2730.25 1608.54 2730.25 1645.92C2730.25 1653.76 2737.05 1660.12 2744.88 1660.12 2752.72 1660.12 2759.61 1653.76 2759.61 1645.92L2759.61 1586.7 2705.31 1572.53 2691.09 1598.38Z" fill="#2E75B6"/><path d="M2781.46 1475.96 2739.34 1447.96 2728.16 1437.05 2724.96 1429.77C2723.51 1426.47 2721.63 1426.63 2720.77 1430.13L2715.77 1450.39 2653.58 1515.17 2531.78 1515.17 2515.11 1515.17C2515.11 1515.17 2479 1514.63 2479 1549.46L2479 1603.27 2501.84 1603.27C2501.84 1603.27 2501.84 1556.99 2501.84 1549.97 2501.84 1543.6 2506.22 1534.05 2514.52 1532.36L2515.72 1596.75 2534.47 1619.76 2534.47 1619.93 2515.32 1651.79C2511.28 1658.45 2513.27 1667.06 2519.69 1670.95 2526.12 1674.84 2534.7 1672.66 2538.73 1665.99L2569.21 1615.69 2551.01 1596.75 2657.51 1596.75 2661.34 1631.89 2661.34 1631.89 2635.16 1643.87 2623.03 1606.34 2601.75 1600.46 2565.09 1600.43 2599.73 1625.07 2599.73 1625.07 2610.49 1660.96C2612.26 1667.03 2617.88 1670.95 2623.88 1671.11 2622.36 1669.81 2621.22 1668.19 2620.33 1666.26 2621.22 1668.19 2622.5 1669.81 2624.02 1671.11 2628.1 1674.62 2633.99 1675.72 2639.18 1673.34L2693.03 1648.71 2687.83 1597.3 2737.34 1497.12 2771.52 1503.62C2777.51 1504.73 2783.89 1502 2787.06 1496.34 2791.14 1489.2 2788.56 1480.03 2781.46 1475.96Z" fill="#2E75B6"/></g></g></g><g clip-path="url(#clip58)"><g clip-path="url(#clip59)"><g clip-path="url(#clip60)"><path d="M2786.09 1843.38 2786.09 1843.58 2825.25 1853.54 2825.25 1890.92C2825.25 1898.76 2832.05 1905.12 2839.88 1905.12 2847.72 1905.12 2854.61 1898.76 2854.61 1890.92L2854.61 1831.7 2800.31 1817.53 2786.09 1843.38Z" fill="#2E75B6"/><path d="M2876.46 1720.96 2834.34 1692.96 2823.16 1682.05 2819.96 1674.77C2818.51 1671.47 2816.63 1671.63 2815.77 1675.13L2810.77 1695.39 2748.58 1760.17 2626.78 1760.17 2610.11 1760.17C2610.11 1760.17 2574 1759.63 2574 1794.46L2574 1848.27 2596.84 1848.27C2596.84 1848.27 2596.84 1801.99 2596.84 1794.97 2596.84 1788.6 2601.22 1779.05 2609.52 1777.36L2610.72 1841.75 2629.47 1864.76 2629.47 1864.93 2610.32 1896.79C2606.28 1903.45 2608.27 1912.06 2614.69 1915.95 2621.12 1919.84 2629.7 1917.66 2633.73 1910.99L2664.21 1860.69 2646.01 1841.75 2752.51 1841.75 2756.34 1876.89 2756.34 1876.89 2730.16 1888.87 2718.03 1851.34 2696.75 1845.46 2660.09 1845.43 2694.73 1870.07 2694.73 1870.07 2705.49 1905.96C2707.26 1912.03 2712.88 1915.95 2718.88 1916.11 2717.36 1914.81 2716.22 1913.19 2715.33 1911.26 2716.22 1913.19 2717.5 1914.81 2719.02 1916.11 2723.1 1919.62 2728.99 1920.72 2734.18 1918.34L2788.03 1893.71 2782.83 1842.3 2832.34 1742.12 2866.52 1748.62C2872.51 1749.73 2878.89 1747 2882.06 1741.34 2886.14 1734.2 2883.56 1725.03 2876.46 1720.96Z" fill="#2E75B6"/></g></g></g><g clip-path="url(#clip61)"><g clip-path="url(#clip62)"><g clip-path="url(#clip63)"><path d="M212.091 202.377 212.091 202.581 251.246 212.535 251.246 249.919C251.246 257.758 258.053 264.121 265.885 264.118 273.723 264.118 280.612 257.758 280.612 249.919L280.612 190.702 226.309 176.528 212.091 202.377Z" fill="#00B050" transform="matrix(1.00323 0 0 1 2444 645)"/><path d="M302.459 79.9613 260.34 51.9553 249.156 41.0483 245.957 33.7657C244.51 30.4659 242.63 30.6254 241.77 34.1274L236.767 54.3871 174.583 119.172 52.7839 119.172 36.1075 119.172C36.1075 119.172 0 118.627 0 153.459L0 207.272 22.8404 207.272C22.8404 207.272 22.8404 160.986 22.8404 153.972 22.8404 147.596 27.2216 138.046 35.5161 136.359L36.7205 200.746 55.4696 223.759 55.4696 223.931 36.3156 255.79C32.2799 262.447 34.267 271.059 40.6925 274.95 47.1196 278.84 55.6977 276.661 59.7317 269.995L90.2132 219.687 72.0085 200.747 178.508 200.747 182.341 235.893 182.345 235.893 156.16 247.875 144.029 210.338 122.745 204.456 86.0854 204.433 120.729 229.074 120.729 229.074 131.489 264.96C133.257 271.027 138.88 274.947 144.88 275.109 143.364 273.806 142.218 272.193 141.333 270.262 142.218 272.187 143.503 273.806 145.017 275.109 149.099 278.624 154.986 279.72 160.183 277.343L214.035 252.715 208.828 201.298 258.336 101.115 292.524 107.622C298.508 108.734 304.887 105.997 308.057 100.34 312.14 93.1993 309.559 84.0271 302.459 79.9613Z" fill="#00B050" transform="matrix(1.00323 0 0 1 2444 645)"/></g></g></g><g clip-path="url(#clip64)"><g clip-path="url(#clip65)"><g clip-path="url(#clip66)"><path d="M2779.77 1099.03 2779.77 1099.23 2819.06 1109.22 2819.06 1146.73C2819.06 1154.59 2825.89 1160.97 2833.74 1160.97 2841.61 1160.97 2848.52 1154.59 2848.52 1146.73L2848.52 1087.32 2794.04 1073.1 2779.77 1099.03Z" fill="#00B050"/><path d="M2870.43 976.219 2828.18 948.123 2816.96 937.181 2813.75 929.875C2812.3 926.564 2810.41 926.724 2809.55 930.238L2804.53 950.563 2742.15 1015.56 2619.95 1015.56 2603.22 1015.56C2603.22 1015.56 2567 1015.01 2567 1049.95L2567 1103.94 2589.91 1103.94C2589.91 1103.94 2589.91 1057.5 2589.91 1050.47 2589.91 1044.07 2594.31 1034.49 2602.63 1032.8L2603.84 1097.39 2622.65 1120.48 2622.65 1120.65 2603.43 1152.61C2599.38 1159.29 2601.38 1167.93 2607.82 1171.84 2614.27 1175.74 2622.88 1173.55 2626.92 1166.87L2657.5 1116.4 2639.24 1097.39 2746.08 1097.39 2749.93 1132.65 2749.93 1132.65 2723.66 1144.67 2711.49 1107.02 2690.14 1101.12 2653.36 1101.09 2688.12 1125.81 2688.12 1125.81 2698.91 1161.81C2700.69 1167.9 2706.33 1171.83 2712.35 1172 2710.83 1170.69 2709.68 1169.07 2708.79 1167.13 2709.68 1169.06 2710.97 1170.69 2712.48 1172 2716.58 1175.52 2722.49 1176.62 2727.7 1174.24L2781.73 1149.53 2776.5 1097.95 2826.17 997.442 2860.47 1003.97C2866.47 1005.09 2872.87 1002.34 2876.05 996.663 2880.15 989.5 2877.56 980.298 2870.43 976.219Z" fill="#00B050"/></g></g></g><g clip-path="url(#clip67)"><g clip-path="url(#clip68)"><g clip-path="url(#clip69)"><path d="M2872.09 1343.38 2872.09 1343.58 2911.25 1353.54 2911.25 1390.92C2911.25 1398.76 2918.05 1405.12 2925.88 1405.12 2933.72 1405.12 2940.61 1398.76 2940.61 1390.92L2940.61 1331.7 2886.31 1317.53 2872.09 1343.38Z" fill="#00B050"/><path d="M2962.46 1220.96 2920.34 1192.96 2909.16 1182.05 2905.96 1174.77C2904.51 1171.47 2902.63 1171.63 2901.77 1175.13L2896.77 1195.39 2834.58 1260.17 2712.78 1260.17 2696.11 1260.17C2696.11 1260.17 2660 1259.63 2660 1294.46L2660 1348.27 2682.84 1348.27C2682.84 1348.27 2682.84 1301.99 2682.84 1294.97 2682.84 1288.6 2687.22 1279.05 2695.52 1277.36L2696.72 1341.75 2715.47 1364.76 2715.47 1364.93 2696.32 1396.79C2692.28 1403.45 2694.27 1412.06 2700.69 1415.95 2707.12 1419.84 2715.7 1417.66 2719.73 1410.99L2750.21 1360.69 2732.01 1341.75 2838.51 1341.75 2842.34 1376.89 2842.34 1376.89 2816.16 1388.87 2804.03 1351.34 2782.75 1345.46 2746.09 1345.43 2780.73 1370.07 2780.73 1370.07 2791.49 1405.96C2793.26 1412.03 2798.88 1415.95 2804.88 1416.11 2803.36 1414.81 2802.22 1413.19 2801.33 1411.26 2802.22 1413.19 2803.5 1414.81 2805.02 1416.11 2809.1 1419.62 2814.99 1420.72 2820.18 1418.34L2874.03 1393.71 2868.83 1342.3 2918.34 1242.12 2952.52 1248.62C2958.51 1249.73 2964.89 1247 2968.06 1241.34 2972.14 1234.2 2969.56 1225.03 2962.46 1220.96Z" fill="#00B050"/></g></g></g><g clip-path="url(#clip70)"><g clip-path="url(#clip71)"><g clip-path="url(#clip72)"><path d="M212.091 202.377 212.091 202.581 251.246 212.535 251.246 249.919C251.246 257.758 258.053 264.121 265.885 264.118 273.723 264.118 280.612 257.758 280.612 249.919L280.612 190.702 226.309 176.528 212.091 202.377Z" fill="#00B050" transform="matrix(1 0 0 1.00323 2783 1392)"/><path d="M302.459 79.9613 260.34 51.9553 249.156 41.0483 245.957 33.7657C244.51 30.4659 242.63 30.6254 241.77 34.1274L236.767 54.3871 174.583 119.172 52.7839 119.172 36.1075 119.172C36.1075 119.172 0 118.627 0 153.459L0 207.272 22.8404 207.272C22.8404 207.272 22.8404 160.986 22.8404 153.972 22.8404 147.596 27.2216 138.046 35.5161 136.359L36.7205 200.746 55.4696 223.759 55.4696 223.931 36.3156 255.79C32.2799 262.447 34.267 271.059 40.6925 274.95 47.1196 278.84 55.6977 276.661 59.7317 269.995L90.2132 219.687 72.0085 200.747 178.508 200.747 182.341 235.893 182.345 235.893 156.16 247.875 144.029 210.338 122.745 204.456 86.0854 204.433 120.729 229.074 120.729 229.074 131.489 264.96C133.257 271.027 138.88 274.947 144.88 275.109 143.364 273.806 142.218 272.193 141.333 270.262 142.218 272.187 143.503 273.806 145.017 275.109 149.099 278.624 154.986 279.72 160.183 277.343L214.035 252.715 208.828 201.298 258.336 101.115 292.524 107.622C298.508 108.734 304.887 105.997 308.057 100.34 312.14 93.1993 309.559 84.0271 302.459 79.9613Z" fill="#00B050" transform="matrix(1 0 0 1.00323 2783 1392)"/></g></g></g><g clip-path="url(#clip73)"><g clip-path="url(#clip74)"><g clip-path="url(#clip75)"><path d="M3090.09 1839.38 3090.09 1839.58 3129.25 1849.54 3129.25 1886.92C3129.25 1894.76 3136.05 1901.12 3143.88 1901.12 3151.72 1901.12 3158.61 1894.76 3158.61 1886.92L3158.61 1827.7 3104.31 1813.53 3090.09 1839.38Z" fill="#00B050"/><path d="M3180.46 1716.96 3138.34 1688.96 3127.16 1678.05 3123.96 1670.77C3122.51 1667.47 3120.63 1667.63 3119.77 1671.13L3114.77 1691.39 3052.58 1756.17 2930.78 1756.17 2914.11 1756.17C2914.11 1756.17 2878 1755.63 2878 1790.46L2878 1844.27 2900.84 1844.27C2900.84 1844.27 2900.84 1797.99 2900.84 1790.97 2900.84 1784.6 2905.22 1775.05 2913.52 1773.36L2914.72 1837.75 2933.47 1860.76 2933.47 1860.93 2914.32 1892.79C2910.28 1899.45 2912.27 1908.06 2918.69 1911.95 2925.12 1915.84 2933.7 1913.66 2937.73 1906.99L2968.21 1856.69 2950.01 1837.75 3056.51 1837.75 3060.34 1872.89 3060.34 1872.89 3034.16 1884.87 3022.03 1847.34 3000.75 1841.46 2964.09 1841.43 2998.73 1866.07 2998.73 1866.07 3009.49 1901.96C3011.26 1908.03 3016.88 1911.95 3022.88 1912.11 3021.36 1910.81 3020.22 1909.19 3019.33 1907.26 3020.22 1909.19 3021.5 1910.81 3023.02 1912.11 3027.1 1915.62 3032.99 1916.72 3038.18 1914.34L3092.03 1889.71 3086.83 1838.3 3136.34 1738.12 3170.52 1744.62C3176.51 1745.73 3182.89 1743 3186.06 1737.34 3190.14 1730.2 3187.56 1721.03 3180.46 1716.96Z" fill="#00B050"/></g></g></g><text font-family="Teko,Teko_MSFontService,sans-serif" font-weight="700" font-size="202" transform="matrix(1 0 0 1 2490.01 608)">1<tspan font-size="134" x="65.3125" y="-60">st</tspan><tspan font-size="202" x="-316.561" y="0">2</tspan><tspan font-size="134" x="-222.03" y="-60">nd</tspan><tspan font-size="202" x="-620.381" y="4">3</tspan><tspan font-size="134" x="-524.131" y="-56">rd</tspan><tspan font-size="202" x="-925.863" y="4">4</tspan><tspan font-size="134" x="-823.884" y="-56">th</tspan><tspan font-size="202" x="-1231.44" y="4">5</tspan><tspan font-size="134" x="-1131.18" y="-56">th</tspan><tspan font-size="165" x="-1891.88" y="285">Group E</tspan><tspan font-size="165" x="-1784.9" y="534">Group D</tspan><tspan font-size="165" x="-1668.68" y="775">Group C</tspan><tspan font-size="165" x="-1561.08" y="1017">Group B</tspan><tspan font-size="165" x="-1456.88" y="1260">Group A</tspan></text></g></svg>