<svg width="1836" height="926" xmlns="http://www.w3.org/2000/svg" xmlns:xlink="http://www.w3.org/1999/xlink" overflow="hidden"><defs><clipPath id="clip0"><rect x="1353" y="669" width="1836" height="926"/></clipPath><clipPath id="clip1"><rect x="1644" y="807" width="312" height="311"/></clipPath><clipPath id="clip2"><rect x="1644" y="807" width="312" height="311"/></clipPath><clipPath id="clip3"><rect x="1644" y="807" width="312" height="311"/></clipPath><clipPath id="clip4"><rect x="2046" y="963" width="311" height="311"/></clipPath><clipPath id="clip5"><rect x="2046" y="963" width="311" height="311"/></clipPath><clipPath id="clip6"><rect x="2046" y="963" width="311" height="311"/></clipPath><clipPath id="clip7"><rect x="2169" y="1117" width="311" height="311"/></clipPath><clipPath id="clip8"><rect x="2169" y="1117" width="311" height="311"/></clipPath><clipPath id="clip9"><rect x="2169" y="1117" width="311" height="311"/></clipPath><clipPath id="clip10"><rect x="2574" y="1276" width="311" height="311"/></clipPath><clipPath id="clip11"><rect x="2574" y="1276" width="311" height="311"/></clipPath><clipPath id="clip12"><rect x="2574" y="1276" width="311" height="311"/></clipPath><clipPath id="clip13"><rect x="2444" y="668" width="312" height="311"/></clipPath><clipPath id="clip14"><rect x="2444" y="668" width="312" height="311"/></clipPath><clipPath id="clip15"><rect x="2444" y="668" width="312" height="311"/></clipPath></defs><g clip-path="url(#clip0)" transform="translate(-1353 -669)"><path d="M1617.5 844.5 3178.12 844.5" stroke="#C9C9C9" stroke-width="20.625" stroke-miterlimit="8" fill="none" fill-rule="evenodd"/><path d="M1575.5 969.5 3136.41 969.5" stroke="#C9C9C9" stroke-width="20.625" stroke-miterlimit="8" fill="none" fill-rule="evenodd"/><path d="M1525.5 1108.5 3086.41 1108.5" stroke="#C9C9C9" stroke-width="20.625" stroke-miterlimit="8" fill="none" fill-rule="evenodd"/><path d="M1465.5 1265.5 3026.41 1265.5" stroke="#C9C9C9" stroke-width="20.625" stroke-miterlimit="8" fill="none" fill-rule="evenodd"/><path d="M1413.5 1412.5 2974.41 1412.5" stroke="#C9C9C9" stroke-width="20.625" stroke-miterlimit="8" fill="none" fill-rule="evenodd"/><path d="M1353.5 1584.5 2914.41 1584.5" stroke="#C9C9C9" stroke-width="20.625" stroke-miterlimit="8" fill="none" fill-rule="evenodd"/><g clip-path="url(#clip1)"><g clip-path="url(#clip2)"><g clip-path="url(#clip3)"><path d="M1857.77 1010.03 1857.77 1010.23 1897.06 1020.22 1897.06 1057.73C1897.06 1065.59 1903.89 1071.97 1911.74 1071.97 1919.61 1071.97 1926.52 1065.59 1926.52 1057.73L1926.52 998.317 1872.04 984.098 1857.77 1010.03Z" fill="#FC9804"/><path d="M1948.43 887.219 1906.18 859.123 1894.96 848.181 1891.75 840.875C1890.3 837.564 1888.41 837.724 1887.55 841.238L1882.53 861.563 1820.15 926.557 1697.95 926.557 1681.22 926.557C1681.22 926.557 1645 926.01 1645 960.954L1645 1014.94 1667.91 1014.94C1667.91 1014.94 1667.91 968.505 1667.91 961.469 1667.91 955.072 1672.31 945.491 1680.63 943.799L1681.84 1008.39 1700.65 1031.48 1700.65 1031.65 1681.43 1063.61C1677.38 1070.29 1679.38 1078.93 1685.82 1082.84 1692.27 1086.74 1700.88 1084.55 1704.92 1077.87L1735.5 1027.4 1717.24 1008.39 1824.08 1008.39 1827.93 1043.65 1827.93 1043.65 1801.66 1055.67 1789.49 1018.02 1768.14 1012.12 1731.36 1012.09 1766.12 1036.81 1766.12 1036.81 1776.91 1072.81C1778.69 1078.9 1784.33 1082.83 1790.35 1083 1788.83 1081.69 1787.68 1080.07 1786.79 1078.13 1787.68 1080.06 1788.97 1081.69 1790.48 1083 1794.58 1086.52 1800.49 1087.62 1805.7 1085.24L1859.73 1060.53 1854.5 1008.95 1904.17 908.442 1938.47 914.969C1944.47 916.085 1950.87 913.339 1954.05 907.663 1958.15 900.5 1955.56 891.298 1948.43 887.219Z" fill="#FC9804"/></g></g></g><g clip-path="url(#clip4)"><g clip-path="url(#clip5)"><g clip-path="url(#clip6)"><path d="M2258.09 1166.38 2258.09 1166.58 2297.25 1176.54 2297.25 1213.92C2297.25 1221.76 2304.05 1228.12 2311.88 1228.12 2319.72 1228.12 2326.61 1221.76 2326.61 1213.92L2326.61 1154.7 2272.31 1140.53 2258.09 1166.38Z" fill="#FC9804"/><path d="M2348.46 1043.96 2306.34 1015.96 2295.16 1005.05 2291.96 997.766C2290.51 994.466 2288.63 994.625 2287.77 998.127L2282.77 1018.39 2220.58 1083.17 2098.78 1083.17 2082.11 1083.17C2082.11 1083.17 2046 1082.63 2046 1117.46L2046 1171.27 2068.84 1171.27C2068.84 1171.27 2068.84 1124.99 2068.84 1117.97 2068.84 1111.6 2073.22 1102.05 2081.52 1100.36L2082.72 1164.75 2101.47 1187.76 2101.47 1187.93 2082.32 1219.79C2078.28 1226.45 2080.27 1235.06 2086.69 1238.95 2093.12 1242.84 2101.7 1240.66 2105.73 1233.99L2136.21 1183.69 2118.01 1164.75 2224.51 1164.75 2228.34 1199.89 2228.34 1199.89 2202.16 1211.87 2190.03 1174.34 2168.75 1168.46 2132.09 1168.43 2166.73 1193.07 2166.73 1193.07 2177.49 1228.96C2179.26 1235.03 2184.88 1238.95 2190.88 1239.11 2189.36 1237.81 2188.22 1236.19 2187.33 1234.26 2188.22 1236.19 2189.5 1237.81 2191.02 1239.11 2195.1 1242.62 2200.99 1243.72 2206.18 1241.34L2260.03 1216.71 2254.83 1165.3 2304.34 1065.12 2338.52 1071.62C2344.51 1072.73 2350.89 1070 2354.06 1064.34 2358.14 1057.2 2355.56 1048.03 2348.46 1043.96Z" fill="#FC9804"/></g></g></g><g clip-path="url(#clip7)"><g clip-path="url(#clip8)"><g clip-path="url(#clip9)"><path d="M2381.09 1320.38 2381.09 1320.58 2420.25 1330.54 2420.25 1367.92C2420.25 1375.76 2427.05 1382.12 2434.88 1382.12 2442.72 1382.12 2449.61 1375.76 2449.61 1367.92L2449.61 1308.7 2395.31 1294.53 2381.09 1320.38Z" fill="#FC9804"/><path d="M2471.46 1197.96 2429.34 1169.96 2418.16 1159.05 2414.96 1151.77C2413.51 1148.47 2411.63 1148.63 2410.77 1152.13L2405.77 1172.39 2343.58 1237.17 2221.78 1237.17 2205.11 1237.17C2205.11 1237.17 2169 1236.63 2169 1271.46L2169 1325.27 2191.84 1325.27C2191.84 1325.27 2191.84 1278.99 2191.84 1271.97 2191.84 1265.6 2196.22 1256.05 2204.52 1254.36L2205.72 1318.75 2224.47 1341.76 2224.47 1341.93 2205.32 1373.79C2201.28 1380.45 2203.27 1389.06 2209.69 1392.95 2216.12 1396.84 2224.7 1394.66 2228.73 1387.99L2259.21 1337.69 2241.01 1318.75 2347.51 1318.75 2351.34 1353.89 2351.34 1353.89 2325.16 1365.87 2313.03 1328.34 2291.75 1322.46 2255.09 1322.43 2289.73 1347.07 2289.73 1347.07 2300.49 1382.96C2302.26 1389.03 2307.88 1392.95 2313.88 1393.11 2312.36 1391.81 2311.22 1390.19 2310.33 1388.26 2311.22 1390.19 2312.5 1391.81 2314.02 1393.11 2318.1 1396.62 2323.99 1397.72 2329.18 1395.34L2383.03 1370.71 2377.83 1319.3 2427.34 1219.12 2461.52 1225.62C2467.51 1226.73 2473.89 1224 2477.06 1218.34 2481.14 1211.2 2478.56 1202.03 2471.46 1197.96Z" fill="#FC9804"/></g></g></g><g clip-path="url(#clip10)"><g clip-path="url(#clip11)"><g clip-path="url(#clip12)"><path d="M2786.09 1478.38 2786.09 1478.58 2825.25 1488.54 2825.25 1525.92C2825.25 1533.76 2832.05 1540.12 2839.88 1540.12 2847.72 1540.12 2854.61 1533.76 2854.61 1525.92L2854.61 1466.7 2800.31 1452.53 2786.09 1478.38Z" fill="#FC9804"/><path d="M2876.46 1355.96 2834.34 1327.96 2823.16 1317.05 2819.96 1309.77C2818.51 1306.47 2816.63 1306.63 2815.77 1310.13L2810.77 1330.39 2748.58 1395.17 2626.78 1395.17 2610.11 1395.17C2610.11 1395.17 2574 1394.63 2574 1429.46L2574 1483.27 2596.84 1483.27C2596.84 1483.27 2596.84 1436.99 2596.84 1429.97 2596.84 1423.6 2601.22 1414.05 2609.52 1412.36L2610.72 1476.75 2629.47 1499.76 2629.47 1499.93 2610.32 1531.79C2606.28 1538.45 2608.27 1547.06 2614.69 1550.95 2621.12 1554.84 2629.7 1552.66 2633.73 1545.99L2664.21 1495.69 2646.01 1476.75 2752.51 1476.75 2756.34 1511.89 2756.34 1511.89 2730.16 1523.87 2718.03 1486.34 2696.75 1480.46 2660.09 1480.43 2694.73 1505.07 2694.73 1505.07 2705.49 1540.96C2707.26 1547.03 2712.88 1550.95 2718.88 1551.11 2717.36 1549.81 2716.22 1548.19 2715.33 1546.26 2716.22 1548.19 2717.5 1549.81 2719.02 1551.11 2723.1 1554.62 2728.99 1555.72 2734.18 1553.34L2788.03 1528.71 2782.83 1477.3 2832.34 1377.12 2866.52 1383.62C2872.51 1384.73 2878.89 1382 2882.06 1376.34 2886.14 1369.2 2883.56 1360.03 2876.46 1355.96Z" fill="#FC9804"/></g></g></g><g clip-path="url(#clip13)"><g clip-path="url(#clip14)"><g clip-path="url(#clip15)"><path d="M212.091 202.377 212.091 202.581 251.246 212.535 251.246 249.919C251.246 257.758 258.053 264.121 265.885 264.118 273.723 264.118 280.612 257.758 280.612 249.919L280.612 190.702 226.309 176.528 212.091 202.377Z" fill="#FC9804" transform="matrix(1.00323 0 0 1 2444 669)"/><path d="M302.459 79.9613 260.34 51.9553 249.156 41.0483 245.957 33.7657C244.51 30.4659 242.63 30.6254 241.77 34.1274L236.767 54.3871 174.583 119.172 52.7839 119.172 36.1075 119.172C36.1075 119.172 0 118.627 0 153.459L0 207.272 22.8404 207.272C22.8404 207.272 22.8404 160.986 22.8404 153.972 22.8404 147.596 27.2216 138.046 35.5161 136.359L36.7205 200.746 55.4696 223.759 55.4696 223.931 36.3156 255.79C32.2799 262.447 34.267 271.059 40.6925 274.95 47.1196 278.84 55.6977 276.661 59.7317 269.995L90.2132 219.687 72.0085 200.747 178.508 200.747 182.341 235.893 182.345 235.893 156.16 247.875 144.029 210.338 122.745 204.456 86.0854 204.433 120.729 229.074 120.729 229.074 131.489 264.96C133.257 271.027 138.88 274.947 144.88 275.109 143.364 273.806 142.218 272.193 141.333 270.262 142.218 272.187 143.503 273.806 145.017 275.109 149.099 278.624 154.986 279.72 160.183 277.343L214.035 252.715 208.828 201.298 258.336 101.115 292.524 107.622C298.508 108.734 304.887 105.997 308.057 100.34 312.14 93.1993 309.559 84.0271 302.459 79.9613Z" fill="#FC9804" transform="matrix(1.00323 0 0 1 2444 669)"/></g></g></g></g></svg>