<svg width="3704" height="1333" xmlns="http://www.w3.org/2000/svg" xmlns:xlink="http://www.w3.org/1999/xlink" overflow="hidden"><defs><clipPath id="clip0"><rect x="169" y="589" width="3704" height="1333"/></clipPath><clipPath id="clip1"><rect x="848" y="588" width="311" height="312"/></clipPath><clipPath id="clip2"><rect x="848" y="588" width="311" height="312"/></clipPath><clipPath id="clip3"><rect x="848" y="588" width="311" height="312"/></clipPath><clipPath id="clip4"><rect x="971" y="817" width="311" height="311"/></clipPath><clipPath id="clip5"><rect x="971" y="817" width="311" height="311"/></clipPath><clipPath id="clip6"><rect x="971" y="817" width="311" height="311"/></clipPath><clipPath id="clip7"><rect x="1062" y="1050" width="311" height="311"/></clipPath><clipPath id="clip8"><rect x="1062" y="1050" width="311" height="311"/></clipPath><clipPath id="clip9"><rect x="1062" y="1050" width="311" height="311"/></clipPath><clipPath id="clip10"><rect x="1185" y="1289" width="311" height="311"/></clipPath><clipPath id="clip11"><rect x="1185" y="1289" width="311" height="311"/></clipPath><clipPath id="clip12"><rect x="1185" y="1289" width="311" height="311"/></clipPath><clipPath id="clip13"><rect x="1281" y="1525" width="310" height="312"/></clipPath><clipPath id="clip14"><rect x="1281" y="1525" width="310" height="312"/></clipPath><clipPath id="clip15"><rect x="1281" y="1525" width="310" height="312"/></clipPath><clipPath id="clip16"><rect x="2347" y="786" width="310" height="311"/></clipPath><clipPath id="clip17"><rect x="2347" y="786" width="310" height="311"/></clipPath><clipPath id="clip18"><rect x="2347" y="786" width="310" height="311"/></clipPath><clipPath id="clip19"><rect x="2629" y="1062" width="311" height="311"/></clipPath><clipPath id="clip20"><rect x="2629" y="1062" width="311" height="311"/></clipPath><clipPath id="clip21"><rect x="2629" y="1062" width="311" height="311"/></clipPath><clipPath id="clip22"><rect x="2604" y="1360" width="311" height="311"/></clipPath><clipPath id="clip23"><rect x="2604" y="1360" width="311" height="311"/></clipPath><clipPath id="clip24"><rect x="2604" y="1360" width="311" height="311"/></clipPath><clipPath id="clip25"><rect x="3003" y="899" width="367" height="313"/></clipPath><clipPath id="clip26"><rect x="3003" y="899" width="367" height="313"/></clipPath><clipPath id="clip27"><rect x="3003" y="899" width="367" height="313"/></clipPath><clipPath id="clip28"><rect x="3259" y="1160" width="366" height="311"/></clipPath><clipPath id="clip29"><rect x="3259" y="1160" width="366" height="311"/></clipPath><clipPath id="clip30"><rect x="3259" y="1160" width="366" height="311"/></clipPath></defs><g clip-path="url(#clip0)" transform="translate(-169 -589)"><path d="M848.5 677.5 1838.5 677.5" stroke="#C9C9C9" stroke-width="20.625" stroke-miterlimit="8" fill="none" fill-rule="evenodd"/><path d="M931.5 906.5 1921.5 911.756" stroke="#C9C9C9" stroke-width="20.625" stroke-miterlimit="8" fill="none" fill-rule="evenodd"/><path d="M994.5 1137.5 1984.5 1137.5" stroke="#C9C9C9" stroke-width="20.625" stroke-miterlimit="8" fill="none" fill-rule="evenodd"/><path d="M1097.5 1363.5 2087.5 1366.31" stroke="#C9C9C9" stroke-width="20.625" stroke-miterlimit="8" fill="none" fill-rule="evenodd"/><path d="M1274.5 1595.5 2264.5 1599.02" stroke="#C9C9C9" stroke-width="20.625" stroke-miterlimit="8" fill="none" fill-rule="evenodd"/><path d="M1408.5 1837.5 2398.5 1837.5" stroke="#C9C9C9" stroke-width="20.625" stroke-miterlimit="8" fill="none" fill-rule="evenodd"/><g clip-path="url(#clip1)"><g clip-path="url(#clip2)"><g clip-path="url(#clip3)"><path d="M212.091 202.377 212.091 202.581 251.246 212.535 251.246 249.919C251.246 257.758 258.053 264.121 265.885 264.118 273.723 264.118 280.612 257.758 280.612 249.919L280.612 190.702 226.309 176.528 212.091 202.377Z" fill="#00B0F0" transform="matrix(1 0 0 1.00323 848 589)"/><path d="M302.459 79.9613 260.34 51.9553 249.156 41.0483 245.957 33.7657C244.51 30.4659 242.63 30.6254 241.77 34.1274L236.767 54.3871 174.583 119.172 52.7839 119.172 36.1075 119.172C36.1075 119.172 0 118.627 0 153.459L0 207.272 22.8404 207.272C22.8404 207.272 22.8404 160.986 22.8404 153.972 22.8404 147.596 27.2216 138.046 35.5161 136.359L36.7205 200.746 55.4696 223.759 55.4696 223.931 36.3156 255.79C32.2799 262.447 34.267 271.059 40.6925 274.95 47.1196 278.84 55.6977 276.661 59.7317 269.995L90.2132 219.687 72.0085 200.747 178.508 200.747 182.341 235.893 182.345 235.893 156.16 247.875 144.029 210.338 122.745 204.456 86.0854 204.433 120.729 229.074 120.729 229.074 131.489 264.96C133.257 271.027 138.88 274.947 144.88 275.109 143.364 273.806 142.218 272.193 141.333 270.262 142.218 272.187 143.503 273.806 145.017 275.109 149.099 278.624 154.986 279.72 160.183 277.343L214.035 252.715 208.828 201.298 258.336 101.115 292.524 107.622C298.508 108.734 304.887 105.997 308.057 100.34 312.14 93.1993 309.559 84.0271 302.459 79.9613Z" fill="#00B0F0" transform="matrix(1 0 0 1.00323 848 589)"/></g></g></g><g clip-path="url(#clip4)"><g clip-path="url(#clip5)"><g clip-path="url(#clip6)"><path d="M1183.09 1019.38 1183.09 1019.58 1222.25 1029.54 1222.25 1066.92C1222.25 1074.76 1229.05 1081.12 1236.89 1081.12 1244.72 1081.12 1251.61 1074.76 1251.61 1066.92L1251.61 1007.7 1197.31 993.528 1183.09 1019.38Z" fill="#0070C0"/><path d="M1273.46 896.961 1231.34 868.955 1220.16 858.048 1216.96 850.766C1215.51 847.466 1213.63 847.626 1212.77 851.128L1207.77 871.387 1145.58 936.172 1023.78 936.172 1007.11 936.172C1007.11 936.172 971 935.627 971 970.459L971 1024.27 993.841 1024.27C993.841 1024.27 993.841 977.986 993.841 970.972 993.841 964.596 998.222 955.046 1006.52 953.359L1007.72 1017.75 1026.47 1040.76 1026.47 1040.93 1007.32 1072.79C1003.28 1079.45 1005.27 1088.06 1011.69 1091.95 1018.12 1095.84 1026.7 1093.66 1030.73 1086.99L1061.21 1036.69 1043.01 1017.75 1149.51 1017.75 1153.34 1052.89 1153.34 1052.89 1127.16 1064.87 1115.03 1027.34 1093.75 1021.46 1057.09 1021.43 1091.73 1046.07 1091.73 1046.07 1102.49 1081.96C1104.26 1088.03 1109.88 1091.95 1115.88 1092.11 1114.36 1090.81 1113.22 1089.19 1112.33 1087.26 1113.22 1089.19 1114.5 1090.81 1116.02 1092.11 1120.1 1095.62 1125.99 1096.72 1131.18 1094.34L1185.03 1069.71 1179.83 1018.3 1229.34 918.115 1263.52 924.622C1269.51 925.734 1275.89 922.997 1279.06 917.34 1283.14 910.199 1280.56 901.027 1273.46 896.961Z" fill="#0070C0"/></g></g></g><g clip-path="url(#clip7)"><g clip-path="url(#clip8)"><g clip-path="url(#clip9)"><path d="M1275.09 1253.38 1275.09 1253.58 1314.25 1263.54 1314.25 1300.92C1314.25 1308.76 1321.05 1315.12 1328.88 1315.12 1336.72 1315.12 1343.61 1308.76 1343.61 1300.92L1343.61 1241.7 1289.31 1227.53 1275.09 1253.38Z" fill="#0070C0"/><path d="M1365.46 1130.96 1323.34 1102.96 1312.16 1092.05 1308.96 1084.77C1307.51 1081.47 1305.63 1081.63 1304.77 1085.13L1299.77 1105.39 1237.58 1170.17 1115.78 1170.17 1099.11 1170.17C1099.11 1170.17 1063 1169.63 1063 1204.46L1063 1258.27 1085.84 1258.27C1085.84 1258.27 1085.84 1211.99 1085.84 1204.97 1085.84 1198.6 1090.22 1189.05 1098.52 1187.36L1099.72 1251.75 1118.47 1274.76 1118.47 1274.93 1099.32 1306.79C1095.28 1313.45 1097.27 1322.06 1103.69 1325.95 1110.12 1329.84 1118.7 1327.66 1122.73 1320.99L1153.21 1270.69 1135.01 1251.75 1241.51 1251.75 1245.34 1286.89 1245.34 1286.89 1219.16 1298.87 1207.03 1261.34 1185.75 1255.46 1149.09 1255.43 1183.73 1280.07 1183.73 1280.07 1194.49 1315.96C1196.26 1322.03 1201.88 1325.95 1207.88 1326.11 1206.36 1324.81 1205.22 1323.19 1204.33 1321.26 1205.22 1323.19 1206.5 1324.81 1208.02 1326.11 1212.1 1329.62 1217.99 1330.72 1223.18 1328.34L1277.03 1303.71 1271.83 1252.3 1321.34 1152.12 1355.52 1158.62C1361.51 1159.73 1367.89 1157 1371.06 1151.34 1375.14 1144.2 1372.56 1135.03 1365.46 1130.96Z" fill="#0070C0"/></g></g></g><g clip-path="url(#clip10)"><g clip-path="url(#clip11)"><g clip-path="url(#clip12)"><path d="M1398.09 1491.38 1398.09 1491.58 1437.25 1501.54 1437.25 1538.92C1437.25 1546.76 1444.05 1553.12 1451.88 1553.12 1459.72 1553.12 1466.61 1546.76 1466.61 1538.92L1466.61 1479.7 1412.31 1465.53 1398.09 1491.38Z" fill="#002060"/><path d="M1488.46 1368.96 1446.34 1340.96 1435.16 1330.05 1431.96 1322.77C1430.51 1319.47 1428.63 1319.63 1427.77 1323.13L1422.77 1343.39 1360.58 1408.17 1238.78 1408.17 1222.11 1408.17C1222.11 1408.17 1186 1407.63 1186 1442.46L1186 1496.27 1208.84 1496.27C1208.84 1496.27 1208.84 1449.99 1208.84 1442.97 1208.84 1436.6 1213.22 1427.05 1221.52 1425.36L1222.72 1489.75 1241.47 1512.76 1241.47 1512.93 1222.32 1544.79C1218.28 1551.45 1220.27 1560.06 1226.69 1563.95 1233.12 1567.84 1241.7 1565.66 1245.73 1558.99L1276.21 1508.69 1258.01 1489.75 1364.51 1489.75 1368.34 1524.89 1368.34 1524.89 1342.16 1536.87 1330.03 1499.34 1308.75 1493.46 1272.09 1493.43 1306.73 1518.07 1306.73 1518.07 1317.49 1553.96C1319.26 1560.03 1324.88 1563.95 1330.88 1564.11 1329.36 1562.81 1328.22 1561.19 1327.33 1559.26 1328.22 1561.19 1329.5 1562.81 1331.02 1564.11 1335.1 1567.62 1340.99 1568.72 1346.18 1566.34L1400.03 1541.71 1394.83 1490.3 1444.34 1390.12 1478.52 1396.62C1484.51 1397.73 1490.89 1395 1494.06 1389.34 1498.14 1382.2 1495.56 1373.03 1488.46 1368.96Z" fill="#002060"/></g></g></g><g clip-path="url(#clip13)"><g clip-path="url(#clip14)"><g clip-path="url(#clip15)"><path d="M212.09 202.377 212.09 202.581 251.246 212.535 251.246 249.919C251.246 257.758 258.053 264.121 265.885 264.118 273.723 264.118 280.612 257.758 280.612 249.919L280.612 190.701 226.309 176.528 212.09 202.377Z" fill="#002060" transform="matrix(1 0 0 1.00323 1281 1526)"/><path d="M302.459 79.9612 260.34 51.9552 249.156 41.0483 245.956 33.7656C244.509 30.4658 242.63 30.6254 241.769 34.1274L236.766 54.3871 174.583 119.172 52.7838 119.172 36.1075 119.172C36.1075 119.172 0 118.627 0 153.459L0 207.271 22.8403 207.271C22.8403 207.271 22.8403 160.985 22.8403 153.972 22.8403 147.596 27.2216 138.046 35.5161 136.359L36.7204 200.746 55.4696 223.759 55.4696 223.931 36.3155 255.789C32.2799 262.446 34.267 271.059 40.6925 274.949 47.1195 278.84 55.6976 276.66 59.7316 269.995L90.2131 219.687 72.0084 200.746 178.508 200.746 182.341 235.893 182.344 235.893 156.16 247.874 144.029 210.338 122.745 204.456 86.0853 204.433 120.729 229.074 120.729 229.074 131.489 264.96C133.257 271.027 138.88 274.946 144.88 275.108 143.363 273.805 142.218 272.193 141.333 270.262 142.217 272.187 143.503 273.805 145.017 275.108 149.098 278.623 154.986 279.72 160.183 277.343L214.034 252.714 208.828 201.298 258.336 101.115 292.523 107.622C298.508 108.734 304.887 105.997 308.057 100.339 312.139 93.1992 309.558 84.027 302.459 79.9612Z" fill="#002060" transform="matrix(1 0 0 1.00323 1281 1526)"/></g></g></g><text font-family="Teko,Teko_MSFontService,sans-serif" font-weight="700" font-size="202" transform="matrix(1 0 0 1 3626.32 1144)">1<tspan font-size="134" x="65.3125" y="-60">st</tspan><tspan font-size="202" x="-296.782" y="-297">2</tspan><tspan font-size="134" x="-202.251" y="-357">nd</tspan></text><g clip-path="url(#clip16)"><g clip-path="url(#clip17)"><g clip-path="url(#clip18)"><path d="M212.09 202.377 212.09 202.581 251.246 212.535 251.246 249.919C251.246 257.758 258.053 264.121 265.885 264.118 273.723 264.118 280.612 257.758 280.612 249.919L280.612 190.701 226.309 176.528 212.09 202.377Z" fill="#FFC000" transform="matrix(1 0 0 1.00323 2347 786)"/><path d="M302.459 79.9612 260.34 51.9552 249.156 41.0483 245.956 33.7656C244.509 30.4658 242.63 30.6254 241.769 34.1274L236.766 54.3871 174.583 119.172 52.7838 119.172 36.1075 119.172C36.1075 119.172 0 118.627 0 153.459L0 207.271 22.8403 207.271C22.8403 207.271 22.8403 160.985 22.8403 153.972 22.8403 147.596 27.2216 138.046 35.5161 136.359L36.7204 200.746 55.4696 223.759 55.4696 223.931 36.3155 255.789C32.2799 262.446 34.267 271.059 40.6925 274.949 47.1195 278.84 55.6976 276.66 59.7316 269.995L90.2131 219.687 72.0084 200.746 178.508 200.746 182.341 235.893 182.344 235.893 156.16 247.874 144.029 210.338 122.745 204.456 86.0853 204.433 120.729 229.074 120.729 229.074 131.489 264.96C133.257 271.027 138.88 274.946 144.88 275.108 143.363 273.805 142.218 272.193 141.333 270.262 142.217 272.187 143.503 273.805 145.017 275.108 149.098 278.623 154.986 279.72 160.183 277.343L214.034 252.714 208.828 201.298 258.336 101.115 292.523 107.622C298.508 108.734 304.887 105.997 308.057 100.339 312.139 93.1992 309.558 84.027 302.459 79.9612Z" fill="#FFC000" transform="matrix(1 0 0 1.00323 2347 786)"/></g></g></g><g clip-path="url(#clip19)"><g clip-path="url(#clip20)"><g clip-path="url(#clip21)"><path d="M2841.09 1265.38 2841.09 1265.58 2880.25 1275.54 2880.25 1312.92C2880.25 1320.76 2887.05 1327.12 2894.88 1327.12 2902.72 1327.12 2909.61 1320.76 2909.61 1312.92L2909.61 1253.7 2855.31 1239.53 2841.09 1265.38Z" fill="#FFC000"/><path d="M2931.46 1142.96 2889.34 1114.96 2878.16 1104.05 2874.96 1096.77C2873.51 1093.47 2871.63 1093.63 2870.77 1097.13L2865.77 1117.39 2803.58 1182.17 2681.78 1182.17 2665.11 1182.17C2665.11 1182.17 2629 1181.63 2629 1216.46L2629 1270.27 2651.84 1270.27C2651.84 1270.27 2651.84 1223.99 2651.84 1216.97 2651.84 1210.6 2656.22 1201.05 2664.52 1199.36L2665.72 1263.75 2684.47 1286.76 2684.47 1286.93 2665.32 1318.79C2661.28 1325.45 2663.27 1334.06 2669.69 1337.95 2676.12 1341.84 2684.7 1339.66 2688.73 1332.99L2719.21 1282.69 2701.01 1263.75 2807.51 1263.75 2811.34 1298.89 2811.34 1298.89 2785.16 1310.87 2773.03 1273.34 2751.75 1267.46 2715.09 1267.43 2749.73 1292.07 2749.73 1292.07 2760.49 1327.96C2762.26 1334.03 2767.88 1337.95 2773.88 1338.11 2772.36 1336.81 2771.22 1335.19 2770.33 1333.26 2771.22 1335.19 2772.5 1336.81 2774.02 1338.11 2778.1 1341.62 2783.99 1342.72 2789.18 1340.34L2843.03 1315.71 2837.83 1264.3 2887.34 1164.12 2921.52 1170.62C2927.51 1171.73 2933.89 1169 2937.06 1163.34 2941.14 1156.2 2938.56 1147.03 2931.46 1142.96Z" fill="#FFC000"/></g></g></g><g clip-path="url(#clip22)"><g clip-path="url(#clip23)"><g clip-path="url(#clip24)"><path d="M2817.09 1563.38 2817.09 1563.58 2856.25 1573.54 2856.25 1610.92C2856.25 1618.76 2863.05 1625.12 2870.88 1625.12 2878.72 1625.12 2885.61 1618.76 2885.61 1610.92L2885.61 1551.7 2831.31 1537.53 2817.09 1563.38Z" fill="#FFC000"/><path d="M2907.46 1440.96 2865.34 1412.96 2854.16 1402.05 2850.96 1394.77C2849.51 1391.47 2847.63 1391.63 2846.77 1395.13L2841.77 1415.39 2779.58 1480.17 2657.78 1480.17 2641.11 1480.17C2641.11 1480.17 2605 1479.63 2605 1514.46L2605 1568.27 2627.84 1568.27C2627.84 1568.27 2627.84 1521.99 2627.84 1514.97 2627.84 1508.6 2632.22 1499.05 2640.52 1497.36L2641.72 1561.75 2660.47 1584.76 2660.47 1584.93 2641.32 1616.79C2637.28 1623.45 2639.27 1632.06 2645.69 1635.95 2652.12 1639.84 2660.7 1637.66 2664.73 1630.99L2695.21 1580.69 2677.01 1561.75 2783.51 1561.75 2787.34 1596.89 2787.34 1596.89 2761.16 1608.87 2749.03 1571.34 2727.75 1565.46 2691.09 1565.43 2725.73 1590.07 2725.73 1590.07 2736.49 1625.96C2738.26 1632.03 2743.88 1635.95 2749.88 1636.11 2748.36 1634.81 2747.22 1633.19 2746.33 1631.26 2747.22 1633.19 2748.5 1634.81 2750.02 1636.11 2754.1 1639.62 2759.99 1640.72 2765.18 1638.34L2819.03 1613.71 2813.83 1562.3 2863.34 1462.12 2897.52 1468.62C2903.51 1469.73 2909.89 1467 2913.06 1461.34 2917.14 1454.2 2914.56 1445.03 2907.46 1440.96Z" fill="#FFC000"/></g></g></g><g clip-path="url(#clip25)"><g clip-path="url(#clip26)"><g clip-path="url(#clip27)"><path d="M298.366 86.9828 268.845 67.3024 298.852 0.242969 256.332 55.1539 258.519 35.7164 174.452 122.578 172.508 124.643 141.043 124.643 98.8883 124.643 49.2012 124.643 33.2867 124.643C16.0359 124.643 2.18672 138.614 2.18672 155.743L2.18672 207.374 24.2969 207.374 24.2969 156.35 35.7164 138.735 35.7164 200.085 24.1754 218.186 24.1754 296.3C24.1754 303.954 30.6141 310.271 38.2676 310.271 46.0426 310.271 52.2383 303.954 52.2383 296.3L52.2383 228.634 65.966 206.888 65.966 230.091 96.9446 302.982C100.832 309.664 109.336 312.093 116.139 308.206 122.821 304.44 125.25 295.936 121.363 289.133L94.8793 225.961 107.514 204.458 178.218 204.458 178.218 296.422C178.218 304.075 184.535 310.393 192.188 310.393 199.963 310.393 206.281 304.075 206.281 296.422L206.281 206.523 254.996 107.757 277.349 112.009C277.349 112.13 277.349 112.13 277.227 112.252L285.002 113.709C285.002 113.709 285.002 113.588 285.002 113.588L288.404 114.195C294.357 115.289 300.552 112.616 303.711 107.028 307.841 99.9817 305.29 90.9918 298.366 86.9828ZM255.482 80.0582C253.052 80.0582 251.108 78.1145 251.108 75.6848 251.108 73.2551 253.052 71.3113 255.482 71.3113 257.911 71.3113 259.855 73.2551 259.855 75.6848 259.855 78.1145 257.911 80.0582 255.482 80.0582Z" fill="#A56DBB" transform="matrix(1.17685 0 0 1 3003 900)"/></g></g></g><g clip-path="url(#clip28)"><g clip-path="url(#clip29)"><g clip-path="url(#clip30)"><path d="M297.406 86.7031 267.981 67.086 297.891 0.242188 255.508 54.9766 257.688 35.6016 173.891 122.184 171.953 124.242 140.59 124.242 98.5703 124.242 49.043 124.242 33.1797 124.242C15.9844 124.242 2.17969 138.168 2.17969 155.242L2.17969 206.707 24.2188 206.707 24.2188 155.848 35.6016 138.289 35.6016 199.441 24.0977 217.484 24.0977 295.348C24.0977 302.977 30.5156 309.273 38.1445 309.273 45.8945 309.273 52.0703 302.977 52.0703 295.348L52.0703 227.898 65.7539 206.223 65.7539 229.352 96.6328 302.008C100.508 308.668 108.984 311.09 115.766 307.215 122.426 303.461 124.848 294.984 120.973 288.203L94.5742 225.234 107.168 203.801 177.645 203.801 177.645 295.469C177.645 303.098 183.941 309.395 191.57 309.395 199.32 309.395 205.617 303.098 205.617 295.469L205.617 205.859 254.176 107.41 276.457 111.648C276.457 111.77 276.457 111.77 276.336 111.891L284.086 113.344C284.086 113.344 284.086 113.223 284.086 113.223L287.477 113.828C293.41 114.918 299.586 112.254 302.734 106.684 306.852 99.6602 304.309 90.6992 297.406 86.7031ZM254.66 79.8008C252.238 79.8008 250.301 77.8633 250.301 75.4414 250.301 73.0195 252.238 71.082 254.66 71.082 257.082 71.082 259.02 73.0195 259.02 75.4414 259.02 77.8633 257.082 79.8008 254.66 79.8008Z" fill="#A56DBB" transform="matrix(1.18064 0 0 1 3259 1161)"/></g></g></g><text font-family="Teko,Teko_MSFontService,sans-serif" font-weight="700" font-size="165" transform="matrix(1 0 0 1 591.143 1535)">Group B<tspan font-size="165" x="107.598" y="222">Group C</tspan></text><path d="M2086 1216.75 2303.88 1216.75 2303.88 1196 2418 1237.5 2303.88 1279 2303.88 1258.25 2086 1258.25Z" fill="#C00000" fill-rule="evenodd"/><text font-family="Teko,Teko_MSFontService,sans-serif" font-weight="700" font-size="165" transform="matrix(1 0 0 1 472.928 1299)">Group B<tspan font-size="165" x="-93.0698" y="-245">Group A</tspan><tspan font-size="165" x="-204.295" y="-474">Group A</tspan></text></g></svg>