<svg width="2235" height="2234" xmlns="http://www.w3.org/2000/svg" xmlns:xlink="http://www.w3.org/1999/xlink" overflow="hidden"><defs><clipPath id="clip0"><rect x="1056" y="156" width="2235" height="2234"/></clipPath><clipPath id="clip1"><rect x="1472" y="797" width="175" height="188"/></clipPath><clipPath id="clip2"><rect x="1472" y="797" width="175" height="188"/></clipPath><clipPath id="clip3"><rect x="1472" y="797" width="175" height="188"/></clipPath><clipPath id="clip4"><rect x="1791" y="603" width="175" height="189"/></clipPath><clipPath id="clip5"><rect x="1791" y="603" width="175" height="189"/></clipPath><clipPath id="clip6"><rect x="1791" y="603" width="175" height="189"/></clipPath><clipPath id="clip7"><rect x="2060" y="603" width="175" height="189"/></clipPath><clipPath id="clip8"><rect x="2060" y="603" width="175" height="189"/></clipPath><clipPath id="clip9"><rect x="2060" y="603" width="175" height="189"/></clipPath><clipPath id="clip10"><rect x="2337" y="603" width="176" height="189"/></clipPath><clipPath id="clip11"><rect x="2337" y="603" width="176" height="189"/></clipPath><clipPath id="clip12"><rect x="2337" y="603" width="176" height="189"/></clipPath><clipPath id="clip13"><rect x="1419" y="1029" width="174" height="190"/></clipPath><clipPath id="clip14"><rect x="1419" y="1029" width="174" height="190"/></clipPath><clipPath id="clip15"><rect x="1419" y="1029" width="174" height="190"/></clipPath><clipPath id="clip16"><rect x="1419" y="1256" width="174" height="190"/></clipPath><clipPath id="clip17"><rect x="1419" y="1256" width="174" height="190"/></clipPath><clipPath id="clip18"><rect x="1419" y="1256" width="174" height="190"/></clipPath><clipPath id="clip19"><rect x="1472" y="1483" width="175" height="189"/></clipPath><clipPath id="clip20"><rect x="1472" y="1483" width="175" height="189"/></clipPath><clipPath id="clip21"><rect x="1472" y="1483" width="175" height="189"/></clipPath><clipPath id="clip22"><rect x="1791" y="1668" width="175" height="189"/></clipPath><clipPath id="clip23"><rect x="1791" y="1668" width="175" height="189"/></clipPath><clipPath id="clip24"><rect x="1791" y="1668" width="175" height="189"/></clipPath><clipPath id="clip25"><rect x="2060" y="1668" width="175" height="189"/></clipPath><clipPath id="clip26"><rect x="2060" y="1668" width="175" height="189"/></clipPath><clipPath id="clip27"><rect x="2060" y="1668" width="175" height="189"/></clipPath><clipPath id="clip28"><rect x="2337" y="1668" width="176" height="189"/></clipPath><clipPath id="clip29"><rect x="2337" y="1668" width="176" height="189"/></clipPath><clipPath id="clip30"><rect x="2337" y="1668" width="176" height="189"/></clipPath><clipPath id="clip31"><rect x="2703" y="798" width="175" height="189"/></clipPath><clipPath id="clip32"><rect x="2703" y="798" width="175" height="189"/></clipPath><clipPath id="clip33"><rect x="2703" y="798" width="175" height="189"/></clipPath><clipPath id="clip34"><rect x="2757" y="1035" width="175" height="189"/></clipPath><clipPath id="clip35"><rect x="2757" y="1035" width="175" height="189"/></clipPath><clipPath id="clip36"><rect x="2757" y="1035" width="175" height="189"/></clipPath><clipPath id="clip37"><rect x="2757" y="1259" width="175" height="189"/></clipPath><clipPath id="clip38"><rect x="2757" y="1259" width="175" height="189"/></clipPath><clipPath id="clip39"><rect x="2757" y="1259" width="175" height="189"/></clipPath><clipPath id="clip40"><rect x="2703" y="1485" width="175" height="190"/></clipPath><clipPath id="clip41"><rect x="2703" y="1485" width="175" height="190"/></clipPath><clipPath id="clip42"><rect x="2703" y="1485" width="175" height="190"/></clipPath><clipPath id="clip43"><rect x="1870" y="834" width="424" height="459"/></clipPath><clipPath id="clip44"><rect x="1870" y="834" width="424" height="459"/></clipPath><clipPath id="clip45"><rect x="1870" y="834" width="424" height="459"/></clipPath><clipPath id="clip46"><rect x="1969" y="998" width="424" height="459"/></clipPath><clipPath id="clip47"><rect x="1969" y="998" width="424" height="459"/></clipPath><clipPath id="clip48"><rect x="1969" y="998" width="424" height="459"/></clipPath><clipPath id="clip49"><rect x="2068" y="1162" width="424" height="459"/></clipPath><clipPath id="clip50"><rect x="2068" y="1162" width="424" height="459"/></clipPath><clipPath id="clip51"><rect x="2068" y="1162" width="424" height="459"/></clipPath><clipPath id="clip52"><rect x="1702" y="797" width="175" height="188"/></clipPath><clipPath id="clip53"><rect x="1702" y="797" width="175" height="188"/></clipPath><clipPath id="clip54"><rect x="1702" y="797" width="175" height="188"/></clipPath><clipPath id="clip55"><rect x="1648" y="1029" width="175" height="190"/></clipPath><clipPath id="clip56"><rect x="1648" y="1029" width="175" height="190"/></clipPath><clipPath id="clip57"><rect x="1648" y="1029" width="175" height="190"/></clipPath><clipPath id="clip58"><rect x="1648" y="1256" width="175" height="190"/></clipPath><clipPath id="clip59"><rect x="1648" y="1256" width="175" height="190"/></clipPath><clipPath id="clip60"><rect x="1648" y="1256" width="175" height="190"/></clipPath><clipPath id="clip61"><rect x="1702" y="1483" width="175" height="189"/></clipPath><clipPath id="clip62"><rect x="1702" y="1483" width="175" height="189"/></clipPath><clipPath id="clip63"><rect x="1702" y="1483" width="175" height="189"/></clipPath><clipPath id="clip64"><rect x="2472" y="797" width="175" height="188"/></clipPath><clipPath id="clip65"><rect x="2472" y="797" width="175" height="188"/></clipPath><clipPath id="clip66"><rect x="2472" y="797" width="175" height="188"/></clipPath><clipPath id="clip67"><rect x="2526" y="1029" width="175" height="190"/></clipPath><clipPath id="clip68"><rect x="2526" y="1029" width="175" height="190"/></clipPath><clipPath id="clip69"><rect x="2526" y="1029" width="175" height="190"/></clipPath><clipPath id="clip70"><rect x="2526" y="1256" width="175" height="190"/></clipPath><clipPath id="clip71"><rect x="2526" y="1256" width="175" height="190"/></clipPath><clipPath id="clip72"><rect x="2526" y="1256" width="175" height="190"/></clipPath><clipPath id="clip73"><rect x="2472" y="1483" width="175" height="189"/></clipPath><clipPath id="clip74"><rect x="2472" y="1483" width="175" height="189"/></clipPath><clipPath id="clip75"><rect x="2472" y="1483" width="175" height="189"/></clipPath></defs><g clip-path="url(#clip0)" transform="translate(-1056 -156)"><g clip-path="url(#clip1)"><g clip-path="url(#clip2)"><g clip-path="url(#clip3)"><path d="M119.044 113.592 119.044 113.707 141.022 119.294 141.022 140.277C141.022 144.677 144.842 148.249 149.238 148.247 153.638 148.247 157.505 144.677 157.505 140.277L157.505 107.039 127.025 99.0835 119.044 113.592Z" fill="#FC9804" transform="matrix(1 0 0 1.08046 1473 797)"/><path d="M169.767 44.8815 146.126 29.162 139.849 23.04 138.053 18.9523C137.241 17.1002 136.186 17.1898 135.703 19.1554L132.895 30.527 97.9918 66.8902 29.6271 66.8902 20.2668 66.8902C20.2668 66.8902 0 66.5843 0 86.1349L0 116.34 12.8201 116.34C12.8201 116.34 12.8201 90.3596 12.8201 86.4229 12.8201 82.8442 15.2792 77.4839 19.9348 76.5368L20.6108 112.677 31.1345 125.594 31.1345 125.69 20.3836 143.572C18.1184 147.309 19.2337 152.143 22.8403 154.327 26.4478 156.51 31.2625 155.287 33.5268 151.545L50.6358 123.308 40.4177 112.677 100.195 112.677 102.346 132.405 102.348 132.405 87.6511 139.13 80.8423 118.061 68.8958 114.759 48.3189 114.746 67.7638 128.577 67.7638 128.577 73.8035 148.72C74.796 152.125 77.952 154.325 81.3198 154.416 80.4686 153.684 79.8256 152.779 79.329 151.696 79.8253 152.776 80.547 153.684 81.3966 154.416 83.6875 156.389 86.9921 157.004 89.909 155.67L120.136 141.846 117.213 112.987 145.001 56.755 164.191 60.4073C167.55 61.0315 171.13 59.4953 172.909 56.3196 175.201 52.3118 173.752 47.1636 169.767 44.8815Z" fill="#FC9804" transform="matrix(1 0 0 1.08046 1473 797)"/></g></g></g><g clip-path="url(#clip4)"><g clip-path="url(#clip5)"><g clip-path="url(#clip6)"><path d="M119.044 113.592 119.044 113.707 141.022 119.294 141.022 140.277C141.022 144.677 144.842 148.249 149.238 148.247 153.638 148.247 157.505 144.677 157.505 140.277L157.505 107.039 127.025 99.0835 119.044 113.592Z" fill="#FC9804" transform="matrix(1 0 0 1.08046 1792 604)"/><path d="M169.767 44.8815 146.126 29.162 139.849 23.04 138.053 18.9523C137.241 17.1002 136.186 17.1898 135.703 19.1554L132.895 30.527 97.9918 66.8902 29.6271 66.8902 20.2668 66.8902C20.2668 66.8902 0 66.5843 0 86.1349L0 116.34 12.8201 116.34C12.8201 116.34 12.8201 90.3596 12.8201 86.4229 12.8201 82.8442 15.2792 77.4839 19.9348 76.5368L20.6108 112.677 31.1345 125.594 31.1345 125.69 20.3836 143.572C18.1184 147.309 19.2337 152.143 22.8403 154.327 26.4478 156.51 31.2625 155.287 33.5268 151.545L50.6358 123.308 40.4177 112.677 100.195 112.677 102.346 132.405 102.348 132.405 87.6511 139.13 80.8423 118.061 68.8958 114.759 48.3189 114.746 67.7638 128.577 67.7638 128.577 73.8035 148.72C74.796 152.125 77.952 154.325 81.3198 154.416 80.4686 153.684 79.8256 152.779 79.329 151.696 79.8253 152.776 80.547 153.684 81.3966 154.416 83.6875 156.389 86.9921 157.004 89.909 155.67L120.136 141.846 117.213 112.987 145.001 56.755 164.191 60.4073C167.55 61.0315 171.13 59.4953 172.909 56.3196 175.201 52.3118 173.752 47.1636 169.767 44.8815Z" fill="#FC9804" transform="matrix(1 0 0 1.08046 1792 604)"/></g></g></g><g clip-path="url(#clip7)"><g clip-path="url(#clip8)"><g clip-path="url(#clip9)"><path d="M119.044 113.592 119.044 113.707 141.022 119.294 141.022 140.277C141.022 144.677 144.842 148.249 149.238 148.247 153.638 148.247 157.505 144.677 157.505 140.277L157.505 107.039 127.025 99.0835 119.044 113.592Z" fill="#FC9804" transform="matrix(1 0 0 1.08046 2060 604)"/><path d="M169.767 44.8815 146.126 29.162 139.849 23.04 138.053 18.9523C137.241 17.1002 136.186 17.1898 135.703 19.1554L132.895 30.527 97.9918 66.8902 29.6271 66.8902 20.2668 66.8902C20.2668 66.8902 0 66.5843 0 86.1349L0 116.34 12.8201 116.34C12.8201 116.34 12.8201 90.3596 12.8201 86.4229 12.8201 82.8442 15.2792 77.4839 19.9348 76.5368L20.6108 112.677 31.1345 125.594 31.1345 125.69 20.3836 143.572C18.1184 147.309 19.2337 152.143 22.8403 154.327 26.4478 156.51 31.2625 155.287 33.5268 151.545L50.6358 123.308 40.4177 112.677 100.195 112.677 102.346 132.405 102.348 132.405 87.6511 139.13 80.8423 118.061 68.8958 114.759 48.3189 114.746 67.7638 128.577 67.7638 128.577 73.8035 148.72C74.796 152.125 77.952 154.325 81.3198 154.416 80.4686 153.684 79.8256 152.779 79.329 151.696 79.8253 152.776 80.547 153.684 81.3966 154.416 83.6875 156.389 86.9921 157.004 89.909 155.67L120.136 141.846 117.213 112.987 145.001 56.755 164.191 60.4073C167.55 61.0315 171.13 59.4953 172.909 56.3196 175.201 52.3118 173.752 47.1636 169.767 44.8815Z" fill="#FC9804" transform="matrix(1 0 0 1.08046 2060 604)"/></g></g></g><g clip-path="url(#clip10)"><g clip-path="url(#clip11)"><g clip-path="url(#clip12)"><path d="M119.045 113.593 119.045 113.707 141.022 119.294 141.022 140.277C141.022 144.677 144.843 148.249 149.239 148.247 153.638 148.247 157.505 144.677 157.505 140.277L157.505 107.039 127.025 99.0837 119.045 113.593Z" fill="#FC9804" transform="matrix(1 0 0 1.08046 2338 604)"/><path d="M169.768 44.8815 146.127 29.162 139.849 23.04 138.053 18.9524C137.241 17.1002 136.186 17.1898 135.703 19.1554L132.895 30.527 97.992 66.8904 29.6271 66.8904 20.2668 66.8904C20.2668 66.8904 0 66.5844 0 86.135L0 116.34 12.8201 116.34C12.8201 116.34 12.8201 90.3598 12.8201 86.4231 12.8201 82.8444 15.2792 77.484 19.9349 76.5369L20.6109 112.677 31.1346 125.594 31.1346 125.69 20.3836 143.573C18.1184 147.309 19.2338 152.143 22.8403 154.327 26.4478 156.511 31.2626 155.287 33.5269 151.546L50.6359 123.308 40.4177 112.677 100.195 112.677 102.347 132.405 102.348 132.405 87.6513 139.13 80.8425 118.061 68.8959 114.759 48.319 114.747 67.7639 128.577 67.7639 128.577 73.8036 148.72C74.7961 152.125 77.9521 154.325 81.3199 154.416 80.4688 153.685 79.8258 152.78 79.3292 151.696 79.8255 152.776 80.5471 153.685 81.3968 154.416 83.6877 156.389 86.9923 157.004 89.9092 155.67L120.136 141.847 117.213 112.987 145.002 56.7551 164.191 60.4074C167.55 61.0316 171.131 59.4954 172.91 56.3197 175.201 52.3119 173.752 47.1637 169.768 44.8815Z" fill="#FC9804" transform="matrix(1 0 0 1.08046 2338 604)"/></g></g></g><g clip-path="url(#clip13)"><g clip-path="url(#clip14)"><g clip-path="url(#clip15)"><path d="M119.044 113.592 119.044 113.707 141.022 119.294 141.022 140.277C141.022 144.677 144.842 148.249 149.238 148.247 153.638 148.247 157.505 144.677 157.505 140.277L157.505 107.039 127.025 99.0835 119.044 113.592Z" fill="#FC9804" transform="matrix(1 0 0 1.08621 1419 1030)"/><path d="M169.767 44.8815 146.126 29.162 139.849 23.04 138.053 18.9523C137.241 17.1002 136.186 17.1898 135.703 19.1554L132.895 30.527 97.9918 66.8902 29.6271 66.8902 20.2668 66.8902C20.2668 66.8902 0 66.5843 0 86.1349L0 116.34 12.8201 116.34C12.8201 116.34 12.8201 90.3596 12.8201 86.4229 12.8201 82.8442 15.2792 77.4839 19.9348 76.5368L20.6108 112.677 31.1345 125.594 31.1345 125.69 20.3836 143.572C18.1184 147.309 19.2337 152.143 22.8403 154.327 26.4478 156.51 31.2625 155.287 33.5268 151.545L50.6358 123.308 40.4177 112.677 100.195 112.677 102.346 132.405 102.348 132.405 87.6511 139.13 80.8423 118.061 68.8958 114.759 48.3189 114.746 67.7638 128.577 67.7638 128.577 73.8035 148.72C74.796 152.125 77.952 154.325 81.3198 154.416 80.4686 153.684 79.8256 152.779 79.329 151.696 79.8253 152.776 80.547 153.684 81.3966 154.416 83.6875 156.389 86.9921 157.004 89.909 155.67L120.136 141.846 117.213 112.987 145.001 56.755 164.191 60.4073C167.55 61.0315 171.13 59.4953 172.909 56.3196 175.201 52.3118 173.752 47.1636 169.767 44.8815Z" fill="#FC9804" transform="matrix(1 0 0 1.08621 1419 1030)"/></g></g></g><g clip-path="url(#clip16)"><g clip-path="url(#clip17)"><g clip-path="url(#clip18)"><path d="M119.044 113.592 119.044 113.707 141.022 119.294 141.022 140.277C141.022 144.677 144.842 148.249 149.238 148.247 153.638 148.247 157.505 144.677 157.505 140.277L157.505 107.039 127.025 99.0835 119.044 113.592Z" fill="#FC9804" transform="matrix(1 0 0 1.08621 1419 1256)"/><path d="M169.767 44.8815 146.126 29.162 139.849 23.04 138.053 18.9523C137.241 17.1002 136.186 17.1898 135.703 19.1554L132.895 30.527 97.9918 66.8902 29.6271 66.8902 20.2668 66.8902C20.2668 66.8902 0 66.5843 0 86.1349L0 116.34 12.8201 116.34C12.8201 116.34 12.8201 90.3596 12.8201 86.4229 12.8201 82.8442 15.2792 77.4839 19.9348 76.5368L20.6108 112.677 31.1345 125.594 31.1345 125.69 20.3836 143.572C18.1184 147.309 19.2337 152.143 22.8403 154.327 26.4478 156.51 31.2625 155.287 33.5268 151.545L50.6358 123.308 40.4177 112.677 100.195 112.677 102.346 132.405 102.348 132.405 87.6511 139.13 80.8423 118.061 68.8958 114.759 48.3189 114.746 67.7638 128.577 67.7638 128.577 73.8035 148.72C74.796 152.125 77.952 154.325 81.3198 154.416 80.4686 153.684 79.8256 152.779 79.329 151.696 79.8253 152.776 80.547 153.684 81.3966 154.416 83.6875 156.389 86.9921 157.004 89.909 155.67L120.136 141.846 117.213 112.987 145.001 56.755 164.191 60.4073C167.55 61.0315 171.13 59.4953 172.909 56.3196 175.201 52.3118 173.752 47.1636 169.767 44.8815Z" fill="#FC9804" transform="matrix(1 0 0 1.08621 1419 1256)"/></g></g></g><g clip-path="url(#clip19)"><g clip-path="url(#clip20)"><g clip-path="url(#clip21)"><path d="M119.044 113.592 119.044 113.707 141.022 119.294 141.022 140.277C141.022 144.677 144.842 148.249 149.238 148.247 153.638 148.247 157.505 144.677 157.505 140.277L157.505 107.039 127.025 99.0835 119.044 113.592Z" fill="#FC9804" transform="matrix(1 0 0 1.08046 1473 1484)"/><path d="M169.767 44.8815 146.126 29.162 139.849 23.04 138.053 18.9523C137.241 17.1002 136.186 17.1898 135.703 19.1554L132.895 30.527 97.9918 66.8902 29.6271 66.8902 20.2668 66.8902C20.2668 66.8902 0 66.5843 0 86.1349L0 116.34 12.8201 116.34C12.8201 116.34 12.8201 90.3596 12.8201 86.4229 12.8201 82.8442 15.2792 77.4839 19.9348 76.5368L20.6108 112.677 31.1345 125.594 31.1345 125.69 20.3836 143.572C18.1184 147.309 19.2337 152.143 22.8403 154.327 26.4478 156.51 31.2625 155.287 33.5268 151.545L50.6358 123.308 40.4177 112.677 100.195 112.677 102.346 132.405 102.348 132.405 87.6511 139.13 80.8423 118.061 68.8958 114.759 48.3189 114.746 67.7638 128.577 67.7638 128.577 73.8035 148.72C74.796 152.125 77.952 154.325 81.3198 154.416 80.4686 153.684 79.8256 152.779 79.329 151.696 79.8253 152.776 80.547 153.684 81.3966 154.416 83.6875 156.389 86.9921 157.004 89.909 155.67L120.136 141.846 117.213 112.987 145.001 56.755 164.191 60.4073C167.55 61.0315 171.13 59.4953 172.909 56.3196 175.201 52.3118 173.752 47.1636 169.767 44.8815Z" fill="#FC9804" transform="matrix(1 0 0 1.08046 1473 1484)"/></g></g></g><g clip-path="url(#clip22)"><g clip-path="url(#clip23)"><g clip-path="url(#clip24)"><path d="M119.044 113.592 119.044 113.707 141.022 119.294 141.022 140.277C141.022 144.677 144.842 148.249 149.238 148.247 153.638 148.247 157.505 144.677 157.505 140.277L157.505 107.039 127.025 99.0835 119.044 113.592Z" fill="#FC9804" transform="matrix(1 0 0 1.08046 1792 1669)"/><path d="M169.767 44.8815 146.126 29.162 139.849 23.04 138.053 18.9523C137.241 17.1002 136.186 17.1898 135.703 19.1554L132.895 30.527 97.9918 66.8902 29.6271 66.8902 20.2668 66.8902C20.2668 66.8902 0 66.5843 0 86.1349L0 116.34 12.8201 116.34C12.8201 116.34 12.8201 90.3596 12.8201 86.4229 12.8201 82.8442 15.2792 77.4839 19.9348 76.5368L20.6108 112.677 31.1345 125.594 31.1345 125.69 20.3836 143.572C18.1184 147.309 19.2337 152.143 22.8403 154.327 26.4478 156.51 31.2625 155.287 33.5268 151.545L50.6358 123.308 40.4177 112.677 100.195 112.677 102.346 132.405 102.348 132.405 87.6511 139.13 80.8423 118.061 68.8958 114.759 48.3189 114.746 67.7638 128.577 67.7638 128.577 73.8035 148.72C74.796 152.125 77.952 154.325 81.3198 154.416 80.4686 153.684 79.8256 152.779 79.329 151.696 79.8253 152.776 80.547 153.684 81.3966 154.416 83.6875 156.389 86.9921 157.004 89.909 155.67L120.136 141.846 117.213 112.987 145.001 56.755 164.191 60.4073C167.55 61.0315 171.13 59.4953 172.909 56.3196 175.201 52.3118 173.752 47.1636 169.767 44.8815Z" fill="#FC9804" transform="matrix(1 0 0 1.08046 1792 1669)"/></g></g></g><g clip-path="url(#clip25)"><g clip-path="url(#clip26)"><g clip-path="url(#clip27)"><path d="M119.044 113.592 119.044 113.707 141.022 119.294 141.022 140.277C141.022 144.677 144.842 148.249 149.238 148.247 153.638 148.247 157.505 144.677 157.505 140.277L157.505 107.039 127.025 99.0835 119.044 113.592Z" fill="#FC9804" transform="matrix(1 0 0 1.08046 2060 1669)"/><path d="M169.767 44.8815 146.126 29.162 139.849 23.04 138.053 18.9523C137.241 17.1002 136.186 17.1898 135.703 19.1554L132.895 30.527 97.9918 66.8902 29.6271 66.8902 20.2668 66.8902C20.2668 66.8902 0 66.5843 0 86.1349L0 116.34 12.8201 116.34C12.8201 116.34 12.8201 90.3596 12.8201 86.4229 12.8201 82.8442 15.2792 77.4839 19.9348 76.5368L20.6108 112.677 31.1345 125.594 31.1345 125.69 20.3836 143.572C18.1184 147.309 19.2337 152.143 22.8403 154.327 26.4478 156.51 31.2625 155.287 33.5268 151.545L50.6358 123.308 40.4177 112.677 100.195 112.677 102.346 132.405 102.348 132.405 87.6511 139.13 80.8423 118.061 68.8958 114.759 48.3189 114.746 67.7638 128.577 67.7638 128.577 73.8035 148.72C74.796 152.125 77.952 154.325 81.3198 154.416 80.4686 153.684 79.8256 152.779 79.329 151.696 79.8253 152.776 80.547 153.684 81.3966 154.416 83.6875 156.389 86.9921 157.004 89.909 155.67L120.136 141.846 117.213 112.987 145.001 56.755 164.191 60.4073C167.55 61.0315 171.13 59.4953 172.909 56.3196 175.201 52.3118 173.752 47.1636 169.767 44.8815Z" fill="#FC9804" transform="matrix(1 0 0 1.08046 2060 1669)"/></g></g></g><g clip-path="url(#clip28)"><g clip-path="url(#clip29)"><g clip-path="url(#clip30)"><path d="M119.045 113.593 119.045 113.707 141.022 119.294 141.022 140.277C141.022 144.677 144.843 148.249 149.239 148.247 153.638 148.247 157.505 144.677 157.505 140.277L157.505 107.039 127.025 99.0837 119.045 113.593Z" fill="#FC9804" transform="matrix(1 0 0 1.08046 2338 1669)"/><path d="M169.768 44.8815 146.127 29.162 139.849 23.04 138.053 18.9524C137.241 17.1002 136.186 17.1898 135.703 19.1554L132.895 30.527 97.992 66.8904 29.6271 66.8904 20.2668 66.8904C20.2668 66.8904 0 66.5844 0 86.135L0 116.34 12.8201 116.34C12.8201 116.34 12.8201 90.3598 12.8201 86.4231 12.8201 82.8444 15.2792 77.484 19.9349 76.5369L20.6109 112.677 31.1346 125.594 31.1346 125.69 20.3836 143.573C18.1184 147.309 19.2338 152.143 22.8403 154.327 26.4478 156.511 31.2626 155.287 33.5269 151.546L50.6359 123.308 40.4177 112.677 100.195 112.677 102.347 132.405 102.348 132.405 87.6513 139.13 80.8425 118.061 68.8959 114.759 48.319 114.747 67.7639 128.577 67.7639 128.577 73.8036 148.72C74.7961 152.125 77.9521 154.325 81.3199 154.416 80.4688 153.685 79.8258 152.78 79.3292 151.696 79.8255 152.776 80.5471 153.685 81.3968 154.416 83.6877 156.389 86.9923 157.004 89.9092 155.67L120.136 141.847 117.213 112.987 145.002 56.7551 164.191 60.4074C167.55 61.0316 171.131 59.4954 172.91 56.3197 175.201 52.3119 173.752 47.1637 169.768 44.8815Z" fill="#FC9804" transform="matrix(1 0 0 1.08046 2338 1669)"/></g></g></g><g clip-path="url(#clip31)"><g clip-path="url(#clip32)"><g clip-path="url(#clip33)"><path d="M119.044 113.592 119.044 113.707 141.022 119.294 141.022 140.277C141.022 144.677 144.842 148.249 149.238 148.247 153.638 148.247 157.505 144.677 157.505 140.277L157.505 107.039 127.025 99.0835 119.044 113.592Z" fill="#FC9804" transform="matrix(1 0 0 1.08046 2704 799)"/><path d="M169.767 44.8815 146.126 29.162 139.849 23.04 138.053 18.9523C137.241 17.1002 136.186 17.1898 135.703 19.1554L132.895 30.527 97.9918 66.8902 29.6271 66.8902 20.2668 66.8902C20.2668 66.8902 0 66.5843 0 86.1349L0 116.34 12.8201 116.34C12.8201 116.34 12.8201 90.3596 12.8201 86.4229 12.8201 82.8442 15.2792 77.4839 19.9348 76.5368L20.6108 112.677 31.1345 125.594 31.1345 125.69 20.3836 143.572C18.1184 147.309 19.2337 152.143 22.8403 154.327 26.4478 156.51 31.2625 155.287 33.5268 151.545L50.6358 123.308 40.4177 112.677 100.195 112.677 102.346 132.405 102.348 132.405 87.6511 139.13 80.8423 118.061 68.8958 114.759 48.3189 114.746 67.7638 128.577 67.7638 128.577 73.8035 148.72C74.796 152.125 77.952 154.325 81.3198 154.416 80.4686 153.684 79.8256 152.779 79.329 151.696 79.8253 152.776 80.547 153.684 81.3966 154.416 83.6875 156.389 86.9921 157.004 89.909 155.67L120.136 141.846 117.213 112.987 145.001 56.755 164.191 60.4073C167.55 61.0315 171.13 59.4953 172.909 56.3196 175.201 52.3118 173.752 47.1636 169.767 44.8815Z" fill="#FC9804" transform="matrix(1 0 0 1.08046 2704 799)"/></g></g></g><g clip-path="url(#clip34)"><g clip-path="url(#clip35)"><g clip-path="url(#clip36)"><path d="M119.044 113.592 119.044 113.707 141.022 119.294 141.022 140.277C141.022 144.677 144.842 148.249 149.238 148.247 153.638 148.247 157.505 144.677 157.505 140.277L157.505 107.039 127.025 99.0835 119.044 113.592Z" fill="#FC9804" transform="matrix(1 0 0 1.08046 2758 1035)"/><path d="M169.767 44.8815 146.126 29.162 139.849 23.04 138.053 18.9523C137.241 17.1002 136.186 17.1898 135.703 19.1554L132.895 30.527 97.9918 66.8902 29.6271 66.8902 20.2668 66.8902C20.2668 66.8902 0 66.5843 0 86.1349L0 116.34 12.8201 116.34C12.8201 116.34 12.8201 90.3596 12.8201 86.4229 12.8201 82.8442 15.2792 77.4839 19.9348 76.5368L20.6108 112.677 31.1345 125.594 31.1345 125.69 20.3836 143.572C18.1184 147.309 19.2337 152.143 22.8403 154.327 26.4478 156.51 31.2625 155.287 33.5268 151.545L50.6358 123.308 40.4177 112.677 100.195 112.677 102.346 132.405 102.348 132.405 87.6511 139.13 80.8423 118.061 68.8958 114.759 48.3189 114.746 67.7638 128.577 67.7638 128.577 73.8035 148.72C74.796 152.125 77.952 154.325 81.3198 154.416 80.4686 153.684 79.8256 152.779 79.329 151.696 79.8253 152.776 80.547 153.684 81.3966 154.416 83.6875 156.389 86.9921 157.004 89.909 155.67L120.136 141.846 117.213 112.987 145.001 56.755 164.191 60.4073C167.55 61.0315 171.13 59.4953 172.909 56.3196 175.201 52.3118 173.752 47.1636 169.767 44.8815Z" fill="#FC9804" transform="matrix(1 0 0 1.08046 2758 1035)"/></g></g></g><g clip-path="url(#clip37)"><g clip-path="url(#clip38)"><g clip-path="url(#clip39)"><path d="M119.044 113.592 119.044 113.707 141.022 119.294 141.022 140.277C141.022 144.677 144.842 148.249 149.238 148.247 153.638 148.247 157.505 144.677 157.505 140.277L157.505 107.039 127.025 99.0835 119.044 113.592Z" fill="#FC9804" transform="matrix(1 0 0 1.08046 2758 1260)"/><path d="M169.767 44.8815 146.126 29.162 139.849 23.04 138.053 18.9523C137.241 17.1002 136.186 17.1898 135.703 19.1554L132.895 30.527 97.9918 66.8902 29.6271 66.8902 20.2668 66.8902C20.2668 66.8902 0 66.5843 0 86.1349L0 116.34 12.8201 116.34C12.8201 116.34 12.8201 90.3596 12.8201 86.4229 12.8201 82.8442 15.2792 77.4839 19.9348 76.5368L20.6108 112.677 31.1345 125.594 31.1345 125.69 20.3836 143.572C18.1184 147.309 19.2337 152.143 22.8403 154.327 26.4478 156.51 31.2625 155.287 33.5268 151.545L50.6358 123.308 40.4177 112.677 100.195 112.677 102.346 132.405 102.348 132.405 87.6511 139.13 80.8423 118.061 68.8958 114.759 48.3189 114.746 67.7638 128.577 67.7638 128.577 73.8035 148.72C74.796 152.125 77.952 154.325 81.3198 154.416 80.4686 153.684 79.8256 152.779 79.329 151.696 79.8253 152.776 80.547 153.684 81.3966 154.416 83.6875 156.389 86.9921 157.004 89.909 155.67L120.136 141.846 117.213 112.987 145.001 56.755 164.191 60.4073C167.55 61.0315 171.13 59.4953 172.909 56.3196 175.201 52.3118 173.752 47.1636 169.767 44.8815Z" fill="#FC9804" transform="matrix(1 0 0 1.08046 2758 1260)"/></g></g></g><g clip-path="url(#clip40)"><g clip-path="url(#clip41)"><g clip-path="url(#clip42)"><path d="M119.044 113.592 119.044 113.707 141.022 119.294 141.022 140.277C141.022 144.677 144.842 148.249 149.238 148.247 153.638 148.247 157.505 144.677 157.505 140.277L157.505 107.039 127.025 99.0835 119.044 113.592Z" fill="#FC9804" transform="matrix(1 0 0 1.08621 2704 1485)"/><path d="M169.767 44.8815 146.126 29.162 139.849 23.04 138.053 18.9523C137.241 17.1002 136.186 17.1898 135.703 19.1554L132.895 30.527 97.9918 66.8902 29.6271 66.8902 20.2668 66.8902C20.2668 66.8902 0 66.5843 0 86.1349L0 116.34 12.8201 116.34C12.8201 116.34 12.8201 90.3596 12.8201 86.4229 12.8201 82.8442 15.2792 77.4839 19.9348 76.5368L20.6108 112.677 31.1345 125.594 31.1345 125.69 20.3836 143.572C18.1184 147.309 19.2337 152.143 22.8403 154.327 26.4478 156.51 31.2625 155.287 33.5268 151.545L50.6358 123.308 40.4177 112.677 100.195 112.677 102.346 132.405 102.348 132.405 87.6511 139.13 80.8423 118.061 68.8958 114.759 48.3189 114.746 67.7638 128.577 67.7638 128.577 73.8035 148.72C74.796 152.125 77.952 154.325 81.3198 154.416 80.4686 153.684 79.8256 152.779 79.329 151.696 79.8253 152.776 80.547 153.684 81.3966 154.416 83.6875 156.389 86.9921 157.004 89.909 155.67L120.136 141.846 117.213 112.987 145.001 56.755 164.191 60.4073C167.55 61.0315 171.13 59.4953 172.909 56.3196 175.201 52.3118 173.752 47.1636 169.767 44.8815Z" fill="#FC9804" transform="matrix(1 0 0 1.08621 2704 1485)"/></g></g></g><g clip-path="url(#clip43)"><g clip-path="url(#clip44)"><g clip-path="url(#clip45)"><path d="M405.816 118.308 365.664 91.5399 406.477 0.330469 348.645 75.0164 351.619 48.5789 237.277 166.722 234.633 169.531 191.837 169.531 134.501 169.531 66.9199 169.531 45.2742 169.531C21.8109 169.531 2.97422 188.532 2.97422 211.831L2.97422 282.055 33.0469 282.055 33.0469 212.657 48.5789 188.698 48.5789 272.141 32.8817 296.761 32.8817 403.007C32.8817 413.417 41.6391 422.009 52.0488 422.009 62.6239 422.009 71.0508 413.417 71.0508 403.007L71.0508 310.971 89.7223 281.394 89.7223 312.954 131.857 412.095C137.145 421.183 148.711 424.487 157.964 419.2 167.052 414.078 170.357 402.511 165.069 393.258L129.048 307.336 146.232 278.09 242.399 278.09 242.399 403.172C242.399 413.582 250.991 422.174 261.401 422.174 271.976 422.174 280.568 413.582 280.568 403.172L280.568 280.899 346.827 146.563 377.23 152.346C377.23 152.511 377.23 152.511 377.065 152.677L387.64 154.659C387.64 154.659 387.64 154.494 387.64 154.494L392.267 155.32C400.363 156.807 408.79 153.172 413.086 145.572 418.704 135.988 415.234 123.761 405.816 118.308ZM347.488 108.889C344.183 108.889 341.54 106.246 341.54 102.941 341.54 99.6364 344.183 96.9926 347.488 96.9926 350.793 96.9926 353.436 99.6364 353.436 102.941 353.436 106.246 350.793 108.889 347.488 108.889Z" fill="#A56DBB" transform="matrix(1 0 0 1.08038 1870 835)"/></g></g></g><g clip-path="url(#clip46)"><g clip-path="url(#clip47)"><g clip-path="url(#clip48)"><path d="M405.816 118.308 365.664 91.5399 406.477 0.330469 348.645 75.0164 351.619 48.5789 237.277 166.722 234.633 169.531 191.837 169.531 134.501 169.531 66.9199 169.531 45.2742 169.531C21.8109 169.531 2.97422 188.532 2.97422 211.831L2.97422 282.055 33.0469 282.055 33.0469 212.657 48.5789 188.698 48.5789 272.141 32.8817 296.761 32.8817 403.007C32.8817 413.417 41.6391 422.009 52.0488 422.009 62.6239 422.009 71.0508 413.417 71.0508 403.007L71.0508 310.971 89.7223 281.394 89.7223 312.954 131.857 412.095C137.145 421.183 148.711 424.487 157.964 419.2 167.052 414.078 170.357 402.511 165.069 393.258L129.048 307.336 146.232 278.09 242.399 278.09 242.399 403.172C242.399 413.582 250.991 422.174 261.401 422.174 271.976 422.174 280.568 413.582 280.568 403.172L280.568 280.899 346.827 146.563 377.23 152.346C377.23 152.511 377.23 152.511 377.065 152.677L387.64 154.659C387.64 154.659 387.64 154.494 387.64 154.494L392.267 155.32C400.363 156.807 408.79 153.172 413.086 145.572 418.704 135.988 415.234 123.761 405.816 118.308ZM347.488 108.889C344.183 108.889 341.54 106.246 341.54 102.941 341.54 99.6364 344.183 96.9926 347.488 96.9926 350.793 96.9926 353.436 99.6364 353.436 102.941 353.436 106.246 350.793 108.889 347.488 108.889Z" fill="#A56DBB" transform="matrix(1 0 0 1.08038 1969 999)"/></g></g></g><g clip-path="url(#clip49)"><g clip-path="url(#clip50)"><g clip-path="url(#clip51)"><path d="M405.816 118.308 365.664 91.5399 406.477 0.330469 348.645 75.0164 351.619 48.5789 237.277 166.722 234.633 169.531 191.837 169.531 134.501 169.531 66.9199 169.531 45.2742 169.531C21.8109 169.531 2.97422 188.532 2.97422 211.831L2.97422 282.055 33.0469 282.055 33.0469 212.657 48.5789 188.698 48.5789 272.141 32.8817 296.761 32.8817 403.007C32.8817 413.417 41.6391 422.009 52.0488 422.009 62.6239 422.009 71.0508 413.417 71.0508 403.007L71.0508 310.971 89.7223 281.394 89.7223 312.954 131.857 412.095C137.145 421.183 148.711 424.487 157.964 419.2 167.052 414.078 170.357 402.511 165.069 393.258L129.048 307.336 146.232 278.09 242.399 278.09 242.399 403.172C242.399 413.582 250.991 422.174 261.401 422.174 271.976 422.174 280.568 413.582 280.568 403.172L280.568 280.899 346.827 146.563 377.23 152.346C377.23 152.511 377.23 152.511 377.065 152.677L387.64 154.659C387.64 154.659 387.64 154.494 387.64 154.494L392.267 155.32C400.363 156.807 408.79 153.172 413.086 145.572 418.704 135.988 415.234 123.761 405.816 118.308ZM347.488 108.889C344.183 108.889 341.54 106.246 341.54 102.941 341.54 99.6364 344.183 96.9926 347.488 96.9926 350.793 96.9926 353.436 99.6364 353.436 102.941 353.436 106.246 350.793 108.889 347.488 108.889Z" fill="#A56DBB" transform="matrix(1 0 0 1.08038 2068 1163)"/></g></g></g><g clip-path="url(#clip52)"><g clip-path="url(#clip53)"><g clip-path="url(#clip54)"><path d="M119.044 113.592 119.044 113.707 141.022 119.294 141.022 140.277C141.022 144.677 144.842 148.249 149.238 148.247 153.638 148.247 157.505 144.677 157.505 140.277L157.505 107.039 127.025 99.0835 119.044 113.592Z" fill="#FC9804" transform="matrix(1 0 0 1.08046 1703 797)"/><path d="M169.767 44.8815 146.126 29.162 139.849 23.04 138.053 18.9523C137.241 17.1002 136.186 17.1898 135.703 19.1554L132.895 30.527 97.9918 66.8902 29.6271 66.8902 20.2668 66.8902C20.2668 66.8902 0 66.5843 0 86.1349L0 116.34 12.8201 116.34C12.8201 116.34 12.8201 90.3596 12.8201 86.4229 12.8201 82.8442 15.2792 77.4839 19.9348 76.5368L20.6108 112.677 31.1345 125.594 31.1345 125.69 20.3836 143.572C18.1184 147.309 19.2337 152.143 22.8403 154.327 26.4478 156.51 31.2625 155.287 33.5268 151.545L50.6358 123.308 40.4177 112.677 100.195 112.677 102.346 132.405 102.348 132.405 87.6511 139.13 80.8423 118.061 68.8958 114.759 48.3189 114.746 67.7638 128.577 67.7638 128.577 73.8035 148.72C74.796 152.125 77.952 154.325 81.3198 154.416 80.4686 153.684 79.8256 152.779 79.329 151.696 79.8253 152.776 80.547 153.684 81.3966 154.416 83.6875 156.389 86.9921 157.004 89.909 155.67L120.136 141.846 117.213 112.987 145.001 56.755 164.191 60.4073C167.55 61.0315 171.13 59.4953 172.909 56.3196 175.201 52.3118 173.752 47.1636 169.767 44.8815Z" fill="#FC9804" transform="matrix(1 0 0 1.08046 1703 797)"/></g></g></g><g clip-path="url(#clip55)"><g clip-path="url(#clip56)"><g clip-path="url(#clip57)"><path d="M119.044 113.592 119.044 113.707 141.022 119.294 141.022 140.277C141.022 144.677 144.842 148.249 149.238 148.247 153.638 148.247 157.505 144.677 157.505 140.277L157.505 107.039 127.025 99.0835 119.044 113.592Z" fill="#FC9804" transform="matrix(1 0 0 1.08621 1649 1030)"/><path d="M169.767 44.8815 146.126 29.162 139.849 23.04 138.053 18.9523C137.241 17.1002 136.186 17.1898 135.703 19.1554L132.895 30.527 97.9918 66.8902 29.6271 66.8902 20.2668 66.8902C20.2668 66.8902 0 66.5843 0 86.1349L0 116.34 12.8201 116.34C12.8201 116.34 12.8201 90.3596 12.8201 86.4229 12.8201 82.8442 15.2792 77.4839 19.9348 76.5368L20.6108 112.677 31.1345 125.594 31.1345 125.69 20.3836 143.572C18.1184 147.309 19.2337 152.143 22.8403 154.327 26.4478 156.51 31.2625 155.287 33.5268 151.545L50.6358 123.308 40.4177 112.677 100.195 112.677 102.346 132.405 102.348 132.405 87.6511 139.13 80.8423 118.061 68.8958 114.759 48.3189 114.746 67.7638 128.577 67.7638 128.577 73.8035 148.72C74.796 152.125 77.952 154.325 81.3198 154.416 80.4686 153.684 79.8256 152.779 79.329 151.696 79.8253 152.776 80.547 153.684 81.3966 154.416 83.6875 156.389 86.9921 157.004 89.909 155.67L120.136 141.846 117.213 112.987 145.001 56.755 164.191 60.4073C167.55 61.0315 171.13 59.4953 172.909 56.3196 175.201 52.3118 173.752 47.1636 169.767 44.8815Z" fill="#FC9804" transform="matrix(1 0 0 1.08621 1649 1030)"/></g></g></g><g clip-path="url(#clip58)"><g clip-path="url(#clip59)"><g clip-path="url(#clip60)"><path d="M119.044 113.592 119.044 113.707 141.022 119.294 141.022 140.277C141.022 144.677 144.842 148.249 149.238 148.247 153.638 148.247 157.505 144.677 157.505 140.277L157.505 107.039 127.025 99.0835 119.044 113.592Z" fill="#FC9804" transform="matrix(1 0 0 1.08621 1649 1256)"/><path d="M169.767 44.8815 146.126 29.162 139.849 23.04 138.053 18.9523C137.241 17.1002 136.186 17.1898 135.703 19.1554L132.895 30.527 97.9918 66.8902 29.6271 66.8902 20.2668 66.8902C20.2668 66.8902 0 66.5843 0 86.1349L0 116.34 12.8201 116.34C12.8201 116.34 12.8201 90.3596 12.8201 86.4229 12.8201 82.8442 15.2792 77.4839 19.9348 76.5368L20.6108 112.677 31.1345 125.594 31.1345 125.69 20.3836 143.572C18.1184 147.309 19.2337 152.143 22.8403 154.327 26.4478 156.51 31.2625 155.287 33.5268 151.545L50.6358 123.308 40.4177 112.677 100.195 112.677 102.346 132.405 102.348 132.405 87.6511 139.13 80.8423 118.061 68.8958 114.759 48.3189 114.746 67.7638 128.577 67.7638 128.577 73.8035 148.72C74.796 152.125 77.952 154.325 81.3198 154.416 80.4686 153.684 79.8256 152.779 79.329 151.696 79.8253 152.776 80.547 153.684 81.3966 154.416 83.6875 156.389 86.9921 157.004 89.909 155.67L120.136 141.846 117.213 112.987 145.001 56.755 164.191 60.4073C167.55 61.0315 171.13 59.4953 172.909 56.3196 175.201 52.3118 173.752 47.1636 169.767 44.8815Z" fill="#FC9804" transform="matrix(1 0 0 1.08621 1649 1256)"/></g></g></g><g clip-path="url(#clip61)"><g clip-path="url(#clip62)"><g clip-path="url(#clip63)"><path d="M119.044 113.592 119.044 113.707 141.022 119.294 141.022 140.277C141.022 144.677 144.842 148.249 149.238 148.247 153.638 148.247 157.505 144.677 157.505 140.277L157.505 107.039 127.025 99.0835 119.044 113.592Z" fill="#FC9804" transform="matrix(1 0 0 1.08046 1703 1484)"/><path d="M169.767 44.8815 146.126 29.162 139.849 23.04 138.053 18.9523C137.241 17.1002 136.186 17.1898 135.703 19.1554L132.895 30.527 97.9918 66.8902 29.6271 66.8902 20.2668 66.8902C20.2668 66.8902 0 66.5843 0 86.1349L0 116.34 12.8201 116.34C12.8201 116.34 12.8201 90.3596 12.8201 86.4229 12.8201 82.8442 15.2792 77.4839 19.9348 76.5368L20.6108 112.677 31.1345 125.594 31.1345 125.69 20.3836 143.572C18.1184 147.309 19.2337 152.143 22.8403 154.327 26.4478 156.51 31.2625 155.287 33.5268 151.545L50.6358 123.308 40.4177 112.677 100.195 112.677 102.346 132.405 102.348 132.405 87.6511 139.13 80.8423 118.061 68.8958 114.759 48.3189 114.746 67.7638 128.577 67.7638 128.577 73.8035 148.72C74.796 152.125 77.952 154.325 81.3198 154.416 80.4686 153.684 79.8256 152.779 79.329 151.696 79.8253 152.776 80.547 153.684 81.3966 154.416 83.6875 156.389 86.9921 157.004 89.909 155.67L120.136 141.846 117.213 112.987 145.001 56.755 164.191 60.4073C167.55 61.0315 171.13 59.4953 172.909 56.3196 175.201 52.3118 173.752 47.1636 169.767 44.8815Z" fill="#FC9804" transform="matrix(1 0 0 1.08046 1703 1484)"/></g></g></g><g clip-path="url(#clip64)"><g clip-path="url(#clip65)"><g clip-path="url(#clip66)"><path d="M119.044 113.592 119.044 113.707 141.022 119.294 141.022 140.277C141.022 144.677 144.842 148.249 149.238 148.247 153.638 148.247 157.505 144.677 157.505 140.277L157.505 107.039 127.025 99.0835 119.044 113.592Z" fill="#FC9804" transform="matrix(1 0 0 1.08046 2473 797)"/><path d="M169.767 44.8815 146.126 29.162 139.849 23.04 138.053 18.9523C137.241 17.1002 136.186 17.1898 135.703 19.1554L132.895 30.527 97.9918 66.8902 29.6271 66.8902 20.2668 66.8902C20.2668 66.8902 0 66.5843 0 86.1349L0 116.34 12.8201 116.34C12.8201 116.34 12.8201 90.3596 12.8201 86.4229 12.8201 82.8442 15.2792 77.4839 19.9348 76.5368L20.6108 112.677 31.1345 125.594 31.1345 125.69 20.3836 143.572C18.1184 147.309 19.2337 152.143 22.8403 154.327 26.4478 156.51 31.2625 155.287 33.5268 151.545L50.6358 123.308 40.4177 112.677 100.195 112.677 102.346 132.405 102.348 132.405 87.6511 139.13 80.8423 118.061 68.8958 114.759 48.3189 114.746 67.7638 128.577 67.7638 128.577 73.8035 148.72C74.796 152.125 77.952 154.325 81.3198 154.416 80.4686 153.684 79.8256 152.779 79.329 151.696 79.8253 152.776 80.547 153.684 81.3966 154.416 83.6875 156.389 86.9921 157.004 89.909 155.67L120.136 141.846 117.213 112.987 145.001 56.755 164.191 60.4073C167.55 61.0315 171.13 59.4953 172.909 56.3196 175.201 52.3118 173.752 47.1636 169.767 44.8815Z" fill="#FC9804" transform="matrix(1 0 0 1.08046 2473 797)"/></g></g></g><g clip-path="url(#clip67)"><g clip-path="url(#clip68)"><g clip-path="url(#clip69)"><path d="M119.044 113.592 119.044 113.707 141.022 119.294 141.022 140.277C141.022 144.677 144.842 148.249 149.238 148.247 153.638 148.247 157.505 144.677 157.505 140.277L157.505 107.039 127.025 99.0835 119.044 113.592Z" fill="#FC9804" transform="matrix(1 0 0 1.08621 2527 1030)"/><path d="M169.767 44.8815 146.126 29.162 139.849 23.04 138.053 18.9523C137.241 17.1002 136.186 17.1898 135.703 19.1554L132.895 30.527 97.9918 66.8902 29.6271 66.8902 20.2668 66.8902C20.2668 66.8902 0 66.5843 0 86.1349L0 116.34 12.8201 116.34C12.8201 116.34 12.8201 90.3596 12.8201 86.4229 12.8201 82.8442 15.2792 77.4839 19.9348 76.5368L20.6108 112.677 31.1345 125.594 31.1345 125.69 20.3836 143.572C18.1184 147.309 19.2337 152.143 22.8403 154.327 26.4478 156.51 31.2625 155.287 33.5268 151.545L50.6358 123.308 40.4177 112.677 100.195 112.677 102.346 132.405 102.348 132.405 87.6511 139.13 80.8423 118.061 68.8958 114.759 48.3189 114.746 67.7638 128.577 67.7638 128.577 73.8035 148.72C74.796 152.125 77.952 154.325 81.3198 154.416 80.4686 153.684 79.8256 152.779 79.329 151.696 79.8253 152.776 80.547 153.684 81.3966 154.416 83.6875 156.389 86.9921 157.004 89.909 155.67L120.136 141.846 117.213 112.987 145.001 56.755 164.191 60.4073C167.55 61.0315 171.13 59.4953 172.909 56.3196 175.201 52.3118 173.752 47.1636 169.767 44.8815Z" fill="#FC9804" transform="matrix(1 0 0 1.08621 2527 1030)"/></g></g></g><g clip-path="url(#clip70)"><g clip-path="url(#clip71)"><g clip-path="url(#clip72)"><path d="M119.044 113.592 119.044 113.707 141.022 119.294 141.022 140.277C141.022 144.677 144.842 148.249 149.238 148.247 153.638 148.247 157.505 144.677 157.505 140.277L157.505 107.039 127.025 99.0835 119.044 113.592Z" fill="#FC9804" transform="matrix(1 0 0 1.08621 2527 1256)"/><path d="M169.767 44.8815 146.126 29.162 139.849 23.04 138.053 18.9523C137.241 17.1002 136.186 17.1898 135.703 19.1554L132.895 30.527 97.9918 66.8902 29.6271 66.8902 20.2668 66.8902C20.2668 66.8902 0 66.5843 0 86.1349L0 116.34 12.8201 116.34C12.8201 116.34 12.8201 90.3596 12.8201 86.4229 12.8201 82.8442 15.2792 77.4839 19.9348 76.5368L20.6108 112.677 31.1345 125.594 31.1345 125.69 20.3836 143.572C18.1184 147.309 19.2337 152.143 22.8403 154.327 26.4478 156.51 31.2625 155.287 33.5268 151.545L50.6358 123.308 40.4177 112.677 100.195 112.677 102.346 132.405 102.348 132.405 87.6511 139.13 80.8423 118.061 68.8958 114.759 48.3189 114.746 67.7638 128.577 67.7638 128.577 73.8035 148.72C74.796 152.125 77.952 154.325 81.3198 154.416 80.4686 153.684 79.8256 152.779 79.329 151.696 79.8253 152.776 80.547 153.684 81.3966 154.416 83.6875 156.389 86.9921 157.004 89.909 155.67L120.136 141.846 117.213 112.987 145.001 56.755 164.191 60.4073C167.55 61.0315 171.13 59.4953 172.909 56.3196 175.201 52.3118 173.752 47.1636 169.767 44.8815Z" fill="#FC9804" transform="matrix(1 0 0 1.08621 2527 1256)"/></g></g></g><g clip-path="url(#clip73)"><g clip-path="url(#clip74)"><g clip-path="url(#clip75)"><path d="M119.044 113.592 119.044 113.707 141.022 119.294 141.022 140.277C141.022 144.677 144.842 148.249 149.238 148.247 153.638 148.247 157.505 144.677 157.505 140.277L157.505 107.039 127.025 99.0835 119.044 113.592Z" fill="#FC9804" transform="matrix(1 0 0 1.08046 2473 1484)"/><path d="M169.767 44.8815 146.126 29.162 139.849 23.04 138.053 18.9523C137.241 17.1002 136.186 17.1898 135.703 19.1554L132.895 30.527 97.9918 66.8902 29.6271 66.8902 20.2668 66.8902C20.2668 66.8902 0 66.5843 0 86.1349L0 116.34 12.8201 116.34C12.8201 116.34 12.8201 90.3596 12.8201 86.4229 12.8201 82.8442 15.2792 77.4839 19.9348 76.5368L20.6108 112.677 31.1345 125.594 31.1345 125.69 20.3836 143.572C18.1184 147.309 19.2337 152.143 22.8403 154.327 26.4478 156.51 31.2625 155.287 33.5268 151.545L50.6358 123.308 40.4177 112.677 100.195 112.677 102.346 132.405 102.348 132.405 87.6511 139.13 80.8423 118.061 68.8958 114.759 48.3189 114.746 67.7638 128.577 67.7638 128.577 73.8035 148.72C74.796 152.125 77.952 154.325 81.3198 154.416 80.4686 153.684 79.8256 152.779 79.329 151.696 79.8253 152.776 80.547 153.684 81.3966 154.416 83.6875 156.389 86.9921 157.004 89.909 155.67L120.136 141.846 117.213 112.987 145.001 56.755 164.191 60.4073C167.55 61.0315 171.13 59.4953 172.909 56.3196 175.201 52.3118 173.752 47.1636 169.767 44.8815Z" fill="#FC9804" transform="matrix(1 0 0 1.08046 2473 1484)"/></g></g></g><path d="M1267.5 1268C1267.5 766.802 1673.8 360.5 2175 360.5 2676.2 360.5 3082.5 766.802 3082.5 1268 3082.5 1769.2 2676.2 2175.5 2175 2175.5 1673.8 2175.5 1267.5 1769.2 1267.5 1268Z" stroke="#DBDBDB" stroke-width="6.875" stroke-miterlimit="8" fill="none" fill-rule="evenodd"/><path d="M1100.5 1273C1100.5 680.674 1580.67 200.5 2173 200.5 2765.33 200.5 3245.5 680.674 3245.5 1273 3245.5 1865.33 2765.33 2345.5 2173 2345.5 1580.67 2345.5 1100.5 1865.33 1100.5 1273Z" stroke="#DBDBDB" stroke-width="6.875" stroke-miterlimit="8" fill="none" fill-rule="evenodd"/><path d="M1185.5 1270.5C1185.5 723.738 1628.74 280.5 2175.5 280.5 2722.26 280.5 3165.5 723.738 3165.5 1270.5 3165.5 1817.26 2722.26 2260.5 2175.5 2260.5 1628.74 2260.5 1185.5 1817.26 1185.5 1270.5Z" stroke="#DBDBDB" stroke-width="6.875" stroke-miterlimit="8" fill="none" fill-rule="evenodd"/><path d="M1224.5 1267.5C1224.5 743.382 1649.38 318.5 2173.5 318.5 2697.62 318.5 3122.5 743.382 3122.5 1267.5 3122.5 1791.62 2697.62 2216.5 2173.5 2216.5 1649.38 2216.5 1224.5 1791.62 1224.5 1267.5Z" stroke="#DBDBDB" stroke-width="6.875" stroke-miterlimit="8" fill="none" fill-rule="evenodd"/><path d="M1147.5 1273C1147.5 703.318 1609.09 241.5 2178.5 241.5 2747.91 241.5 3209.5 703.318 3209.5 1273 3209.5 1842.68 2747.91 2304.5 2178.5 2304.5 1609.09 2304.5 1147.5 1842.68 1147.5 1273Z" stroke="#DBDBDB" stroke-width="6.875" stroke-miterlimit="8" fill="none" fill-rule="evenodd"/><path d="M1059.5 1273C1059.5 658.031 1558.25 159.5 2173.5 159.5 2788.75 159.5 3287.5 658.031 3287.5 1273 3287.5 1887.97 2788.75 2386.5 2173.5 2386.5 1558.25 2386.5 1059.5 1887.97 1059.5 1273Z" stroke="#DBDBDB" stroke-width="6.875" stroke-miterlimit="8" fill="none" fill-rule="evenodd"/></g></svg>