<svg width="3406" height="1679" xmlns="http://www.w3.org/2000/svg" xmlns:xlink="http://www.w3.org/1999/xlink" overflow="hidden"><defs><clipPath id="clip0"><rect x="567" y="203" width="3406" height="1679"/></clipPath><clipPath id="clip1"><rect x="1267" y="466" width="311" height="310"/></clipPath><clipPath id="clip2"><rect x="1267" y="466" width="311" height="310"/></clipPath><clipPath id="clip3"><rect x="1267" y="466" width="311" height="310"/></clipPath><clipPath id="clip4"><rect x="1390" y="717" width="310" height="311"/></clipPath><clipPath id="clip5"><rect x="1390" y="717" width="310" height="311"/></clipPath><clipPath id="clip6"><rect x="1390" y="717" width="310" height="311"/></clipPath><clipPath id="clip7"><rect x="1481" y="962" width="312" height="310"/></clipPath><clipPath id="clip8"><rect x="1481" y="962" width="312" height="310"/></clipPath><clipPath id="clip9"><rect x="1481" y="962" width="312" height="310"/></clipPath><clipPath id="clip10"><rect x="1606" y="1199" width="311" height="311"/></clipPath><clipPath id="clip11"><rect x="1606" y="1199" width="311" height="311"/></clipPath><clipPath id="clip12"><rect x="1606" y="1199" width="311" height="311"/></clipPath><clipPath id="clip13"><rect x="1699" y="1457" width="312" height="311"/></clipPath><clipPath id="clip14"><rect x="1699" y="1457" width="312" height="311"/></clipPath><clipPath id="clip15"><rect x="1699" y="1457" width="312" height="311"/></clipPath><clipPath id="clip16"><rect x="2179" y="470" width="311" height="311"/></clipPath><clipPath id="clip17"><rect x="2179" y="470" width="311" height="311"/></clipPath><clipPath id="clip18"><rect x="2179" y="470" width="311" height="311"/></clipPath><clipPath id="clip19"><rect x="2473" y="729" width="312" height="311"/></clipPath><clipPath id="clip20"><rect x="2473" y="729" width="312" height="311"/></clipPath><clipPath id="clip21"><rect x="2473" y="729" width="312" height="311"/></clipPath><clipPath id="clip22"><rect x="2725" y="955" width="311" height="312"/></clipPath><clipPath id="clip23"><rect x="2725" y="955" width="311" height="312"/></clipPath><clipPath id="clip24"><rect x="2725" y="955" width="311" height="312"/></clipPath><clipPath id="clip25"><rect x="2990" y="1203" width="312" height="310"/></clipPath><clipPath id="clip26"><rect x="2990" y="1203" width="312" height="310"/></clipPath><clipPath id="clip27"><rect x="2990" y="1203" width="312" height="310"/></clipPath><clipPath id="clip28"><rect x="3301" y="1434" width="367" height="310"/></clipPath><clipPath id="clip29"><rect x="3301" y="1434" width="367" height="310"/></clipPath><clipPath id="clip30"><rect x="3301" y="1434" width="367" height="310"/></clipPath></defs><g clip-path="url(#clip0)" transform="translate(-567 -203)"><path d="M1267.5 689.5 2828.12 689.5" stroke="#C9C9C9" stroke-width="20.625" stroke-miterlimit="8" fill="none" fill-rule="evenodd"/><path d="M1351.5 851.5 2912.41 851.5" stroke="#C9C9C9" stroke-width="20.625" stroke-miterlimit="8" fill="none" fill-rule="evenodd"/><path d="M1414.5 1034.5 2975.41 1034.5" stroke="#C9C9C9" stroke-width="20.625" stroke-miterlimit="8" fill="none" fill-rule="evenodd"/><path d="M1517.5 1259.5 3078.41 1259.5" stroke="#C9C9C9" stroke-width="20.625" stroke-miterlimit="8" fill="none" fill-rule="evenodd"/><path d="M1694.5 1502.5 3255.41 1502.5" stroke="#C9C9C9" stroke-width="20.625" stroke-miterlimit="8" fill="none" fill-rule="evenodd"/><path d="M1827.5 1768.5 3388.41 1768.5" stroke="#C9C9C9" stroke-width="20.625" stroke-miterlimit="8" fill="none" fill-rule="evenodd"/><g clip-path="url(#clip1)"><g clip-path="url(#clip2)"><g clip-path="url(#clip3)"><path d="M1479.09 668.377 1479.09 668.581 1518.25 678.535 1518.25 715.919C1518.25 723.758 1525.05 730.121 1532.89 730.118 1540.72 730.118 1547.61 723.758 1547.61 715.919L1547.61 656.701 1493.31 642.528 1479.09 668.377Z" fill="#00B050"/><path d="M1569.46 545.961 1527.34 517.955 1516.16 507.048 1512.96 499.766C1511.51 496.466 1509.63 496.626 1508.77 500.127L1503.77 520.387 1441.58 585.172 1319.78 585.172 1303.11 585.172C1303.11 585.172 1267 584.627 1267 619.459L1267 673.272 1289.84 673.272C1289.84 673.272 1289.84 626.986 1289.84 619.972 1289.84 613.596 1294.22 604.046 1302.52 602.359L1303.72 666.746 1322.47 689.759 1322.47 689.931 1303.32 721.79C1299.28 728.446 1301.27 737.059 1307.69 740.95 1314.12 744.84 1322.7 742.661 1326.73 735.995L1357.21 685.687 1339.01 666.746 1445.51 666.746 1449.34 701.893 1449.34 701.893 1423.16 713.875 1411.03 676.338 1389.75 670.456 1353.09 670.433 1387.73 695.074 1387.73 695.074 1398.49 730.96C1400.26 737.027 1405.88 740.946 1411.88 741.109 1410.36 739.806 1409.22 738.193 1408.33 736.262 1409.22 738.187 1410.5 739.806 1412.02 741.109 1416.1 744.623 1421.99 745.72 1427.18 743.343L1481.03 718.715 1475.83 667.298 1525.34 567.115 1559.52 573.622C1565.51 574.734 1571.89 571.997 1575.06 566.34 1579.14 559.199 1576.56 550.027 1569.46 545.961Z" fill="#00B050"/></g></g></g><g clip-path="url(#clip4)"><g clip-path="url(#clip5)"><g clip-path="url(#clip6)"><path d="M1602.09 919.377 1602.09 919.581 1641.25 929.536 1641.25 966.919C1641.25 974.758 1648.05 981.122 1655.88 981.118 1663.72 981.118 1670.61 974.758 1670.61 966.919L1670.61 907.702 1616.31 893.528 1602.09 919.377Z" fill="#00B050"/><path d="M1692.46 796.961 1650.34 768.955 1639.16 758.048 1635.96 750.766C1634.51 747.466 1632.63 747.625 1631.77 751.127L1626.77 771.387 1564.58 836.172 1442.78 836.172 1426.11 836.172C1426.11 836.172 1390 835.627 1390 870.459L1390 924.272 1412.84 924.272C1412.84 924.272 1412.84 877.986 1412.84 870.972 1412.84 864.596 1417.22 855.046 1425.52 853.359L1426.72 917.746 1445.47 940.759 1445.47 940.931 1426.32 972.79C1422.28 979.447 1424.27 988.059 1430.69 991.95 1437.12 995.84 1445.7 993.661 1449.73 986.995L1480.21 936.687 1462.01 917.747 1568.51 917.747 1572.34 952.893 1572.34 952.893 1546.16 964.875 1534.03 927.338 1512.75 921.456 1476.09 921.433 1510.73 946.074 1510.73 946.074 1521.49 981.96C1523.26 988.027 1528.88 991.947 1534.88 992.109 1533.36 990.806 1532.22 989.193 1531.33 987.262 1532.22 989.187 1533.5 990.806 1535.02 992.109 1539.1 995.624 1544.99 996.72 1550.18 994.343L1604.03 969.715 1598.83 918.298 1648.34 818.115 1682.52 824.622C1688.51 825.734 1694.89 822.997 1698.06 817.34 1702.14 810.199 1699.56 801.027 1692.46 796.961Z" fill="#00B050"/></g></g></g><g clip-path="url(#clip7)"><g clip-path="url(#clip8)"><g clip-path="url(#clip9)"><path d="M212.09 202.377 212.09 202.581 251.246 212.535 251.246 249.919C251.246 257.758 258.053 264.121 265.885 264.118 273.723 264.118 280.612 257.758 280.612 249.919L280.612 190.701 226.309 176.528 212.09 202.377Z" fill="#00B050" transform="matrix(1.00323 0 0 1 1482 962)"/><path d="M302.459 79.9612 260.34 51.9552 249.156 41.0483 245.956 33.7656C244.509 30.4658 242.63 30.6254 241.769 34.1274L236.766 54.3871 174.583 119.172 52.7838 119.172 36.1075 119.172C36.1075 119.172 0 118.627 0 153.459L0 207.271 22.8403 207.271C22.8403 207.271 22.8403 160.985 22.8403 153.972 22.8403 147.596 27.2216 138.046 35.5161 136.359L36.7204 200.746 55.4696 223.759 55.4696 223.931 36.3155 255.789C32.2799 262.446 34.267 271.059 40.6925 274.949 47.1195 278.84 55.6976 276.66 59.7316 269.995L90.2131 219.687 72.0084 200.746 178.508 200.746 182.341 235.893 182.344 235.893 156.16 247.874 144.029 210.338 122.745 204.456 86.0853 204.433 120.729 229.074 120.729 229.074 131.489 264.96C133.257 271.027 138.88 274.946 144.88 275.108 143.363 273.805 142.218 272.193 141.333 270.262 142.217 272.187 143.503 273.805 145.017 275.108 149.098 278.623 154.986 279.72 160.183 277.343L214.034 252.714 208.828 201.298 258.336 101.115 292.523 107.622C298.508 108.734 304.887 105.997 308.057 100.339 312.139 93.1992 309.558 84.027 302.459 79.9612Z" fill="#00B050" transform="matrix(1.00323 0 0 1 1482 962)"/></g></g></g><g clip-path="url(#clip10)"><g clip-path="url(#clip11)"><g clip-path="url(#clip12)"><path d="M1818.09 1401.38 1818.09 1401.58 1857.25 1411.54 1857.25 1448.92C1857.25 1456.76 1864.05 1463.12 1871.88 1463.12 1879.72 1463.12 1886.61 1456.76 1886.61 1448.92L1886.61 1389.7 1832.31 1375.53 1818.09 1401.38Z" fill="#00B050"/><path d="M1908.46 1278.96 1866.34 1250.96 1855.16 1240.05 1851.96 1232.77C1850.51 1229.47 1848.63 1229.63 1847.77 1233.13L1842.77 1253.39 1780.58 1318.17 1658.78 1318.17 1642.11 1318.17C1642.11 1318.17 1606 1317.63 1606 1352.46L1606 1406.27 1628.84 1406.27C1628.84 1406.27 1628.84 1359.99 1628.84 1352.97 1628.84 1346.6 1633.22 1337.05 1641.52 1335.36L1642.72 1399.75 1661.47 1422.76 1661.47 1422.93 1642.32 1454.79C1638.28 1461.45 1640.27 1470.06 1646.69 1473.95 1653.12 1477.84 1661.7 1475.66 1665.73 1468.99L1696.21 1418.69 1678.01 1399.75 1784.51 1399.75 1788.34 1434.89 1788.34 1434.89 1762.16 1446.87 1750.03 1409.34 1728.75 1403.46 1692.09 1403.43 1726.73 1428.07 1726.73 1428.07 1737.49 1463.96C1739.26 1470.03 1744.88 1473.95 1750.88 1474.11 1749.36 1472.81 1748.22 1471.19 1747.33 1469.26 1748.22 1471.19 1749.5 1472.81 1751.02 1474.11 1755.1 1477.62 1760.99 1478.72 1766.18 1476.34L1820.03 1451.71 1814.83 1400.3 1864.34 1300.12 1898.52 1306.62C1904.51 1307.73 1910.89 1305 1914.06 1299.34 1918.14 1292.2 1915.56 1283.03 1908.46 1278.96Z" fill="#00B050"/></g></g></g><g clip-path="url(#clip13)"><g clip-path="url(#clip14)"><g clip-path="url(#clip15)"><path d="M212.091 202.377 212.091 202.581 251.246 212.535 251.246 249.919C251.246 257.758 258.053 264.121 265.885 264.118 273.723 264.118 280.612 257.758 280.612 249.919L280.612 190.702 226.309 176.528 212.091 202.377Z" fill="#00B050" transform="matrix(1.00323 0 0 1 1700 1458)"/><path d="M302.459 79.9613 260.34 51.9553 249.156 41.0483 245.957 33.7657C244.51 30.4659 242.63 30.6254 241.77 34.1274L236.767 54.3871 174.583 119.172 52.7839 119.172 36.1075 119.172C36.1075 119.172 0 118.627 0 153.459L0 207.272 22.8404 207.272C22.8404 207.272 22.8404 160.986 22.8404 153.972 22.8404 147.596 27.2216 138.046 35.5161 136.359L36.7205 200.746 55.4696 223.759 55.4696 223.931 36.3156 255.79C32.2799 262.447 34.267 271.059 40.6925 274.95 47.1196 278.84 55.6977 276.661 59.7317 269.995L90.2132 219.687 72.0085 200.747 178.508 200.747 182.341 235.893 182.345 235.893 156.16 247.875 144.029 210.338 122.745 204.456 86.0854 204.433 120.729 229.074 120.729 229.074 131.489 264.96C133.257 271.027 138.88 274.947 144.88 275.109 143.364 273.806 142.218 272.193 141.333 270.262 142.218 272.187 143.503 273.806 145.017 275.109 149.099 278.624 154.986 279.72 160.183 277.343L214.035 252.715 208.828 201.298 258.336 101.115 292.524 107.622C298.508 108.734 304.887 105.997 308.057 100.34 312.14 93.1993 309.559 84.0271 302.459 79.9613Z" fill="#00B050" transform="matrix(1.00323 0 0 1 1700 1458)"/></g></g></g><text font-family="Teko,Teko_MSFontService,sans-serif" font-weight="700" font-size="202" transform="matrix(1 0 0 1 3726.32 1681)">1<tspan font-size="134" x="65.3125" y="-60">st</tspan><tspan font-size="202" x="-347.426" y="-264">2</tspan><tspan font-size="134" x="-252.895" y="-324">nd</tspan><tspan font-size="202" x="-615.575" y="-526">3</tspan><tspan font-size="134" x="-519.325" y="-586">rd</tspan><tspan font-size="202" x="-849.67" y="-771">4</tspan><tspan font-size="134" x="-747.69" y="-831">th</tspan><tspan font-size="202" x="-1174.5" y="-1039">5</tspan><tspan font-size="134" x="-1074.24" y="-1099">th</tspan></text><g clip-path="url(#clip16)"><g clip-path="url(#clip17)"><g clip-path="url(#clip18)"><path d="M2391.09 673.377 2391.09 673.581 2430.25 683.535 2430.25 720.919C2430.25 728.758 2437.05 735.121 2444.88 735.118 2452.72 735.118 2459.61 728.758 2459.61 720.919L2459.61 661.702 2405.31 647.528 2391.09 673.377Z" fill="#00B050"/><path d="M2481.46 550.961 2439.34 522.955 2428.16 512.048 2424.96 504.766C2423.51 501.466 2421.63 501.625 2420.77 505.127L2415.77 525.387 2353.58 590.172 2231.78 590.172 2215.11 590.172C2215.11 590.172 2179 589.627 2179 624.459L2179 678.272 2201.84 678.272C2201.84 678.272 2201.84 631.986 2201.84 624.972 2201.84 618.596 2206.22 609.046 2214.52 607.359L2215.72 671.746 2234.47 694.759 2234.47 694.931 2215.32 726.79C2211.28 733.446 2213.27 742.059 2219.69 745.95 2226.12 749.84 2234.7 747.661 2238.73 740.995L2269.21 690.687 2251.01 671.746 2357.51 671.746 2361.34 706.893 2361.34 706.893 2335.16 718.875 2323.03 681.338 2301.75 675.456 2265.09 675.433 2299.73 700.074 2299.73 700.074 2310.49 735.96C2312.26 742.027 2317.88 745.946 2323.88 746.109 2322.36 744.806 2321.22 743.193 2320.33 741.262 2321.22 743.187 2322.5 744.806 2324.02 746.109 2328.1 749.624 2333.99 750.72 2339.18 748.343L2393.03 723.715 2387.83 672.298 2437.34 572.115 2471.52 578.622C2477.51 579.734 2483.89 576.997 2487.06 571.34 2491.14 564.199 2488.56 555.027 2481.46 550.961Z" fill="#00B050"/></g></g></g><g clip-path="url(#clip19)"><g clip-path="url(#clip20)"><g clip-path="url(#clip21)"><path d="M212.091 202.377 212.091 202.581 251.246 212.535 251.246 249.919C251.246 257.758 258.053 264.121 265.885 264.118 273.723 264.118 280.612 257.758 280.612 249.919L280.612 190.702 226.309 176.528 212.091 202.377Z" fill="#00B050" transform="matrix(1 0 0 1.00322 2474 729)"/><path d="M302.459 79.9613 260.34 51.9553 249.156 41.0483 245.957 33.7657C244.51 30.4659 242.63 30.6254 241.77 34.1274L236.767 54.3871 174.583 119.172 52.7839 119.172 36.1075 119.172C36.1075 119.172 0 118.627 0 153.459L0 207.272 22.8404 207.272C22.8404 207.272 22.8404 160.986 22.8404 153.972 22.8404 147.596 27.2216 138.046 35.5161 136.359L36.7205 200.746 55.4696 223.759 55.4696 223.931 36.3156 255.79C32.2799 262.447 34.267 271.059 40.6925 274.95 47.1196 278.84 55.6977 276.661 59.7317 269.995L90.2132 219.687 72.0085 200.747 178.508 200.747 182.341 235.893 182.345 235.893 156.16 247.875 144.029 210.338 122.745 204.456 86.0854 204.433 120.729 229.074 120.729 229.074 131.489 264.96C133.257 271.027 138.88 274.947 144.88 275.109 143.364 273.806 142.218 272.193 141.333 270.262 142.218 272.187 143.503 273.806 145.017 275.109 149.099 278.624 154.986 279.72 160.183 277.343L214.035 252.715 208.828 201.298 258.336 101.115 292.524 107.622C298.508 108.734 304.887 105.997 308.057 100.34 312.14 93.1993 309.559 84.0271 302.459 79.9613Z" fill="#00B050" transform="matrix(1 0 0 1.00322 2474 729)"/></g></g></g><g clip-path="url(#clip22)"><g clip-path="url(#clip23)"><g clip-path="url(#clip24)"><path d="M2938.09 1158.38 2938.09 1158.58 2977.25 1168.54 2977.25 1205.92C2977.25 1213.76 2984.05 1220.12 2991.88 1220.12 2999.72 1220.12 3006.61 1213.76 3006.61 1205.92L3006.61 1146.7 2952.31 1132.53 2938.09 1158.38Z" fill="#002060"/><path d="M3028.46 1035.96 2986.34 1007.96 2975.16 997.048 2971.96 989.766C2970.51 986.466 2968.63 986.625 2967.77 990.127L2962.77 1010.39 2900.58 1075.17 2778.78 1075.17 2762.11 1075.17C2762.11 1075.17 2726 1074.63 2726 1109.46L2726 1163.27 2748.84 1163.27C2748.84 1163.27 2748.84 1116.99 2748.84 1109.97 2748.84 1103.6 2753.22 1094.05 2761.52 1092.36L2762.72 1156.75 2781.47 1179.76 2781.47 1179.93 2762.32 1211.79C2758.28 1218.45 2760.27 1227.06 2766.69 1230.95 2773.12 1234.84 2781.7 1232.66 2785.73 1225.99L2816.21 1175.69 2798.01 1156.75 2904.51 1156.75 2908.34 1191.89 2908.34 1191.89 2882.16 1203.87 2870.03 1166.34 2848.75 1160.46 2812.09 1160.43 2846.73 1185.07 2846.73 1185.07 2857.49 1220.96C2859.26 1227.03 2864.88 1230.95 2870.88 1231.11 2869.36 1229.81 2868.22 1228.19 2867.33 1226.26 2868.22 1228.19 2869.5 1229.81 2871.02 1231.11 2875.1 1234.62 2880.99 1235.72 2886.18 1233.34L2940.03 1208.71 2934.83 1157.3 2984.34 1057.12 3018.52 1063.62C3024.51 1064.73 3030.89 1062 3034.06 1056.34 3038.14 1049.2 3035.56 1040.03 3028.46 1035.96Z" fill="#002060"/></g></g></g><g clip-path="url(#clip25)"><g clip-path="url(#clip26)"><g clip-path="url(#clip27)"><path d="M3203.09 1405.38 3203.09 1405.58 3242.25 1415.54 3242.25 1452.92C3242.25 1460.76 3249.05 1467.12 3256.88 1467.12 3264.72 1467.12 3271.61 1460.76 3271.61 1452.92L3271.61 1393.7 3217.31 1379.53 3203.09 1405.38Z" fill="#002060"/><path d="M3293.46 1282.96 3251.34 1254.96 3240.16 1244.05 3236.96 1236.77C3235.51 1233.47 3233.63 1233.63 3232.77 1237.13L3227.77 1257.39 3165.58 1322.17 3043.78 1322.17 3027.11 1322.17C3027.11 1322.17 2991 1321.63 2991 1356.46L2991 1410.27 3013.84 1410.27C3013.84 1410.27 3013.84 1363.99 3013.84 1356.97 3013.84 1350.6 3018.22 1341.05 3026.52 1339.36L3027.72 1403.75 3046.47 1426.76 3046.47 1426.93 3027.32 1458.79C3023.28 1465.45 3025.27 1474.06 3031.69 1477.95 3038.12 1481.84 3046.7 1479.66 3050.73 1472.99L3081.21 1422.69 3063.01 1403.75 3169.51 1403.75 3173.34 1438.89 3173.34 1438.89 3147.16 1450.87 3135.03 1413.34 3113.75 1407.46 3077.09 1407.43 3111.73 1432.07 3111.73 1432.07 3122.49 1467.96C3124.26 1474.03 3129.88 1477.95 3135.88 1478.11 3134.36 1476.81 3133.22 1475.19 3132.33 1473.26 3133.22 1475.19 3134.5 1476.81 3136.02 1478.11 3140.1 1481.62 3145.99 1482.72 3151.18 1480.34L3205.03 1455.71 3199.83 1404.3 3249.34 1304.12 3283.52 1310.62C3289.51 1311.73 3295.89 1309 3299.06 1303.34 3303.14 1296.2 3300.56 1287.03 3293.46 1282.96Z" fill="#002060"/></g></g></g><g clip-path="url(#clip28)"><g clip-path="url(#clip29)"><g clip-path="url(#clip30)"><path d="M297.406 86.703 267.98 67.0859 297.89 0.242187 255.508 54.9765 257.687 35.6015 173.89 122.183 171.953 124.242 140.59 124.242 98.5702 124.242 49.0429 124.242 33.1797 124.242C15.9844 124.242 2.17969 138.168 2.17969 155.242L2.17969 206.707 24.2187 206.707 24.2187 155.848 35.6015 138.289 35.6015 199.441 24.0976 217.484 24.0976 295.347C24.0976 302.976 30.5156 309.273 38.1445 309.273 45.8945 309.273 52.0703 302.976 52.0703 295.347L52.0703 227.898 65.7538 206.222 65.7538 229.351 96.6327 302.008C100.508 308.668 108.984 311.09 115.766 307.215 122.426 303.461 124.848 294.984 120.973 288.203L94.5741 225.234 107.168 203.801 177.644 203.801 177.644 295.468C177.644 303.097 183.941 309.394 191.57 309.394 199.32 309.394 205.617 303.097 205.617 295.468L205.617 205.859 254.176 107.41 276.457 111.648C276.457 111.769 276.457 111.769 276.336 111.891L284.086 113.344C284.086 113.344 284.086 113.223 284.086 113.223L287.476 113.828C293.41 114.918 299.586 112.254 302.734 106.683 306.851 99.6601 304.308 90.6991 297.406 86.703ZM254.66 79.8007C252.238 79.8007 250.301 77.8632 250.301 75.4413 250.301 73.0195 252.238 71.082 254.66 71.082 257.082 71.082 259.019 73.0195 259.019 75.4413 259.019 77.8632 257.082 79.8007 254.66 79.8007Z" fill="#A56DBB" transform="matrix(1.18065 0 0 1 3301 1434)"/></g></g></g><text font-family="Teko,Teko_MSFontService,sans-serif" font-weight="700" font-size="165" transform="matrix(1 0 0 1 666.84 696)">Group E<tspan font-size="165" x="106.984" y="249">Group D</tspan><tspan font-size="165" x="223.203" y="489">Group C</tspan><tspan font-size="165" x="330.801" y="731">Group B</tspan><tspan font-size="165" x="435.006" y="975">Group A</tspan><tspan font-size="202" x="654.833" y="-270">1</tspan><tspan font-size="134" x="720.145" y="-330">st</tspan></text><path d="M2054 1124.5 2361.25 1124.5 2361.25 1100 2496 1149 2361.25 1198 2361.25 1173.5 2054 1173.5Z" fill="#C00000" fill-rule="evenodd"/></g></svg>