<svg width="1976" height="945" xmlns="http://www.w3.org/2000/svg" xmlns:xlink="http://www.w3.org/1999/xlink" overflow="hidden"><defs><clipPath id="clip0"><rect x="1212" y="645" width="1976" height="945"/></clipPath><clipPath id="clip1"><rect x="1212" y="652" width="311" height="311"/></clipPath><clipPath id="clip2"><rect x="1212" y="652" width="311" height="311"/></clipPath><clipPath id="clip3"><rect x="1212" y="652" width="311" height="311"/></clipPath><clipPath id="clip4"><rect x="1335" y="807" width="310" height="311"/></clipPath><clipPath id="clip5"><rect x="1335" y="807" width="310" height="311"/></clipPath><clipPath id="clip6"><rect x="1335" y="807" width="310" height="311"/></clipPath><clipPath id="clip7"><rect x="1427" y="965" width="311" height="311"/></clipPath><clipPath id="clip8"><rect x="1427" y="965" width="311" height="311"/></clipPath><clipPath id="clip9"><rect x="1427" y="965" width="311" height="311"/></clipPath><clipPath id="clip10"><rect x="1551" y="1120" width="311" height="312"/></clipPath><clipPath id="clip11"><rect x="1551" y="1120" width="311" height="312"/></clipPath><clipPath id="clip12"><rect x="1551" y="1120" width="311" height="312"/></clipPath><clipPath id="clip13"><rect x="1644" y="1280" width="312" height="310"/></clipPath><clipPath id="clip14"><rect x="1644" y="1280" width="312" height="310"/></clipPath><clipPath id="clip15"><rect x="1644" y="1280" width="312" height="310"/></clipPath><clipPath id="clip16"><rect x="1522" y="652" width="311" height="311"/></clipPath><clipPath id="clip17"><rect x="1522" y="652" width="311" height="311"/></clipPath><clipPath id="clip18"><rect x="1522" y="652" width="311" height="311"/></clipPath><clipPath id="clip19"><rect x="1644" y="807" width="312" height="311"/></clipPath><clipPath id="clip20"><rect x="1644" y="807" width="312" height="311"/></clipPath><clipPath id="clip21"><rect x="1644" y="807" width="312" height="311"/></clipPath><clipPath id="clip22"><rect x="1738" y="965" width="311" height="311"/></clipPath><clipPath id="clip23"><rect x="1738" y="965" width="311" height="311"/></clipPath><clipPath id="clip24"><rect x="1738" y="965" width="311" height="311"/></clipPath><clipPath id="clip25"><rect x="1861" y="1120" width="311" height="312"/></clipPath><clipPath id="clip26"><rect x="1861" y="1120" width="311" height="312"/></clipPath><clipPath id="clip27"><rect x="1861" y="1120" width="311" height="312"/></clipPath><clipPath id="clip28"><rect x="1955" y="1280" width="311" height="310"/></clipPath><clipPath id="clip29"><rect x="1955" y="1280" width="311" height="310"/></clipPath><clipPath id="clip30"><rect x="1955" y="1280" width="311" height="310"/></clipPath><clipPath id="clip31"><rect x="1830" y="649" width="311" height="311"/></clipPath><clipPath id="clip32"><rect x="1830" y="649" width="311" height="311"/></clipPath><clipPath id="clip33"><rect x="1830" y="649" width="311" height="311"/></clipPath><clipPath id="clip34"><rect x="1952" y="804" width="312" height="311"/></clipPath><clipPath id="clip35"><rect x="1952" y="804" width="312" height="311"/></clipPath><clipPath id="clip36"><rect x="1952" y="804" width="312" height="311"/></clipPath><clipPath id="clip37"><rect x="2046" y="962" width="311" height="311"/></clipPath><clipPath id="clip38"><rect x="2046" y="962" width="311" height="311"/></clipPath><clipPath id="clip39"><rect x="2046" y="962" width="311" height="311"/></clipPath><clipPath id="clip40"><rect x="2169" y="1117" width="311" height="311"/></clipPath><clipPath id="clip41"><rect x="2169" y="1117" width="311" height="311"/></clipPath><clipPath id="clip42"><rect x="2169" y="1117" width="311" height="311"/></clipPath><clipPath id="clip43"><rect x="2263" y="1276" width="311" height="311"/></clipPath><clipPath id="clip44"><rect x="2263" y="1276" width="311" height="311"/></clipPath><clipPath id="clip45"><rect x="2263" y="1276" width="311" height="311"/></clipPath><clipPath id="clip46"><rect x="2140" y="649" width="311" height="311"/></clipPath><clipPath id="clip47"><rect x="2140" y="649" width="311" height="311"/></clipPath><clipPath id="clip48"><rect x="2140" y="649" width="311" height="311"/></clipPath><clipPath id="clip49"><rect x="2263" y="804" width="311" height="311"/></clipPath><clipPath id="clip50"><rect x="2263" y="804" width="311" height="311"/></clipPath><clipPath id="clip51"><rect x="2263" y="804" width="311" height="311"/></clipPath><clipPath id="clip52"><rect x="2356" y="962" width="311" height="311"/></clipPath><clipPath id="clip53"><rect x="2356" y="962" width="311" height="311"/></clipPath><clipPath id="clip54"><rect x="2356" y="962" width="311" height="311"/></clipPath><clipPath id="clip55"><rect x="2479" y="1117" width="310" height="311"/></clipPath><clipPath id="clip56"><rect x="2479" y="1117" width="310" height="311"/></clipPath><clipPath id="clip57"><rect x="2479" y="1117" width="310" height="311"/></clipPath><clipPath id="clip58"><rect x="2574" y="1276" width="311" height="311"/></clipPath><clipPath id="clip59"><rect x="2574" y="1276" width="311" height="311"/></clipPath><clipPath id="clip60"><rect x="2574" y="1276" width="311" height="311"/></clipPath><clipPath id="clip61"><rect x="2444" y="644" width="312" height="311"/></clipPath><clipPath id="clip62"><rect x="2444" y="644" width="312" height="311"/></clipPath><clipPath id="clip63"><rect x="2444" y="644" width="312" height="311"/></clipPath><clipPath id="clip64"><rect x="2567" y="799" width="311" height="311"/></clipPath><clipPath id="clip65"><rect x="2567" y="799" width="311" height="311"/></clipPath><clipPath id="clip66"><rect x="2567" y="799" width="311" height="311"/></clipPath><clipPath id="clip67"><rect x="2659" y="959" width="311" height="311"/></clipPath><clipPath id="clip68"><rect x="2659" y="959" width="311" height="311"/></clipPath><clipPath id="clip69"><rect x="2659" y="959" width="311" height="311"/></clipPath><clipPath id="clip70"><rect x="2783" y="1114" width="311" height="311"/></clipPath><clipPath id="clip71"><rect x="2783" y="1114" width="311" height="311"/></clipPath><clipPath id="clip72"><rect x="2783" y="1114" width="311" height="311"/></clipPath><clipPath id="clip73"><rect x="2877" y="1272" width="311" height="311"/></clipPath><clipPath id="clip74"><rect x="2877" y="1272" width="311" height="311"/></clipPath><clipPath id="clip75"><rect x="2877" y="1272" width="311" height="311"/></clipPath></defs><g clip-path="url(#clip0)" transform="translate(-1212 -645)"><g clip-path="url(#clip1)"><g clip-path="url(#clip2)"><g clip-path="url(#clip3)"><path d="M1424.09 854.377 1424.09 854.581 1463.25 864.536 1463.25 901.919C1463.25 909.758 1470.05 916.122 1477.89 916.118 1485.72 916.118 1492.61 909.758 1492.61 901.919L1492.61 842.702 1438.31 828.528 1424.09 854.377Z" fill="#FC9804"/><path d="M1514.46 731.961 1472.34 703.955 1461.16 693.048 1457.96 685.766C1456.51 682.466 1454.63 682.626 1453.77 686.128L1448.77 706.387 1386.58 771.172 1264.78 771.172 1248.11 771.172C1248.11 771.172 1212 770.627 1212 805.459L1212 859.272 1234.84 859.272C1234.84 859.272 1234.84 812.986 1234.84 805.972 1234.84 799.596 1239.22 790.046 1247.52 788.359L1248.72 852.746 1267.47 875.759 1267.47 875.931 1248.32 907.79C1244.28 914.447 1246.27 923.059 1252.69 926.95 1259.12 930.84 1267.7 928.661 1271.73 921.995L1302.21 871.687 1284.01 852.747 1390.51 852.747 1394.34 887.893 1394.34 887.893 1368.16 899.875 1356.03 862.338 1334.75 856.456 1298.09 856.434 1332.73 881.074 1332.73 881.074 1343.49 916.96C1345.26 923.027 1350.88 926.947 1356.88 927.109 1355.36 925.806 1354.22 924.193 1353.33 922.262 1354.22 924.187 1355.5 925.806 1357.02 927.109 1361.1 930.624 1366.99 931.72 1372.18 929.343L1426.03 904.715 1420.83 853.298 1470.34 753.115 1504.52 759.622C1510.51 760.734 1516.89 757.997 1520.06 752.34 1524.14 745.199 1521.56 736.027 1514.46 731.961Z" fill="#FC9804"/></g></g></g><g clip-path="url(#clip4)"><g clip-path="url(#clip5)"><g clip-path="url(#clip6)"><path d="M212.09 202.377 212.09 202.581 251.246 212.535 251.246 249.919C251.246 257.758 258.053 264.121 265.885 264.118 273.723 264.118 280.612 257.758 280.612 249.919L280.612 190.701 226.309 176.528 212.09 202.377Z" fill="#FC9804" transform="matrix(1 0 0 1.00323 1335 807)"/><path d="M302.459 79.9612 260.34 51.9552 249.156 41.0483 245.956 33.7656C244.509 30.4658 242.63 30.6254 241.769 34.1274L236.766 54.3871 174.583 119.172 52.7838 119.172 36.1075 119.172C36.1075 119.172 0 118.627 0 153.459L0 207.271 22.8403 207.271C22.8403 207.271 22.8403 160.985 22.8403 153.972 22.8403 147.596 27.2216 138.046 35.5161 136.359L36.7204 200.746 55.4696 223.759 55.4696 223.931 36.3155 255.789C32.2799 262.446 34.267 271.059 40.6925 274.949 47.1195 278.84 55.6976 276.66 59.7316 269.995L90.2131 219.687 72.0084 200.746 178.508 200.746 182.341 235.893 182.344 235.893 156.16 247.874 144.029 210.338 122.745 204.456 86.0853 204.433 120.729 229.074 120.729 229.074 131.489 264.96C133.257 271.027 138.88 274.946 144.88 275.108 143.363 273.805 142.218 272.193 141.333 270.262 142.217 272.187 143.503 273.805 145.017 275.108 149.098 278.623 154.986 279.72 160.183 277.343L214.034 252.714 208.828 201.298 258.336 101.115 292.523 107.622C298.508 108.734 304.887 105.997 308.057 100.339 312.139 93.1992 309.558 84.027 302.459 79.9612Z" fill="#FC9804" transform="matrix(1 0 0 1.00323 1335 807)"/></g></g></g><g clip-path="url(#clip7)"><g clip-path="url(#clip8)"><g clip-path="url(#clip9)"><path d="M1640.09 1168.38 1640.09 1168.58 1679.25 1178.54 1679.25 1215.92C1679.25 1223.76 1686.05 1230.12 1693.88 1230.12 1701.72 1230.12 1708.61 1223.76 1708.61 1215.92L1708.61 1156.7 1654.31 1142.53 1640.09 1168.38Z" fill="#FC9804"/><path d="M1730.46 1045.96 1688.34 1017.96 1677.16 1007.05 1673.96 999.766C1672.51 996.466 1670.63 996.625 1669.77 1000.13L1664.77 1020.39 1602.58 1085.17 1480.78 1085.17 1464.11 1085.17C1464.11 1085.17 1428 1084.63 1428 1119.46L1428 1173.27 1450.84 1173.27C1450.84 1173.27 1450.84 1126.99 1450.84 1119.97 1450.84 1113.6 1455.22 1104.05 1463.52 1102.36L1464.72 1166.75 1483.47 1189.76 1483.47 1189.93 1464.32 1221.79C1460.28 1228.45 1462.27 1237.06 1468.69 1240.95 1475.12 1244.84 1483.7 1242.66 1487.73 1235.99L1518.21 1185.69 1500.01 1166.75 1606.51 1166.75 1610.34 1201.89 1610.34 1201.89 1584.16 1213.87 1572.03 1176.34 1550.75 1170.46 1514.09 1170.43 1548.73 1195.07 1548.73 1195.07 1559.49 1230.96C1561.26 1237.03 1566.88 1240.95 1572.88 1241.11 1571.36 1239.81 1570.22 1238.19 1569.33 1236.26 1570.22 1238.19 1571.5 1239.81 1573.02 1241.11 1577.1 1244.62 1582.99 1245.72 1588.18 1243.34L1642.03 1218.71 1636.83 1167.3 1686.34 1067.12 1720.52 1073.62C1726.51 1074.73 1732.89 1072 1736.06 1066.34 1740.14 1059.2 1737.56 1050.03 1730.46 1045.96Z" fill="#FC9804"/></g></g></g><g clip-path="url(#clip10)"><g clip-path="url(#clip11)"><g clip-path="url(#clip12)"><path d="M1763.09 1323.38 1763.09 1323.58 1802.25 1333.54 1802.25 1370.92C1802.25 1378.76 1809.05 1385.12 1816.88 1385.12 1824.72 1385.12 1831.61 1378.76 1831.61 1370.92L1831.61 1311.7 1777.31 1297.53 1763.09 1323.38Z" fill="#FC9804"/><path d="M1853.46 1200.96 1811.34 1172.96 1800.16 1162.05 1796.96 1154.77C1795.51 1151.47 1793.63 1151.63 1792.77 1155.13L1787.77 1175.39 1725.58 1240.17 1603.78 1240.17 1587.11 1240.17C1587.11 1240.17 1551 1239.63 1551 1274.46L1551 1328.27 1573.84 1328.27C1573.84 1328.27 1573.84 1281.99 1573.84 1274.97 1573.84 1268.6 1578.22 1259.05 1586.52 1257.36L1587.72 1321.75 1606.47 1344.76 1606.47 1344.93 1587.32 1376.79C1583.28 1383.45 1585.27 1392.06 1591.69 1395.95 1598.12 1399.84 1606.7 1397.66 1610.73 1390.99L1641.21 1340.69 1623.01 1321.75 1729.51 1321.75 1733.34 1356.89 1733.34 1356.89 1707.16 1368.87 1695.03 1331.34 1673.75 1325.46 1637.09 1325.43 1671.73 1350.07 1671.73 1350.07 1682.49 1385.96C1684.26 1392.03 1689.88 1395.95 1695.88 1396.11 1694.36 1394.81 1693.22 1393.19 1692.33 1391.26 1693.22 1393.19 1694.5 1394.81 1696.02 1396.11 1700.1 1399.62 1705.99 1400.72 1711.18 1398.34L1765.03 1373.71 1759.83 1322.3 1809.34 1222.12 1843.52 1228.62C1849.51 1229.73 1855.89 1227 1859.06 1221.34 1863.14 1214.2 1860.56 1205.03 1853.46 1200.96Z" fill="#FC9804"/></g></g></g><g clip-path="url(#clip13)"><g clip-path="url(#clip14)"><g clip-path="url(#clip15)"><path d="M212.09 202.377 212.09 202.581 251.246 212.535 251.246 249.919C251.246 257.758 258.053 264.121 265.885 264.118 273.723 264.118 280.612 257.758 280.612 249.919L280.612 190.701 226.309 176.528 212.09 202.377Z" fill="#FC9804" transform="matrix(1.00323 0 0 1 1645 1280)"/><path d="M302.459 79.9612 260.34 51.9552 249.156 41.0483 245.956 33.7656C244.509 30.4658 242.63 30.6254 241.769 34.1274L236.766 54.3871 174.583 119.172 52.7838 119.172 36.1075 119.172C36.1075 119.172 0 118.627 0 153.459L0 207.271 22.8403 207.271C22.8403 207.271 22.8403 160.985 22.8403 153.972 22.8403 147.596 27.2216 138.046 35.5161 136.359L36.7204 200.746 55.4696 223.759 55.4696 223.931 36.3155 255.789C32.2799 262.446 34.267 271.059 40.6925 274.949 47.1195 278.84 55.6976 276.66 59.7316 269.995L90.2131 219.687 72.0084 200.746 178.508 200.746 182.341 235.893 182.344 235.893 156.16 247.874 144.029 210.338 122.745 204.456 86.0853 204.433 120.729 229.074 120.729 229.074 131.489 264.96C133.257 271.027 138.88 274.946 144.88 275.108 143.363 273.805 142.218 272.193 141.333 270.262 142.217 272.187 143.503 273.805 145.017 275.108 149.098 278.623 154.986 279.72 160.183 277.343L214.034 252.714 208.828 201.298 258.336 101.115 292.523 107.622C298.508 108.734 304.887 105.997 308.057 100.339 312.139 93.1992 309.558 84.027 302.459 79.9612Z" fill="#FC9804" transform="matrix(1.00323 0 0 1 1645 1280)"/></g></g></g><g clip-path="url(#clip16)"><g clip-path="url(#clip17)"><g clip-path="url(#clip18)"><path d="M212.091 202.377 212.091 202.581 251.246 212.535 251.246 249.919C251.246 257.758 258.053 264.121 265.885 264.118 273.723 264.118 280.612 257.758 280.612 249.919L280.612 190.702 226.309 176.528 212.091 202.377Z" fill="#FC9804" transform="matrix(1.00322 0 0 1 1522 652)"/><path d="M302.459 79.9613 260.34 51.9553 249.156 41.0483 245.957 33.7657C244.51 30.4659 242.63 30.6254 241.77 34.1274L236.767 54.3871 174.583 119.172 52.7839 119.172 36.1075 119.172C36.1075 119.172 0 118.627 0 153.459L0 207.272 22.8404 207.272C22.8404 207.272 22.8404 160.986 22.8404 153.972 22.8404 147.596 27.2216 138.046 35.5161 136.359L36.7205 200.746 55.4696 223.759 55.4696 223.931 36.3156 255.79C32.2799 262.447 34.267 271.059 40.6925 274.95 47.1196 278.84 55.6977 276.661 59.7317 269.995L90.2132 219.687 72.0085 200.747 178.508 200.747 182.341 235.893 182.345 235.893 156.16 247.875 144.029 210.338 122.745 204.456 86.0854 204.433 120.729 229.074 120.729 229.074 131.489 264.96C133.257 271.027 138.88 274.947 144.88 275.109 143.364 273.806 142.218 272.193 141.333 270.262 142.218 272.187 143.503 273.806 145.017 275.109 149.099 278.624 154.986 279.72 160.183 277.343L214.035 252.715 208.828 201.298 258.336 101.115 292.524 107.622C298.508 108.734 304.887 105.997 308.057 100.34 312.14 93.1993 309.559 84.0271 302.459 79.9613Z" fill="#FC9804" transform="matrix(1.00322 0 0 1 1522 652)"/></g></g></g><g clip-path="url(#clip19)"><g clip-path="url(#clip20)"><g clip-path="url(#clip21)"><path d="M1857.77 1010.03 1857.77 1010.23 1897.06 1020.22 1897.06 1057.73C1897.06 1065.59 1903.89 1071.97 1911.74 1071.97 1919.61 1071.97 1926.52 1065.59 1926.52 1057.73L1926.52 998.317 1872.04 984.098 1857.77 1010.03Z" fill="#FC9804"/><path d="M1948.43 887.219 1906.18 859.123 1894.96 848.181 1891.75 840.875C1890.3 837.564 1888.41 837.724 1887.55 841.238L1882.53 861.563 1820.15 926.557 1697.95 926.557 1681.22 926.557C1681.22 926.557 1645 926.01 1645 960.954L1645 1014.94 1667.91 1014.94C1667.91 1014.94 1667.91 968.505 1667.91 961.469 1667.91 955.072 1672.31 945.491 1680.63 943.799L1681.84 1008.39 1700.65 1031.48 1700.65 1031.65 1681.43 1063.61C1677.38 1070.29 1679.38 1078.93 1685.82 1082.84 1692.27 1086.74 1700.88 1084.55 1704.92 1077.87L1735.5 1027.4 1717.24 1008.39 1824.08 1008.39 1827.93 1043.65 1827.93 1043.65 1801.66 1055.67 1789.49 1018.02 1768.14 1012.12 1731.36 1012.09 1766.12 1036.81 1766.12 1036.81 1776.91 1072.81C1778.69 1078.9 1784.33 1082.83 1790.35 1083 1788.83 1081.69 1787.68 1080.07 1786.79 1078.13 1787.68 1080.06 1788.97 1081.69 1790.48 1083 1794.58 1086.52 1800.49 1087.62 1805.7 1085.24L1859.73 1060.53 1854.5 1008.95 1904.17 908.442 1938.47 914.969C1944.47 916.085 1950.87 913.339 1954.05 907.663 1958.15 900.5 1955.56 891.298 1948.43 887.219Z" fill="#FC9804"/></g></g></g><g clip-path="url(#clip22)"><g clip-path="url(#clip23)"><g clip-path="url(#clip24)"><path d="M1950.09 1168.38 1950.09 1168.58 1989.25 1178.54 1989.25 1215.92C1989.25 1223.76 1996.05 1230.12 2003.88 1230.12 2011.72 1230.12 2018.61 1223.76 2018.61 1215.92L2018.61 1156.7 1964.31 1142.53 1950.09 1168.38Z" fill="#FC9804"/><path d="M2040.46 1045.96 1998.34 1017.96 1987.16 1007.05 1983.96 999.766C1982.51 996.466 1980.63 996.625 1979.77 1000.13L1974.77 1020.39 1912.58 1085.17 1790.78 1085.17 1774.11 1085.17C1774.11 1085.17 1738 1084.63 1738 1119.46L1738 1173.27 1760.84 1173.27C1760.84 1173.27 1760.84 1126.99 1760.84 1119.97 1760.84 1113.6 1765.22 1104.05 1773.52 1102.36L1774.72 1166.75 1793.47 1189.76 1793.47 1189.93 1774.32 1221.79C1770.28 1228.45 1772.27 1237.06 1778.69 1240.95 1785.12 1244.84 1793.7 1242.66 1797.73 1235.99L1828.21 1185.69 1810.01 1166.75 1916.51 1166.75 1920.34 1201.89 1920.34 1201.89 1894.16 1213.87 1882.03 1176.34 1860.75 1170.46 1824.09 1170.43 1858.73 1195.07 1858.73 1195.07 1869.49 1230.96C1871.26 1237.03 1876.88 1240.95 1882.88 1241.11 1881.36 1239.81 1880.22 1238.19 1879.33 1236.26 1880.22 1238.19 1881.5 1239.81 1883.02 1241.11 1887.1 1244.62 1892.99 1245.72 1898.18 1243.34L1952.03 1218.71 1946.83 1167.3 1996.34 1067.12 2030.52 1073.62C2036.51 1074.73 2042.89 1072 2046.06 1066.34 2050.14 1059.2 2047.56 1050.03 2040.46 1045.96Z" fill="#FC9804"/></g></g></g><g clip-path="url(#clip25)"><g clip-path="url(#clip26)"><g clip-path="url(#clip27)"><path d="M2073.09 1323.38 2073.09 1323.58 2112.25 1333.54 2112.25 1370.92C2112.25 1378.76 2119.05 1385.12 2126.89 1385.12 2134.72 1385.12 2141.61 1378.76 2141.61 1370.92L2141.61 1311.7 2087.31 1297.53 2073.09 1323.38Z" fill="#FC9804"/><path d="M2163.46 1200.96 2121.34 1172.96 2110.16 1162.05 2106.96 1154.77C2105.51 1151.47 2103.63 1151.63 2102.77 1155.13L2097.77 1175.39 2035.58 1240.17 1913.78 1240.17 1897.11 1240.17C1897.11 1240.17 1861 1239.63 1861 1274.46L1861 1328.27 1883.84 1328.27C1883.84 1328.27 1883.84 1281.99 1883.84 1274.97 1883.84 1268.6 1888.22 1259.05 1896.52 1257.36L1897.72 1321.75 1916.47 1344.76 1916.47 1344.93 1897.32 1376.79C1893.28 1383.45 1895.27 1392.06 1901.69 1395.95 1908.12 1399.84 1916.7 1397.66 1920.73 1390.99L1951.21 1340.69 1933.01 1321.75 2039.51 1321.75 2043.34 1356.89 2043.34 1356.89 2017.16 1368.87 2005.03 1331.34 1983.75 1325.46 1947.09 1325.43 1981.73 1350.07 1981.73 1350.07 1992.49 1385.96C1994.26 1392.03 1999.88 1395.95 2005.88 1396.11 2004.36 1394.81 2003.22 1393.19 2002.33 1391.26 2003.22 1393.19 2004.5 1394.81 2006.02 1396.11 2010.1 1399.62 2015.99 1400.72 2021.18 1398.34L2075.03 1373.71 2069.83 1322.3 2119.34 1222.12 2153.52 1228.62C2159.51 1229.73 2165.89 1227 2169.06 1221.34 2173.14 1214.2 2170.56 1205.03 2163.46 1200.96Z" fill="#FC9804"/></g></g></g><g clip-path="url(#clip28)"><g clip-path="url(#clip29)"><g clip-path="url(#clip30)"><path d="M2168.09 1482.38 2168.09 1482.58 2207.25 1492.54 2207.25 1529.92C2207.25 1537.76 2214.05 1544.12 2221.88 1544.12 2229.72 1544.12 2236.61 1537.76 2236.61 1529.92L2236.61 1470.7 2182.31 1456.53 2168.09 1482.38Z" fill="#FC9804"/><path d="M2258.46 1359.96 2216.34 1331.96 2205.16 1321.05 2201.96 1313.77C2200.51 1310.47 2198.63 1310.63 2197.77 1314.13L2192.77 1334.39 2130.58 1399.17 2008.78 1399.17 1992.11 1399.17C1992.11 1399.17 1956 1398.63 1956 1433.46L1956 1487.27 1978.84 1487.27C1978.84 1487.27 1978.84 1440.99 1978.84 1433.97 1978.84 1427.6 1983.22 1418.05 1991.52 1416.36L1992.72 1480.75 2011.47 1503.76 2011.47 1503.93 1992.32 1535.79C1988.28 1542.45 1990.27 1551.06 1996.69 1554.95 2003.12 1558.84 2011.7 1556.66 2015.73 1549.99L2046.21 1499.69 2028.01 1480.75 2134.51 1480.75 2138.34 1515.89 2138.34 1515.89 2112.16 1527.87 2100.03 1490.34 2078.75 1484.46 2042.09 1484.43 2076.73 1509.07 2076.73 1509.07 2087.49 1544.96C2089.26 1551.03 2094.88 1554.95 2100.88 1555.11 2099.36 1553.81 2098.22 1552.19 2097.33 1550.26 2098.22 1552.19 2099.5 1553.81 2101.02 1555.11 2105.1 1558.62 2110.99 1559.72 2116.18 1557.34L2170.03 1532.71 2164.83 1481.3 2214.34 1381.12 2248.52 1387.62C2254.51 1388.73 2260.89 1386 2264.06 1380.34 2268.14 1373.2 2265.56 1364.03 2258.46 1359.96Z" fill="#FC9804"/></g></g></g><g clip-path="url(#clip31)"><g clip-path="url(#clip32)"><g clip-path="url(#clip33)"><path d="M212.091 202.377 212.091 202.581 251.246 212.535 251.246 249.919C251.246 257.758 258.053 264.121 265.885 264.118 273.723 264.118 280.612 257.758 280.612 249.919L280.612 190.702 226.309 176.528 212.091 202.377Z" fill="#FC9804" transform="matrix(1.00322 0 0 1 1830 649)"/><path d="M302.459 79.9613 260.34 51.9553 249.156 41.0483 245.957 33.7657C244.51 30.4659 242.63 30.6254 241.77 34.1274L236.767 54.3871 174.583 119.172 52.7839 119.172 36.1075 119.172C36.1075 119.172 0 118.627 0 153.459L0 207.272 22.8404 207.272C22.8404 207.272 22.8404 160.986 22.8404 153.972 22.8404 147.596 27.2216 138.046 35.5161 136.359L36.7205 200.746 55.4696 223.759 55.4696 223.931 36.3156 255.79C32.2799 262.447 34.267 271.059 40.6925 274.95 47.1196 278.84 55.6977 276.661 59.7317 269.995L90.2132 219.687 72.0085 200.747 178.508 200.747 182.341 235.893 182.345 235.893 156.16 247.875 144.029 210.338 122.745 204.456 86.0854 204.433 120.729 229.074 120.729 229.074 131.489 264.96C133.257 271.027 138.88 274.947 144.88 275.109 143.364 273.806 142.218 272.193 141.333 270.262 142.218 272.187 143.503 273.806 145.017 275.109 149.099 278.624 154.986 279.72 160.183 277.343L214.035 252.715 208.828 201.298 258.336 101.115 292.524 107.622C298.508 108.734 304.887 105.997 308.057 100.34 312.14 93.1993 309.559 84.0271 302.459 79.9613Z" fill="#FC9804" transform="matrix(1.00322 0 0 1 1830 649)"/></g></g></g><g clip-path="url(#clip34)"><g clip-path="url(#clip35)"><g clip-path="url(#clip36)"><path d="M212.091 202.377 212.091 202.581 251.246 212.535 251.246 249.919C251.246 257.758 258.053 264.121 265.885 264.118 273.723 264.118 280.612 257.758 280.612 249.919L280.612 190.702 226.309 176.528 212.091 202.377Z" fill="#FC9804" transform="matrix(1.00323 0 0 1 1953 804)"/><path d="M302.459 79.9613 260.34 51.9553 249.156 41.0483 245.957 33.7657C244.51 30.4659 242.63 30.6254 241.77 34.1274L236.767 54.3871 174.583 119.172 52.7839 119.172 36.1075 119.172C36.1075 119.172 0 118.627 0 153.459L0 207.272 22.8404 207.272C22.8404 207.272 22.8404 160.986 22.8404 153.972 22.8404 147.596 27.2216 138.046 35.5161 136.359L36.7205 200.746 55.4696 223.759 55.4696 223.931 36.3156 255.79C32.2799 262.447 34.267 271.059 40.6925 274.95 47.1196 278.84 55.6977 276.661 59.7317 269.995L90.2132 219.687 72.0085 200.747 178.508 200.747 182.341 235.893 182.345 235.893 156.16 247.875 144.029 210.338 122.745 204.456 86.0854 204.433 120.729 229.074 120.729 229.074 131.489 264.96C133.257 271.027 138.88 274.947 144.88 275.109 143.364 273.806 142.218 272.193 141.333 270.262 142.218 272.187 143.503 273.806 145.017 275.109 149.099 278.624 154.986 279.72 160.183 277.343L214.035 252.715 208.828 201.298 258.336 101.115 292.524 107.622C298.508 108.734 304.887 105.997 308.057 100.34 312.14 93.1993 309.559 84.0271 302.459 79.9613Z" fill="#FC9804" transform="matrix(1.00323 0 0 1 1953 804)"/></g></g></g><g clip-path="url(#clip37)"><g clip-path="url(#clip38)"><g clip-path="url(#clip39)"><path d="M212.091 202.377 212.091 202.581 251.246 212.535 251.246 249.919C251.246 257.758 258.053 264.121 265.885 264.118 273.723 264.118 280.612 257.758 280.612 249.919L280.612 190.702 226.309 176.528 212.091 202.377Z" fill="#FC9804" transform="matrix(1 0 0 1.00322 2046 962)"/><path d="M302.459 79.9613 260.34 51.9553 249.156 41.0483 245.957 33.7657C244.51 30.4659 242.63 30.6254 241.77 34.1274L236.767 54.3871 174.583 119.172 52.7839 119.172 36.1075 119.172C36.1075 119.172 0 118.627 0 153.459L0 207.272 22.8404 207.272C22.8404 207.272 22.8404 160.986 22.8404 153.972 22.8404 147.596 27.2216 138.046 35.5161 136.359L36.7205 200.746 55.4696 223.759 55.4696 223.931 36.3156 255.79C32.2799 262.447 34.267 271.059 40.6925 274.95 47.1196 278.84 55.6977 276.661 59.7317 269.995L90.2132 219.687 72.0085 200.747 178.508 200.747 182.341 235.893 182.345 235.893 156.16 247.875 144.029 210.338 122.745 204.456 86.0854 204.433 120.729 229.074 120.729 229.074 131.489 264.96C133.257 271.027 138.88 274.947 144.88 275.109 143.364 273.806 142.218 272.193 141.333 270.262 142.218 272.187 143.503 273.806 145.017 275.109 149.099 278.624 154.986 279.72 160.183 277.343L214.035 252.715 208.828 201.298 258.336 101.115 292.524 107.622C298.508 108.734 304.887 105.997 308.057 100.34 312.14 93.1993 309.559 84.0271 302.459 79.9613Z" fill="#FC9804" transform="matrix(1 0 0 1.00322 2046 962)"/></g></g></g><g clip-path="url(#clip40)"><g clip-path="url(#clip41)"><g clip-path="url(#clip42)"><path d="M2381.09 1320.38 2381.09 1320.58 2420.25 1330.54 2420.25 1367.92C2420.25 1375.76 2427.05 1382.12 2434.88 1382.12 2442.72 1382.12 2449.61 1375.76 2449.61 1367.92L2449.61 1308.7 2395.31 1294.53 2381.09 1320.38Z" fill="#FC9804"/><path d="M2471.46 1197.96 2429.34 1169.96 2418.16 1159.05 2414.96 1151.77C2413.51 1148.47 2411.63 1148.63 2410.77 1152.13L2405.77 1172.39 2343.58 1237.17 2221.78 1237.17 2205.11 1237.17C2205.11 1237.17 2169 1236.63 2169 1271.46L2169 1325.27 2191.84 1325.27C2191.84 1325.27 2191.84 1278.99 2191.84 1271.97 2191.84 1265.6 2196.22 1256.05 2204.52 1254.36L2205.72 1318.75 2224.47 1341.76 2224.47 1341.93 2205.32 1373.79C2201.28 1380.45 2203.27 1389.06 2209.69 1392.95 2216.12 1396.84 2224.7 1394.66 2228.73 1387.99L2259.21 1337.69 2241.01 1318.75 2347.51 1318.75 2351.34 1353.89 2351.34 1353.89 2325.16 1365.87 2313.03 1328.34 2291.75 1322.46 2255.09 1322.43 2289.73 1347.07 2289.73 1347.07 2300.49 1382.96C2302.26 1389.03 2307.88 1392.95 2313.88 1393.11 2312.36 1391.81 2311.22 1390.19 2310.33 1388.26 2311.22 1390.19 2312.5 1391.81 2314.02 1393.11 2318.1 1396.62 2323.99 1397.72 2329.18 1395.34L2383.03 1370.71 2377.83 1319.3 2427.34 1219.12 2461.52 1225.62C2467.51 1226.73 2473.89 1224 2477.06 1218.34 2481.14 1211.2 2478.56 1202.03 2471.46 1197.96Z" fill="#FC9804"/></g></g></g><g clip-path="url(#clip43)"><g clip-path="url(#clip44)"><g clip-path="url(#clip45)"><path d="M2476.09 1478.38 2476.09 1478.58 2515.25 1488.54 2515.25 1525.92C2515.25 1533.76 2522.05 1540.12 2529.88 1540.12 2537.72 1540.12 2544.61 1533.76 2544.61 1525.92L2544.61 1466.7 2490.31 1452.53 2476.09 1478.38Z" fill="#FC9804"/><path d="M2566.46 1355.96 2524.34 1327.96 2513.16 1317.05 2509.96 1309.77C2508.51 1306.47 2506.63 1306.63 2505.77 1310.13L2500.77 1330.39 2438.58 1395.17 2316.78 1395.17 2300.11 1395.17C2300.11 1395.17 2264 1394.63 2264 1429.46L2264 1483.27 2286.84 1483.27C2286.84 1483.27 2286.84 1436.99 2286.84 1429.97 2286.84 1423.6 2291.22 1414.05 2299.52 1412.36L2300.72 1476.75 2319.47 1499.76 2319.47 1499.93 2300.32 1531.79C2296.28 1538.45 2298.27 1547.06 2304.69 1550.95 2311.12 1554.84 2319.7 1552.66 2323.73 1545.99L2354.21 1495.69 2336.01 1476.75 2442.51 1476.75 2446.34 1511.89 2446.34 1511.89 2420.16 1523.87 2408.03 1486.34 2386.75 1480.46 2350.09 1480.43 2384.73 1505.07 2384.73 1505.07 2395.49 1540.96C2397.26 1547.03 2402.88 1550.95 2408.88 1551.11 2407.36 1549.81 2406.22 1548.19 2405.33 1546.26 2406.22 1548.19 2407.5 1549.81 2409.02 1551.11 2413.1 1554.62 2418.99 1555.72 2424.18 1553.34L2478.03 1528.71 2472.83 1477.3 2522.34 1377.12 2556.52 1383.62C2562.51 1384.73 2568.89 1382 2572.06 1376.34 2576.14 1369.2 2573.56 1360.03 2566.46 1355.96Z" fill="#FC9804"/></g></g></g><g clip-path="url(#clip46)"><g clip-path="url(#clip47)"><g clip-path="url(#clip48)"><path d="M2353.09 851.377 2353.09 851.581 2392.25 861.535 2392.25 898.919C2392.25 906.758 2399.05 913.121 2406.88 913.118 2414.72 913.118 2421.61 906.758 2421.61 898.919L2421.61 839.702 2367.31 825.528 2353.09 851.377Z" fill="#FC9804"/><path d="M2443.46 728.961 2401.34 700.955 2390.16 690.048 2386.96 682.766C2385.51 679.466 2383.63 679.625 2382.77 683.127L2377.77 703.387 2315.58 768.172 2193.78 768.172 2177.11 768.172C2177.11 768.172 2141 767.627 2141 802.459L2141 856.272 2163.84 856.272C2163.84 856.272 2163.84 809.986 2163.84 802.972 2163.84 796.596 2168.22 787.046 2176.52 785.359L2177.72 849.746 2196.47 872.759 2196.47 872.931 2177.32 904.79C2173.28 911.447 2175.27 920.059 2181.69 923.95 2188.12 927.84 2196.7 925.661 2200.73 918.995L2231.21 868.687 2213.01 849.747 2319.51 849.747 2323.34 884.893 2323.34 884.893 2297.16 896.875 2285.03 859.338 2263.75 853.456 2227.09 853.433 2261.73 878.074 2261.73 878.074 2272.49 913.96C2274.26 920.027 2279.88 923.947 2285.88 924.109 2284.36 922.806 2283.22 921.193 2282.33 919.262 2283.22 921.187 2284.5 922.806 2286.02 924.109 2290.1 927.624 2295.99 928.72 2301.18 926.343L2355.03 901.715 2349.83 850.298 2399.34 750.115 2433.52 756.622C2439.51 757.734 2445.89 754.997 2449.06 749.34 2453.14 742.199 2450.56 733.027 2443.46 728.961Z" fill="#FC9804"/></g></g></g><g clip-path="url(#clip49)"><g clip-path="url(#clip50)"><g clip-path="url(#clip51)"><path d="M2476.09 1006.38 2476.09 1006.58 2515.25 1016.54 2515.25 1053.92C2515.25 1061.76 2522.05 1068.12 2529.88 1068.12 2537.72 1068.12 2544.61 1061.76 2544.61 1053.92L2544.61 994.702 2490.31 980.528 2476.09 1006.38Z" fill="#FC9804"/><path d="M2566.46 883.961 2524.34 855.955 2513.16 845.048 2509.96 837.766C2508.51 834.466 2506.63 834.625 2505.77 838.127L2500.77 858.387 2438.58 923.172 2316.78 923.172 2300.11 923.172C2300.11 923.172 2264 922.627 2264 957.459L2264 1011.27 2286.84 1011.27C2286.84 1011.27 2286.84 964.986 2286.84 957.972 2286.84 951.596 2291.22 942.046 2299.52 940.359L2300.72 1004.75 2319.47 1027.76 2319.47 1027.93 2300.32 1059.79C2296.28 1066.45 2298.27 1075.06 2304.69 1078.95 2311.12 1082.84 2319.7 1080.66 2323.73 1073.99L2354.21 1023.69 2336.01 1004.75 2442.51 1004.75 2446.34 1039.89 2446.34 1039.89 2420.16 1051.87 2408.03 1014.34 2386.75 1008.46 2350.09 1008.43 2384.73 1033.07 2384.73 1033.07 2395.49 1068.96C2397.26 1075.03 2402.88 1078.95 2408.88 1079.11 2407.36 1077.81 2406.22 1076.19 2405.33 1074.26 2406.22 1076.19 2407.5 1077.81 2409.02 1079.11 2413.1 1082.62 2418.99 1083.72 2424.18 1081.34L2478.03 1056.71 2472.83 1005.3 2522.34 905.115 2556.52 911.622C2562.51 912.734 2568.89 909.997 2572.06 904.34 2576.14 897.199 2573.56 888.027 2566.46 883.961Z" fill="#FC9804"/></g></g></g><g clip-path="url(#clip52)"><g clip-path="url(#clip53)"><g clip-path="url(#clip54)"><path d="M212.091 202.377 212.091 202.581 251.246 212.535 251.246 249.919C251.246 257.758 258.053 264.121 265.885 264.118 273.723 264.118 280.612 257.758 280.612 249.919L280.612 190.702 226.309 176.528 212.091 202.377Z" fill="#FC9804" transform="matrix(1 0 0 1.00322 2356 962)"/><path d="M302.459 79.9613 260.34 51.9553 249.156 41.0483 245.957 33.7657C244.51 30.4659 242.63 30.6254 241.77 34.1274L236.767 54.3871 174.583 119.172 52.7839 119.172 36.1075 119.172C36.1075 119.172 0 118.627 0 153.459L0 207.272 22.8404 207.272C22.8404 207.272 22.8404 160.986 22.8404 153.972 22.8404 147.596 27.2216 138.046 35.5161 136.359L36.7205 200.746 55.4696 223.759 55.4696 223.931 36.3156 255.79C32.2799 262.447 34.267 271.059 40.6925 274.95 47.1196 278.84 55.6977 276.661 59.7317 269.995L90.2132 219.687 72.0085 200.747 178.508 200.747 182.341 235.893 182.345 235.893 156.16 247.875 144.029 210.338 122.745 204.456 86.0854 204.433 120.729 229.074 120.729 229.074 131.489 264.96C133.257 271.027 138.88 274.947 144.88 275.109 143.364 273.806 142.218 272.193 141.333 270.262 142.218 272.187 143.503 273.806 145.017 275.109 149.099 278.624 154.986 279.72 160.183 277.343L214.035 252.715 208.828 201.298 258.336 101.115 292.524 107.622C298.508 108.734 304.887 105.997 308.057 100.34 312.14 93.1993 309.559 84.0271 302.459 79.9613Z" fill="#FC9804" transform="matrix(1 0 0 1.00322 2356 962)"/></g></g></g><g clip-path="url(#clip55)"><g clip-path="url(#clip56)"><g clip-path="url(#clip57)"><path d="M2691.09 1320.38 2691.09 1320.58 2730.25 1330.54 2730.25 1367.92C2730.25 1375.76 2737.05 1382.12 2744.88 1382.12 2752.72 1382.12 2759.61 1375.76 2759.61 1367.92L2759.61 1308.7 2705.31 1294.53 2691.09 1320.38Z" fill="#FC9804"/><path d="M2781.46 1197.96 2739.34 1169.96 2728.16 1159.05 2724.96 1151.77C2723.51 1148.47 2721.63 1148.63 2720.77 1152.13L2715.77 1172.39 2653.58 1237.17 2531.78 1237.17 2515.11 1237.17C2515.11 1237.17 2479 1236.63 2479 1271.46L2479 1325.27 2501.84 1325.27C2501.84 1325.27 2501.84 1278.99 2501.84 1271.97 2501.84 1265.6 2506.22 1256.05 2514.52 1254.36L2515.72 1318.75 2534.47 1341.76 2534.47 1341.93 2515.32 1373.79C2511.28 1380.45 2513.27 1389.06 2519.69 1392.95 2526.12 1396.84 2534.7 1394.66 2538.73 1387.99L2569.21 1337.69 2551.01 1318.75 2657.51 1318.75 2661.34 1353.89 2661.34 1353.89 2635.16 1365.87 2623.03 1328.34 2601.75 1322.46 2565.09 1322.43 2599.73 1347.07 2599.73 1347.07 2610.49 1382.96C2612.26 1389.03 2617.88 1392.95 2623.88 1393.11 2622.36 1391.81 2621.22 1390.19 2620.33 1388.26 2621.22 1390.19 2622.5 1391.81 2624.02 1393.11 2628.1 1396.62 2633.99 1397.72 2639.18 1395.34L2693.03 1370.71 2687.83 1319.3 2737.34 1219.12 2771.52 1225.62C2777.51 1226.73 2783.89 1224 2787.06 1218.34 2791.14 1211.2 2788.56 1202.03 2781.46 1197.96Z" fill="#FC9804"/></g></g></g><g clip-path="url(#clip58)"><g clip-path="url(#clip59)"><g clip-path="url(#clip60)"><path d="M2786.09 1478.38 2786.09 1478.58 2825.25 1488.54 2825.25 1525.92C2825.25 1533.76 2832.05 1540.12 2839.88 1540.12 2847.72 1540.12 2854.61 1533.76 2854.61 1525.92L2854.61 1466.7 2800.31 1452.53 2786.09 1478.38Z" fill="#FC9804"/><path d="M2876.46 1355.96 2834.34 1327.96 2823.16 1317.05 2819.96 1309.77C2818.51 1306.47 2816.63 1306.63 2815.77 1310.13L2810.77 1330.39 2748.58 1395.17 2626.78 1395.17 2610.11 1395.17C2610.11 1395.17 2574 1394.63 2574 1429.46L2574 1483.27 2596.84 1483.27C2596.84 1483.27 2596.84 1436.99 2596.84 1429.97 2596.84 1423.6 2601.22 1414.05 2609.52 1412.36L2610.72 1476.75 2629.47 1499.76 2629.47 1499.93 2610.32 1531.79C2606.28 1538.45 2608.27 1547.06 2614.69 1550.95 2621.12 1554.84 2629.7 1552.66 2633.73 1545.99L2664.21 1495.69 2646.01 1476.75 2752.51 1476.75 2756.34 1511.89 2756.34 1511.89 2730.16 1523.87 2718.03 1486.34 2696.75 1480.46 2660.09 1480.43 2694.73 1505.07 2694.73 1505.07 2705.49 1540.96C2707.26 1547.03 2712.88 1550.95 2718.88 1551.11 2717.36 1549.81 2716.22 1548.19 2715.33 1546.26 2716.22 1548.19 2717.5 1549.81 2719.02 1551.11 2723.1 1554.62 2728.99 1555.72 2734.18 1553.34L2788.03 1528.71 2782.83 1477.3 2832.34 1377.12 2866.52 1383.62C2872.51 1384.73 2878.89 1382 2882.06 1376.34 2886.14 1369.2 2883.56 1360.03 2876.46 1355.96Z" fill="#FC9804"/></g></g></g><g clip-path="url(#clip61)"><g clip-path="url(#clip62)"><g clip-path="url(#clip63)"><path d="M212.091 202.377 212.091 202.581 251.246 212.535 251.246 249.919C251.246 257.758 258.053 264.121 265.885 264.118 273.723 264.118 280.612 257.758 280.612 249.919L280.612 190.702 226.309 176.528 212.091 202.377Z" fill="#FC9804" transform="matrix(1.00323 0 0 1 2444 645)"/><path d="M302.459 79.9613 260.34 51.9553 249.156 41.0483 245.957 33.7657C244.51 30.4659 242.63 30.6254 241.77 34.1274L236.767 54.3871 174.583 119.172 52.7839 119.172 36.1075 119.172C36.1075 119.172 0 118.627 0 153.459L0 207.272 22.8404 207.272C22.8404 207.272 22.8404 160.986 22.8404 153.972 22.8404 147.596 27.2216 138.046 35.5161 136.359L36.7205 200.746 55.4696 223.759 55.4696 223.931 36.3156 255.79C32.2799 262.447 34.267 271.059 40.6925 274.95 47.1196 278.84 55.6977 276.661 59.7317 269.995L90.2132 219.687 72.0085 200.747 178.508 200.747 182.341 235.893 182.345 235.893 156.16 247.875 144.029 210.338 122.745 204.456 86.0854 204.433 120.729 229.074 120.729 229.074 131.489 264.96C133.257 271.027 138.88 274.947 144.88 275.109 143.364 273.806 142.218 272.193 141.333 270.262 142.218 272.187 143.503 273.806 145.017 275.109 149.099 278.624 154.986 279.72 160.183 277.343L214.035 252.715 208.828 201.298 258.336 101.115 292.524 107.622C298.508 108.734 304.887 105.997 308.057 100.34 312.14 93.1993 309.559 84.0271 302.459 79.9613Z" fill="#FC9804" transform="matrix(1.00323 0 0 1 2444 645)"/></g></g></g><g clip-path="url(#clip64)"><g clip-path="url(#clip65)"><g clip-path="url(#clip66)"><path d="M212.091 202.377 212.091 202.581 251.246 212.535 251.246 249.919C251.246 257.758 258.053 264.121 265.885 264.118 273.723 264.118 280.612 257.758 280.612 249.919L280.612 190.702 226.309 176.528 212.091 202.377Z" fill="#FC9804" transform="matrix(1.00322 0 0 1 2567 800)"/><path d="M302.459 79.9613 260.34 51.9553 249.156 41.0483 245.957 33.7657C244.51 30.4659 242.63 30.6254 241.77 34.1274L236.767 54.3871 174.583 119.172 52.7839 119.172 36.1075 119.172C36.1075 119.172 0 118.627 0 153.459L0 207.272 22.8404 207.272C22.8404 207.272 22.8404 160.986 22.8404 153.972 22.8404 147.596 27.2216 138.046 35.5161 136.359L36.7205 200.746 55.4696 223.759 55.4696 223.931 36.3156 255.79C32.2799 262.447 34.267 271.059 40.6925 274.95 47.1196 278.84 55.6977 276.661 59.7317 269.995L90.2132 219.687 72.0085 200.747 178.508 200.747 182.341 235.893 182.345 235.893 156.16 247.875 144.029 210.338 122.745 204.456 86.0854 204.433 120.729 229.074 120.729 229.074 131.489 264.96C133.257 271.027 138.88 274.947 144.88 275.109 143.364 273.806 142.218 272.193 141.333 270.262 142.218 272.187 143.503 273.806 145.017 275.109 149.099 278.624 154.986 279.72 160.183 277.343L214.035 252.715 208.828 201.298 258.336 101.115 292.524 107.622C298.508 108.734 304.887 105.997 308.057 100.34 312.14 93.1993 309.559 84.0271 302.459 79.9613Z" fill="#FC9804" transform="matrix(1.00322 0 0 1 2567 800)"/></g></g></g><g clip-path="url(#clip67)"><g clip-path="url(#clip68)"><g clip-path="url(#clip69)"><path d="M2872.09 1161.38 2872.09 1161.58 2911.25 1171.54 2911.25 1208.92C2911.25 1216.76 2918.05 1223.12 2925.88 1223.12 2933.72 1223.12 2940.61 1216.76 2940.61 1208.92L2940.61 1149.7 2886.31 1135.53 2872.09 1161.38Z" fill="#FC9804"/><path d="M2962.46 1038.96 2920.34 1010.96 2909.16 1000.05 2905.96 992.766C2904.51 989.466 2902.63 989.625 2901.77 993.127L2896.77 1013.39 2834.58 1078.17 2712.78 1078.17 2696.11 1078.17C2696.11 1078.17 2660 1077.63 2660 1112.46L2660 1166.27 2682.84 1166.27C2682.84 1166.27 2682.84 1119.99 2682.84 1112.97 2682.84 1106.6 2687.22 1097.05 2695.52 1095.36L2696.72 1159.75 2715.47 1182.76 2715.47 1182.93 2696.32 1214.79C2692.28 1221.45 2694.27 1230.06 2700.69 1233.95 2707.12 1237.84 2715.7 1235.66 2719.73 1228.99L2750.21 1178.69 2732.01 1159.75 2838.51 1159.75 2842.34 1194.89 2842.34 1194.89 2816.16 1206.87 2804.03 1169.34 2782.75 1163.46 2746.09 1163.43 2780.73 1188.07 2780.73 1188.07 2791.49 1223.96C2793.26 1230.03 2798.88 1233.95 2804.88 1234.11 2803.36 1232.81 2802.22 1231.19 2801.33 1229.26 2802.22 1231.19 2803.5 1232.81 2805.02 1234.11 2809.1 1237.62 2814.99 1238.72 2820.18 1236.34L2874.03 1211.71 2868.83 1160.3 2918.34 1060.12 2952.52 1066.62C2958.51 1067.73 2964.89 1065 2968.06 1059.34 2972.14 1052.2 2969.56 1043.03 2962.46 1038.96Z" fill="#FC9804"/></g></g></g><g clip-path="url(#clip70)"><g clip-path="url(#clip71)"><g clip-path="url(#clip72)"><path d="M2995.09 1316.38 2995.09 1316.58 3034.25 1326.54 3034.25 1363.92C3034.25 1371.76 3041.05 1378.12 3048.88 1378.12 3056.72 1378.12 3063.61 1371.76 3063.61 1363.92L3063.61 1304.7 3009.31 1290.53 2995.09 1316.38Z" fill="#FC9804"/><path d="M3085.46 1193.96 3043.34 1165.96 3032.16 1155.05 3028.96 1147.77C3027.51 1144.47 3025.63 1144.63 3024.77 1148.13L3019.77 1168.39 2957.58 1233.17 2835.78 1233.17 2819.11 1233.17C2819.11 1233.17 2783 1232.63 2783 1267.46L2783 1321.27 2805.84 1321.27C2805.84 1321.27 2805.84 1274.99 2805.84 1267.97 2805.84 1261.6 2810.22 1252.05 2818.52 1250.36L2819.72 1314.75 2838.47 1337.76 2838.47 1337.93 2819.32 1369.79C2815.28 1376.45 2817.27 1385.06 2823.69 1388.95 2830.12 1392.84 2838.7 1390.66 2842.73 1383.99L2873.21 1333.69 2855.01 1314.75 2961.51 1314.75 2965.34 1349.89 2965.34 1349.89 2939.16 1361.87 2927.03 1324.34 2905.75 1318.46 2869.09 1318.43 2903.73 1343.07 2903.73 1343.07 2914.49 1378.96C2916.26 1385.03 2921.88 1388.95 2927.88 1389.11 2926.36 1387.81 2925.22 1386.19 2924.33 1384.26 2925.22 1386.19 2926.5 1387.81 2928.02 1389.11 2932.1 1392.62 2937.99 1393.72 2943.18 1391.34L2997.03 1366.71 2991.83 1315.3 3041.34 1215.12 3075.52 1221.62C3081.51 1222.73 3087.89 1220 3091.06 1214.34 3095.14 1207.2 3092.56 1198.03 3085.46 1193.96Z" fill="#FC9804"/></g></g></g><g clip-path="url(#clip73)"><g clip-path="url(#clip74)"><g clip-path="url(#clip75)"><path d="M3090.09 1475.38 3090.09 1475.58 3129.25 1485.54 3129.25 1522.92C3129.25 1530.76 3136.05 1537.12 3143.88 1537.12 3151.72 1537.12 3158.61 1530.76 3158.61 1522.92L3158.61 1463.7 3104.31 1449.53 3090.09 1475.38Z" fill="#FC9804"/><path d="M3180.46 1352.96 3138.34 1324.96 3127.16 1314.05 3123.96 1306.77C3122.51 1303.47 3120.63 1303.63 3119.77 1307.13L3114.77 1327.39 3052.58 1392.17 2930.78 1392.17 2914.11 1392.17C2914.11 1392.17 2878 1391.63 2878 1426.46L2878 1480.27 2900.84 1480.27C2900.84 1480.27 2900.84 1433.99 2900.84 1426.97 2900.84 1420.6 2905.22 1411.05 2913.52 1409.36L2914.72 1473.75 2933.47 1496.76 2933.47 1496.93 2914.32 1528.79C2910.28 1535.45 2912.27 1544.06 2918.69 1547.95 2925.12 1551.84 2933.7 1549.66 2937.73 1542.99L2968.21 1492.69 2950.01 1473.75 3056.51 1473.75 3060.34 1508.89 3060.34 1508.89 3034.16 1520.87 3022.03 1483.34 3000.75 1477.46 2964.09 1477.43 2998.73 1502.07 2998.73 1502.07 3009.49 1537.96C3011.26 1544.03 3016.88 1547.95 3022.88 1548.11 3021.36 1546.81 3020.22 1545.19 3019.33 1543.26 3020.22 1545.19 3021.5 1546.81 3023.02 1548.11 3027.1 1551.62 3032.99 1552.72 3038.18 1550.34L3092.03 1525.71 3086.83 1474.3 3136.34 1374.12 3170.52 1380.62C3176.51 1381.73 3182.89 1379 3186.06 1373.34 3190.14 1366.2 3187.56 1357.03 3180.46 1352.96Z" fill="#FC9804"/></g></g></g></g></svg>